<svg xmlns="http://www.w3.org/2000/svg" viewBox="0 0 175 54"><defs><style>.cls-1{fill:#fbd303}.cls-2,.cls-6{fill:#ff4338}.cls-2,.cls-3,.cls-4{fill-rule:evenodd}.cls-3{fill:#80221c}.cls-4{fill:#bf322a}.cls-5{fill:#fff}</style></defs><title>banner</title><g id="Layer_2" data-name="Layer 2"><g id="Leaderboard"><g id="banner"><rect class="cls-1" width="175" height="54" rx="6" ry="6"/><path class="cls-2" d="M99.86 48.93a8.66 8.66 0 0 0-4.73-4.12 2.94 2.94 0 0 0-2.79.43 7 7 0 0 0 5.09 4.06h2.44c0-.15.04-.3-.01-.37zM97.64 48L93 45.65l.13-.25 4.63 2.35zm-13.92-3.09a3.36 3.36 0 0 0-2.66 0 9 9 0 0 0-4.33 4c-.06.1 0 .28 0 .48l2.42-.07a.31.31 0 0 1 .22-.12A6.78 6.78 0 0 0 84 45.72c.24-.42.14-.63-.28-.81zM78.93 48l-.11-.25 4.6-2.33.13.25zm20.93 1.32zm-10.27-3.63l2.71 1.21-.41.86c-1.06-.46-2.07-.94-3.12-1.34a1.51 1.51 0 0 0-1 0c-1 .4-2.05.88-3.11 1.34l-.41-.86 2.63-1.17v-.23c-3.15-1-6.28-2-9.45-2.91A40.47 40.47 0 0 1 69.55 40 27.29 27.29 0 0 1 55.5 22.74a27.83 27.83 0 0 1-1-9.25c0-.08 0-.15.05-.32.06 1.32.07 2.55.18 3.77a27.58 27.58 0 0 0 6.83 16 26.49 26.49 0 0 0 14.75 8.53 72.5 72.5 0 0 1 11.32 3.5 1.58 1.58 0 0 0 1.27 0 119.37 119.37 0 0 1 13-4c9.38-2.56 15.43-8.71 18.61-17.8a25.84 25.84 0 0 0 1.49-8.86v-1h.19c-.07 1.69 0 3.4-.23 5.08a27.41 27.41 0 0 1-4.62 12.5 27.29 27.29 0 0 1-16.68 11.34C97 43.09 93.55 44.39 90 45.5a4.61 4.61 0 0 0-.41.19zm-4.78-2.38c1.2-2.76-1-6.81-4.61-7.68a11.22 11.22 0 0 0 1.85 6 3.78 3.78 0 0 0 2.76 1.68zm-2.9-5.49l2.72 4.6-.26.15L81.68 38zm12 4.46c1.81-1.86 2.21-4.23 2.46-6.7-3.87 1.1-5.75 5-4.64 7.7a3.13 3.13 0 0 0 2.19-1zm.82-4.43l.14.11-2.69 4.62-.18-.09a21.84 21.84 0 0 1 2.74-4.64zm8.62 4.15c.69 3.08 5.32 4.29 8.74 2.22a13 13 0 0 0-5.77-2.76 3.81 3.81 0 0 0-2.97.54zm.75.31l5.43 1.59a11.7 11.7 0 0 1-5.43-1.6zM73.21 42c-2-1.53-6 0-8.69 2.22 3.33 2.07 7.99.86 8.69-2.22zM67 43.9l5.41-1.59A11.59 11.59 0 0 1 67 43.9zm11.74-.43a3.37 3.37 0 0 0-3.22-.11 13.73 13.73 0 0 0-4.88 4c3.45 1.1 7.27-.74 8.12-3.9zm-5.44 2.8l4.62-2.52.14.26-4.63 2.5zm35.14-6.48c1.87 3 6.25 2.7 8.87.2a12.92 12.92 0 0 0-5.66-1.43 4.09 4.09 0 0 0-3.18 1.22zm.8.09l5.56.33a11.37 11.37 0 0 1-5.53-.33zm-5.12 5.61a9.68 9.68 0 0 0-3.67-2.32 3.16 3.16 0 0 0-2.71.33 6.39 6.39 0 0 0 8.17 3.82c-.61-.66-1.15-1.32-1.76-1.83zm-1 1L98.46 44l.14-.26 4.64 2.52zm-35-6.7c-1.66-2.19-6.76-1.08-8.78.26 2.66 2.64 7.01 2.51 8.73-.25zm-6.35.41l5.56-.33a11.53 11.53 0 0 1-5.6.34zm54.48-5.54a4.2 4.2 0 0 0-3.2 1.87c2 2.25 6.37 1.62 8.39-1.45a13.41 13.41 0 0 0-5.23-.41zm2.57 1.34l-4.95.69v-.27l4.93-.67zm-55.3.48A3.76 3.76 0 0 0 61 34.81a12.38 12.38 0 0 0-5.87.28c1.77 2.91 6.77 3.78 8.39 1.43zm-5.72-.73l4.92.67v.26L57.76 36zm21.5 5.74c.66-2.9-1.11-5.49-4.27-7-.85 4.51 2.08 7.34 4.28 7.04zm-3.18-4.82l2.77 3.94-.25.17-2.77-4zm21.59 4.87a4.11 4.11 0 0 0 2.62-1.54c1.38-1.62 1.43-3.54 1.26-5.5l-.19-.14c-.81.63-1.66 1.22-2.42 1.9a5.55 5.55 0 0 0-1.84 4.85c.03.42.19.52.57.47zm2.74-4.89l.17.12a30.42 30.42 0 0 1-2.77 4l-.2-.16zM118 31a12.89 12.89 0 0 0-1.48 1.59c3 2.12 6.81 0 7.88-2.85A9.86 9.86 0 0 0 118 31zm-.55 1.76l-.09-.26 4.73-1.64.1.24zm-57.57 0c-.6-2.52-5.18-3.36-7.71-3 1.17 2.92 4.94 4.9 7.7 2.94zm-.66-.21a10.11 10.11 0 0 1-4.75-1.65zm60.29-4.19c2.76 1.25 6.25-1 6.92-4.53a10.89 10.89 0 0 0-5.81 2.42 3.14 3.14 0 0 0-1.11 2.05zM120 28l4.45-2.68A10.33 10.33 0 0 1 120 28zm-63.49.51c.48-.11.69-.36.42-.79a7.69 7.69 0 0 0-1.32-1.81 10.79 10.79 0 0 0-5.46-2.16 6.12 6.12 0 0 0 1.44 3 4.85 4.85 0 0 0 4.93 1.79zm-.11-.59a9.94 9.94 0 0 1-4.24-2.55zm66.12-7.28a4 4 0 0 0-1 2.76c3 .8 5.86-2.42 5.81-5.76a10.63 10.63 0 0 0-4.8 3.03zm3.22-.83L122.41 23l-.19-.19 3.35-3.19zM55 23.44c.34-2.51-3.13-5-5.76-5.73-.02 3.29 2.83 6.53 5.76 5.73zm-.7-.58a9.36 9.36 0 0 1-3.3-3.2zm-.43-4.56c.9-2.11-1.8-5.28-4.41-6.42-.54 2.54 1.06 6.35 4.45 6.42zm-3.16-4.37l2.71 3.68-.22.18-2.68-3.73zm72.18 1.77a7 7 0 0 0-.45 2c-.06.42.1.65.63.57a4.55 4.55 0 0 0 3.65-3.16 5.73 5.73 0 0 0 .29-3.37 10 10 0 0 0-4.07 3.96zm3.11-1.63l-2.69 3.72-.22-.16 2.71-3.69zM73.74 40.23c.87-2.23-.59-6.36-2.55-7.18a8.25 8.25 0 0 0-.4 4.06c.29 1.89 1.27 2.89 2.95 3.12zm-.25-.66a8.51 8.51 0 0 1-1.74-4.37zm31.81-1a7.46 7.46 0 0 0 .05-5.55c-2.12 1.14-3.33 4.92-2.54 7.22a2.74 2.74 0 0 0 2.5-1.68zm-.49-3.38a8.73 8.73 0 0 1-1.71 4.29zm-35.9 3c1.25-2.06.75-6-1.16-7.48A7.61 7.61 0 0 0 66.63 35c.07 1.79.77 2.73 2.29 3.21zm-1-5.25l.82 4.38a8.16 8.16 0 0 1-.79-4.32zm41.77 3.34a7.15 7.15 0 0 0-.9-5.58 6.64 6.64 0 0 0-1.17 7.5 2.69 2.69 0 0 0 2.09-1.91zm-1.08-3.36a8.21 8.21 0 0 1-.82 4.38q.43-2.17.85-4.36zM53.8 13.26c1.32-2.1-1.17-5.59-3.09-6.82-1.11 3.12.29 6.13 3.09 6.82zm-2.16-4.5l1.85 3.78-.25.11-1.82-3.78zm71.11 4.51c3.13-.7 4.13-4.25 3-6.92a10.08 10.08 0 0 0-3.24 4.45 3 3 0 0 0 .24 2.47zm2.18-4.53l.22.1-1.83 3.83-.24-.12zm-11.57 25c.78-1.89-.55-4.8-1.76-5.8a6.55 6.55 0 0 0 .27 7.32 2.57 2.57 0 0 0 1.49-1.51zM112 29.88a3.92 3.92 0 0 1 0 4.61zm-49 3a2.64 2.64 0 0 0 1.69 2.36c1.6-2.24 1.67-5.94.16-7.35A7 7 0 0 0 63 32.9zm2-3v4.58a3.88 3.88 0 0 1 0-4.57zm-3.79 1.73a6.06 6.06 0 0 0 1.4-7.05A7.26 7.26 0 0 0 60 28.79a2.62 2.62 0 0 0 1.21 2.83zm.56-4.89h.26l-.7 4.07h-.23zm53.58 4.89a2.29 2.29 0 0 0 1.15-1.51c.45-1.64-.9-4.51-2.58-5.48a6.06 6.06 0 0 0 1.43 7zm-.57-4.91l.69 4.15h-.22l-.71-4.14zm3.29.84a2.66 2.66 0 0 0 .88-2.13 6.1 6.1 0 0 0-3.35-4.58c-.89 2.17.28 5.38 2.48 6.72zm-1.39-4.88l1.32 3.93-.24.08-1.32-3.92zm-58.85 1.67a2.83 2.83 0 0 0 .66 3.24c2.24-1.46 3.43-4.81 2.42-6.76a7 7 0 0 0-3.08 3.52zm2.26-1.61l-1.32 3.92-.25-.07 1.35-3.92zm-.07-6A6.26 6.26 0 0 0 56.24 20a2.81 2.81 0 0 0 .31 3A6.07 6.07 0 0 0 60 16.7zm-1.53 1.88l.23.12L57 22.17l-.24-.12zm1.28-5.79a6.62 6.62 0 0 0-3.77 1.9 2.75 2.75 0 0 0-.55 3.39c2.55-.67 4.55-3.22 4.31-5.3zm-1.69 1.6l.14.11L56 17.44a8.26 8.26 0 0 1 2.07-3.04zm62.42.29a6.67 6.67 0 0 0-3.7-1.89c-.18 2.2 1.89 4.75 4.26 5.28a2.68 2.68 0 0 0-.57-3.4zm.1 2.73l-2.34-3 .2-.15 2.34 3zm1-7.34a2.83 2.83 0 0 0 .83-3 4.51 4.51 0 0 0-2.68-2.95c-1 2.8-.24 5.15 1.85 5.94zm-1-4.15l1 3.54-.26.06L120.4 6zM56.79 4.19a4.42 4.42 0 0 0-2.66 3 2.85 2.85 0 0 0 .82 2.95c2.13-.91 2.89-3.33 1.84-5.95zm-.85 1.74l.23.07-1 3.57-.24-.07zm-.64 7.39a5.36 5.36 0 0 0 5-4.24 6.25 6.25 0 0 0-4.22 1.44 2.48 2.48 0 0 0-.78 2.8zm3.45-3.11l-2.9 2.61a7.23 7.23 0 0 1 2.9-2.62zm62.5 3.14a2.46 2.46 0 0 0-.66-2.71 6.12 6.12 0 0 0-4.31-1.56 5.34 5.34 0 0 0 4.97 4.26zm-3.3-3.35l2.92 2.6-.16.19-2.91-2.62zm.58 12.15s.67.39 1.09.65l.31.2a3 3 0 0 0 .3-3.23 6.41 6.41 0 0 0-3.81-3.17l.11 2a4.58 4.58 0 0 0 1.99 3.58zm-.53-3.66l1.8 3.51-.21.11-.48-.8-1.34-2.78z"/><path class="cls-3" d="M151.85 37.39L141 41.75v-5.49s9.64.25 10.85 1.13z"/><path class="cls-2" d="M25 17v20.33s69-7.24 126 0V17S87 8.93 25 17z"/><path class="cls-4" d="M151 27.82l15.48 1.07-6.05 6.36 4.47 7.44-23.9-.94 10-4.42v-9.51z"/><path class="cls-3" d="M25.15 37.39L36 41.75v-5.49s-9.64.25-10.85 1.13z"/><path class="cls-4" d="M25 27.82L9.78 28.89l6.19 6.36-5.19 7.44 25.12-.94L25 37.33v-9.51z"/><path class="cls-5" d="M148.27 5.68l1 1.33a.35.35 0 0 0 .3.14l1.66-.07a.35.35 0 0 1 .3.55l-1 1.36a.36.36 0 0 0 0 .33l.58 1.56a.35.35 0 0 1-.43.46l-1.59-.49a.35.35 0 0 0-.32.06l-1.3 1a.35.35 0 0 1-.57-.27V9.98a.37.37 0 0 0-.16-.29l-1.38-.92a.35.35 0 0 1 .08-.62l1.56-.51a.35.35 0 0 0 .22-.24l.45-1.6a.35.35 0 0 1 .62-.12zM159 16.74l-.16 1.12a.24.24 0 0 0 .07.21l.83.77a.24.24 0 0 1-.12.41l-1.12.2a.25.25 0 0 0-.18.14l-.47 1a.24.24 0 0 1-.43 0l-.53-1a.24.24 0 0 0-.18-.12l-1.13-.13a.24.24 0 0 1-.14-.4l.79-.81a.24.24 0 0 0 .06-.21l-.22-1.11a.24.24 0 0 1 .34-.26l1 .5a.24.24 0 0 0 .22 0l1-.56a.24.24 0 0 1 .35.24zM26.25 45.21l.82.67a.23.23 0 0 0 .2 0l1-.3a.22.22 0 0 1 .27.29l-.38 1a.22.22 0 0 0 0 .21l.6.87a.22.22 0 0 1-.2.35l-1.06-.06a.23.23 0 0 0-.19.09l-.65.84a.22.22 0 0 1-.39-.08l-.27-1a.24.24 0 0 0-.14-.15l-1-.36a.22.22 0 0 1 0-.4l.89-.58a.22.22 0 0 0 .1-.18v-1.06a.22.22 0 0 1 .36-.17zM25.9 4.84l1.58 1.27a.43.43 0 0 0 .39.08l1.95-.58a.43.43 0 0 1 .52.56l-.72 1.9a.43.43 0 0 0 0 .4l1.15 1.67a.43.43 0 0 1-.38.67l-2-.1a.42.42 0 0 0-.36.17l-1.24 1.61a.43.43 0 0 1-.76-.15l-.53-2a.45.45 0 0 0-.27-.29l-1.92-.68a.43.43 0 0 1-.09-.76L25 7.54a.42.42 0 0 0 .19-.35l.05-2a.43.43 0 0 1 .69-.32zm135.37 1.1l-.16 1.12a.23.23 0 0 0 .07.21L162 8a.24.24 0 0 1-.12.41l-1.12.19a.24.24 0 0 0-.18.14l-.47 1a.24.24 0 0 1-.43 0l-.53-1a.24.24 0 0 0-.15-.04l-1.13-.13a.24.24 0 0 1-.14-.4l.79-.81a.25.25 0 0 0 .06-.21L158.35 6a.24.24 0 0 1 .34-.26l1 .5a.24.24 0 0 0 .22 0l1-.55a.24.24 0 0 1 .36.24zm0 0"/><path class="cls-6" d="M27.18 35.29l-.15 1a.22.22 0 0 0 .07.2l.78.72a.22.22 0 0 1-.11.38l-1 .18a.23.23 0 0 0-.17.13l-.44 1a.23.23 0 0 1-.4 0l-.54-.9a.22.22 0 0 0-.17-.12L24 37.74a.22.22 0 0 1-.13-.38l.74-.76a.23.23 0 0 0 .06-.2l-.21-1a.22.22 0 0 1 .32-.24l.95.47a.22.22 0 0 0 .21 0l.92-.52a.22.22 0 0 1 .33.23zm0 0"/><path class="cls-5" d="M134.42 43.27l-.32 2.24a.47.47 0 0 0 .15.42l1.66 1.53a.48.48 0 0 1-.24.82l-2.23.39a.49.49 0 0 0-.35.27l-.94 2.06a.48.48 0 0 1-.86 0l-1.06-2a.48.48 0 0 0-.36-.25l-2.25-.26a.48.48 0 0 1-.28-.81l1.58-1.62a.5.5 0 0 0 .12-.43l-.45-2.22a.48.48 0 0 1 .68-.52l2 1a.48.48 0 0 0 .44 0l2-1.11a.48.48 0 0 1 .71.48zm-85.95-1.14l-1.07.8a.29.29 0 0 0-.12.24l.06 1.34a.28.28 0 0 1-.45.24L45.8 44a.3.3 0 0 0-.26 0l-1.25.47a.28.28 0 0 1-.37-.35l.39-1.28a.29.29 0 0 0 0-.26l-.83-1.05a.28.28 0 0 1 .22-.46L45 41a.3.3 0 0 0 .23-.13l.77-1.12a.28.28 0 0 1 .5.07l.43 1.27a.28.28 0 0 0 .19.18l1.29.36a.28.28 0 0 1 .09.5zM17.69 9.18l-.16 1.11a.23.23 0 0 0 .07.21l.82.76a.23.23 0 0 1-.12.41l-1.11.19A.24.24 0 0 0 17 12l-.46 1a.24.24 0 0 1-.43 0l-.53-1a.24.24 0 0 0-.18-.12l-1.12-.13a.24.24 0 0 1-.14-.4l.78-.8a.25.25 0 0 0 .06-.21l-.22-1.1a.24.24 0 0 1 .37-.24l1 .49a.24.24 0 0 0 .22 0l1-.55a.24.24 0 0 1 .35.24zM16.7 19.7l.88.71a.24.24 0 0 0 .21 0l1.08-.32a.24.24 0 0 1 .29.31l-.4 1a.24.24 0 0 0 0 .22l.64.92a.24.24 0 0 1-.21.37l-1.12-.06a.24.24 0 0 0-.2.09l-.68.89a.24.24 0 0 1-.42-.08l-.29-1.08a.25.25 0 0 0-.15-.16l-1.06-.37a.24.24 0 0 1 0-.42l.94-.61a.23.23 0 0 0 .1-.19V19.8a.24.24 0 0 1 .39-.18zm17.1 1.41l2.88-.26.73 8.15 3.69-.32.18 2.18q-3.25.27-6.5.58zm8.33-.73q3.43-.28 6.86-.51l.14 2-4 .29.15 2 3.41-.25.14 2-3.4.25.17 2.27 4-.29.14 2q-3.41.23-6.82.51zm15.28 7.37l-3.56.25-.53 2-2.49.16V30q1.52-5.22 3.1-10.44l2.88-.17q2.17 5 4.28 10v.12l-2.93.15zm-2.1-5.32l-1 3.58 2.32-.13zm6.62-3.3l3.76-.13a8.88 8.88 0 0 1 2.37.2A5.19 5.19 0 0 1 70 20a4.27 4.27 0 0 1 1.3 1.6 5.68 5.68 0 0 1 .52 2.4 5.64 5.64 0 0 1-.38 2.38A4.13 4.13 0 0 1 70.25 28a5.19 5.19 0 0 1-1.84 1 9.34 9.34 0 0 1-2.31.37l-3.7.16zm3 2l.26 6.11h.74a5.11 5.11 0 0 0 1.28-.2 2.51 2.51 0 0 0 1-.54 2.29 2.29 0 0 0 .61-.94 3.9 3.9 0 0 0 .18-1.44 3.94 3.94 0 0 0-.28-1.42 2.44 2.44 0 0 0-.68-.94 2.58 2.58 0 0 0-1-.51 4.53 4.53 0 0 0-1.31-.12zm8.36-2.42q3.44-.09 6.88-.15v2l-4 .08v2l3.41-.07v2l-3.4.07.05 2.27 4-.08v2q-3.41.05-6.83.15zm12.9 6.5H85v3.62h-2.8l-.13-10.34h4.16a4.77 4.77 0 0 1 3.12.85 3 3 0 0 1 1 2.41 3.15 3.15 0 0 1-.35 1.72 2.74 2.74 0 0 1-1.24 1.06q1.16 2.07 2.3 4.15v.15h-2.94zM85 20.5v2.79h1a1.83 1.83 0 0 0 1.28-.37 1.41 1.41 0 0 0 .38-1.07 1.25 1.25 0 0 0-.41-1 2.11 2.11 0 0 0-1.25-.36zm7.37-2.01h4.3a4.9 4.9 0 0 1 2.75.69 2.25 2.25 0 0 1 .92 2 2.26 2.26 0 0 1-.42 1.33 2.21 2.21 0 0 1-1.34.77 3 3 0 0 1 1.67 1 2.57 2.57 0 0 1 .49 1.64 2.66 2.66 0 0 1-1 2.16 4.7 4.7 0 0 1-3 .74H92.3q.04-5.16.07-10.33zm2.84 2v2.1h1.19a1.48 1.48 0 0 0 1-.24 1 1 0 0 0 .31-.8.9.9 0 0 0-.32-.8 1.66 1.66 0 0 0-1-.25zm0 3.93v2.42h1.19a2.15 2.15 0 0 0 1.2-.25 1.36 1.36 0 0 0 0-1.88 2.09 2.09 0 0 0-1.19-.29zm12 4.88a5.93 5.93 0 0 1-2.25-.48 5.17 5.17 0 0 1-1.7-1.19 5.1 5.1 0 0 1-1.07-1.74 5.73 5.73 0 0 1-.35-2.14 5.63 5.63 0 0 1 .44-2.12 4.86 4.86 0 0 1 1.17-1.63 5.11 5.11 0 0 1 1.78-1.07 6.68 6.68 0 0 1 4.6.14 5.11 5.11 0 0 1 1.71 1.18 4.89 4.89 0 0 1 1.05 1.74 5.62 5.62 0 0 1 .31 2.14 5.77 5.77 0 0 1-.48 2.12 5.08 5.08 0 0 1-1.17 1.67 5.19 5.19 0 0 1-1.76 1.08 6 6 0 0 1-2.28.3zm.06-2.11a2.52 2.52 0 0 0 1.11-.2 2.26 2.26 0 0 0 .84-.64 3.13 3.13 0 0 0 .54-1A4.81 4.81 0 0 0 110 24a4.47 4.47 0 0 0-.14-1.34 3.09 3.09 0 0 0-.49-1 2.29 2.29 0 0 0-.8-.68 2.74 2.74 0 0 0-2.19-.07 2.23 2.23 0 0 0-.84.63 3.13 3.13 0 0 0-.55 1 4.42 4.42 0 0 0-.22 1.33 4.83 4.83 0 0 0 .14 1.36 3.11 3.11 0 0 0 .48 1.05 2.28 2.28 0 0 0 .79.69 2.48 2.48 0 0 0 1.1.22zm12.45.47l-3.56-.17-.74 1.92-2.5-.11v-.12q2.06-5 4.19-10l2.88.14q1.62 5.2 3.18 10.41v.12l-2.93-.16zm-1.52-5.51l-1.34 3.46 2.32.11zm10.51 4.37l-1.17-.08-.24 3.61-2.8-.18.62-10.32 4.15.27a4.77 4.77 0 0 1 3 1.07 2.94 2.94 0 0 1 .86 2.48 3.14 3.14 0 0 1-.57 1.68 2.74 2.74 0 0 1-1.32 1q1 2.15 2 4.31v.15l-2.9-.21q-.79-1.91-1.63-3.78zm-.86-4.79l-.18 2.78 1 .07a1.83 1.83 0 0 0 1.31-.28 1.41 1.41 0 0 0 .45-1 1.24 1.24 0 0 0-.33-1.06 2.11 2.11 0 0 0-1.29-.41zm7.52-1.46l3.76.3a8.92 8.92 0 0 1 2.33.5 5.18 5.18 0 0 1 1.81 1.09 4.27 4.27 0 0 1 1.11 1.73 5.66 5.66 0 0 1 .23 2.42 5.61 5.61 0 0 1-.67 2.32 4.15 4.15 0 0 1-1.39 1.46 5.19 5.19 0 0 1-1.94.72 9.37 9.37 0 0 1-2.34.08l-3.69-.3zm2.69 2.34l-.5 6.09.73.06a5.13 5.13 0 0 0 1.3 0 2.51 2.51 0 0 0 1-.41 2.3 2.3 0 0 0 .72-.86 4.56 4.56 0 0 0 .25-2.85 2.44 2.44 0 0 0-.56-1 2.59 2.59 0 0 0-1-.63 4.54 4.54 0 0 0-1.28-.28z"/></g></g></g></svg>