<svg xmlns="http://www.w3.org/2000/svg" viewBox="0 0 365.83 151.67"><defs><style>.cls-1,.cls-7{fill:none}.cls-2{isolation:isolate}.cls-3{fill:#51bc7c}.cls-4{fill:#00953a}.cls-5{fill:#076d2b}.cls-6{fill:#fff}.cls-7,.cls-8{stroke:#3e3935;stroke-miterlimit:10}.cls-8{fill:#ccf3f8}.cls-9{clip-path:url(#clip-path)}.cls-10{fill:#e80f0f}.cls-11{fill:#f9f5f4;opacity:.7}.cls-12{fill:#ffd731}.cls-13,.cls-14{fill:#fbd303}.cls-14{mix-blend-mode:multiply}.cls-15{fill:#801a1a}.cls-16{fill:#f33}.cls-17{fill:#bdf4f4}.cls-18{fill:#c43b3b}</style><clipPath id="clip-path"><path class="cls-1" d="M90.49 59.65l11.44 2.43-4.33-13.41-15.33-7.25-12.35 8.16-3.08 13.8s-4.34 33.21-4.34 33.5 15.68 7.21 15.68 7.21"/></clipPath></defs><title>logo</title><g class="cls-2"><g id="Layer_2" data-name="Layer 2"><g id="title"><g id="signboard"><path class="cls-3" d="M65.77 32.94L24.93 18.75l6.88 27.51L0 60.02l36.37 13.97 12.59-25.85 10.32 1.2 6.49-16.4z"/><path class="cls-4" d="M47.16 47.55L27.51 95.7s159.91 62.76 283.72-7.31l-15.9-45.57s-90.96 56.75-248.17 4.73z"/><path class="cls-5" d="M311.23 88.39l-6.45 28.8-8.05-21.26 14.5-7.54z"/><path class="cls-3" d="M299.85 55.79l37.17-25-6.44 39.12 35.25 12.28-61.05 35 6.45-28.8-11.38-32.6z"/><path class="cls-5" d="M58.71 51.19l7.23-18.25-18.87 14.6 11.64 3.65z"/><path class="cls-6" d="M60.18 85.56l-2.3-.56-1.78 7.18-5.56-1.38 5.08-20.53 8.1 2q4 1 5.65 3.21a6.1 6.1 0 0 1 .84 5.29A6.51 6.51 0 0 1 68.48 84a5.55 5.55 0 0 1-3 1.49L68 94.82l-.07.29-5.77-1.43zm0-9.95l-1.37 5.53 2 .5a3.65 3.65 0 0 0 2.7-.1 2.9 2.9 0 0 0 1.27-1.93 2.57 2.57 0 0 0-.28-2.25 4.22 4.22 0 0 0-2.4-1.27zM85.07 77l7.45 1.28a17.85 17.85 0 0 1 4.57 1.4 10.51 10.51 0 0 1 3.43 2.51 8.77 8.77 0 0 1 1.94 3.7 11.78 11.78 0 0 1 .08 5 11.58 11.58 0 0 1-1.72 4.62 8.45 8.45 0 0 1-3 2.76 10.49 10.49 0 0 1-4.06 1.14 18.78 18.78 0 0 1-4.77-.24l-7.45-1.28zM90 82.27L87.89 94.6l1.48.25A10.28 10.28 0 0 0 92 95a5.07 5.07 0 0 0 2.17-.67 4.68 4.68 0 0 0 1.61-1.64 8 8 0 0 0 1-2.8 8.15 8.15 0 0 0 0-3 5 5 0 0 0-1-2.15A5.24 5.24 0 0 0 94 83.32a9.13 9.13 0 0 0-2.53-.8zm17.25-1.55l13.69 1.77-.54 4.14-8-1-.52 4 6.84.89-.52 4-6.84-.88-.6 4.61 8.15 1.05-.54 4.14-13.83-1.79zm28.04 16.46l-.62 7.84-5.71-.45 1.67-21.08 13.46 1.06-.33 4.16-7.76-.62-.38 4.91 6.88.54-.33 4.16zm21.11 9.49a12 12 0 0 1-4.59-1 10.46 10.46 0 0 1-3.45-2.45 10.35 10.35 0 0 1-2.13-3.58 11.83 11.83 0 0 1-.65-4.39 11.7 11.7 0 0 1 .94-4.32 10.06 10.06 0 0 1 2.36-3.39 10.29 10.29 0 0 1 3.6-2.16 13.35 13.35 0 0 1 9.24.3 10.35 10.35 0 0 1 3.45 2.39 10.11 10.11 0 0 1 2.14 3.54 11.72 11.72 0 0 1 .65 4.37 11.85 11.85 0 0 1-.94 4.34 10.35 10.35 0 0 1-2.36 3.43A10.46 10.46 0 0 1 161 106a12 12 0 0 1-4.6.67zm.14-4.32a5.11 5.11 0 0 0 2.27-.4 4.6 4.6 0 0 0 1.71-1.31 6.41 6.41 0 0 0 1.1-2.09 10 10 0 0 0 .45-2.75 9.29 9.29 0 0 0-.29-2.75 6.27 6.27 0 0 0-1-2.11 4.65 4.65 0 0 0-1.62-1.39 5.48 5.48 0 0 0-4.41-.14 4.54 4.54 0 0 0-1.69 1.28 6.49 6.49 0 0 0-1.12 2 9.26 9.26 0 0 0-.46 2.72 9.93 9.93 0 0 0 .27 2.78 6.4 6.4 0 0 0 1 2.16 4.61 4.61 0 0 0 1.6 1.42 5 5 0 0 0 2.19.58zM179.52 99l-2.37.05.16 7.41-5.73.13-.47-21.15 8.34-.18q4.17-.09 6.29 1.62a6.1 6.1 0 0 1 2.19 4.89 6.49 6.49 0 0 1-.82 3.53 5.55 5.55 0 0 1-2.47 2.21l4.87 8.38v.3l-5.94.13zm-2.58-9.61l.13 5.7h2.1a3.65 3.65 0 0 0 2.58-.8 2.9 2.9 0 0 0 .72-2.2 2.57 2.57 0 0 0-.86-2.1 4.21 4.21 0 0 0-2.65-.6zm39.38 13.43a11.24 11.24 0 0 1-1.63.93 13.05 13.05 0 0 1-2.1.76 15.74 15.74 0 0 1-2.67.47 14.11 14.11 0 0 1-4.94-.32 10.24 10.24 0 0 1-3.84-1.87 9.48 9.48 0 0 1-2.59-3.25 12.72 12.72 0 0 1-1.22-4.46 11.41 11.41 0 0 1 .42-4.56 9.76 9.76 0 0 1 2.07-3.65 11 11 0 0 1 3.49-2.55 14 14 0 0 1 4.69-1.25 17.36 17.36 0 0 1 4.12 0 10.88 10.88 0 0 1 2.74.71l.44 4.57-.2.14a14.06 14.06 0 0 0-2.67-.92 10.24 10.24 0 0 0-3.35-.16 6.46 6.46 0 0 0-4.61 2.18 6.67 6.67 0 0 0-1.23 5 7.15 7.15 0 0 0 1.91 4.68 5.49 5.49 0 0 0 4.5 1.24 7.92 7.92 0 0 0 2.24-.52l-.36-3.73-3.64.35-.38-3.94 9.14-.89 1 10a14.91 14.91 0 0 1-1.33 1.04zm16.26-.89a12 12 0 0 1-4.7-.07 10.2 10.2 0 0 1-6.67-4.8 12.35 12.35 0 0 1-1.46-8.59 10.08 10.08 0 0 1 1.64-3.79 10.32 10.32 0 0 1 3.09-2.84 13.35 13.35 0 0 1 9.11-1.55 10.34 10.34 0 0 1 3.86 1.66 10.07 10.07 0 0 1 2.8 3 11.72 11.72 0 0 1 1.51 4.16 11.86 11.86 0 0 1-.05 4.44 10.2 10.2 0 0 1-4.72 6.73 12 12 0 0 1-4.41 1.65zm-.72-4.26a5.11 5.11 0 0 0 2.14-.85 4.58 4.58 0 0 0 1.41-1.62 6.38 6.38 0 0 0 .67-2.27 9.92 9.92 0 0 0-.11-2.79 9.27 9.27 0 0 0-.83-2.64 6.3 6.3 0 0 0-1.4-1.87 4.69 4.69 0 0 0-1.87-1 5.47 5.47 0 0 0-4.35.74 4.54 4.54 0 0 0-1.4 1.59 6.46 6.46 0 0 0-.69 2.23 9.26 9.26 0 0 0 .09 2.76 9.92 9.92 0 0 0 .82 2.67 6.4 6.4 0 0 0 1.38 1.92 4.62 4.62 0 0 0 1.86 1.07 5 5 0 0 0 2.28.06zm25.93-1.09a12 12 0 0 1-4.69.32 10.46 10.46 0 0 1-4-1.39 10.34 10.34 0 0 1-3.1-2.84 11.86 11.86 0 0 1-1.86-4 11.71 11.71 0 0 1-.31-4.41 10.07 10.07 0 0 1 1.31-3.92 10.3 10.3 0 0 1 2.86-3.11 13.36 13.36 0 0 1 9-2.3 10.33 10.33 0 0 1 4 1.33 10.09 10.09 0 0 1 3 2.74 12.34 12.34 0 0 1 2.17 8.44 10.2 10.2 0 0 1-4.17 7.15 12 12 0 0 1-4.21 1.99zm-1.08-4.18a5.13 5.13 0 0 0 2.06-1 4.59 4.59 0 0 0 1.23-1.77 6.4 6.4 0 0 0 .47-2.32 9.92 9.92 0 0 0-.34-2.77 9.24 9.24 0 0 0-1-2.56 6.29 6.29 0 0 0-1.55-1.75 4.67 4.67 0 0 0-1.94-.87 5.47 5.47 0 0 0-4.27 1.1 4.56 4.56 0 0 0-1.27 1.7 6.46 6.46 0 0 0-.5 2.28 9.3 9.3 0 0 0 .32 2.75 9.94 9.94 0 0 0 1 2.59 6.35 6.35 0 0 0 1.53 1.8 4.6 4.6 0 0 0 1.94.91 5 5 0 0 0 2.32-.1zm8.95-20.32l7.12-2.54a17.87 17.87 0 0 1 4.67-1 10.48 10.48 0 0 1 4.22.5 8.8 8.8 0 0 1 3.5 2.27 11.78 11.78 0 0 1 2.5 4.28 11.57 11.57 0 0 1 .77 4.87 8.44 8.44 0 0 1-1.3 3.9 10.5 10.5 0 0 1-3 3 18.69 18.69 0 0 1-4.27 2.13L272.78 92zm6.88 2.13L276.75 86l1.41-.5a10.3 10.3 0 0 0 2.37-1.18 5.08 5.08 0 0 0 1.56-1.65 4.66 4.66 0 0 0 .59-2.21 8 8 0 0 0-.55-2.91 8.18 8.18 0 0 0-1.42-2.6 5 5 0 0 0-1.89-1.41 5.22 5.22 0 0 0-2.28-.37 9.08 9.08 0 0 0-2.59.55z"/><path class="cls-7" d="M118.5 0v71m103-71v71"/><circle class="cls-8" cx="221.5" cy="70.88" r="2"/><circle class="cls-8" cx="118.5" cy="68.88" r="2"/><path class="cls-7" d="M221.5 24v22"/><g class="cls-9" id="candy"><path class="cls-10" d="M78.19 59.19a10.78 10.78 0 0 1 20.93 5.08c0 .07-1.66 7.91-1.66 7.91a2.87 2.87 0 0 1-3.32 2.31l-.91-.19a2.81 2.81 0 0 1-2-3.44s1.62-7.61 1.63-7.65a4.38 4.38 0 0 0-3.37-5.12 4.26 4.26 0 0 0-5 2.66l-7.06 33.31a2.83 2.83 0 0 1-3.34 2.05l-.91-.19A2.75 2.75 0 0 1 71 92.76z"/><path class="cls-1" d="M86.38 51.75L99 65l-.59 2.8-5.48-5.71a4.32 4.32 0 0 0-3.41-4A4.7 4.7 0 0 0 89 58l-5.17-5.39a10.71 10.71 0 0 1 2.55-.86zM72.63 85l5.5 5.77-.62 3L72 88c.18-1 .41-2 .63-3zm5.56-25.81v-.13l5.45 5.71-.62 3L77.56 62c.37-1.76.63-2.8.63-2.81zm-1.39 6.35l5.47 5.73-.63 3-5.49-5.74c.22-1.09.45-2.08.65-2.99zM74 78.52l5.49 5.75-.63 3-5.52-5.76c.24-1.03.46-2.01.66-2.99zM75.41 72l5.48 5.74-.62 3L74.76 75c.24-1 .44-2 .65-3zm22.06.12a3 3 0 0 1-1 1.65l-4.84-5 .63-2.95 5.35 5.58zm-6.72-20.36a10.8 10.8 0 0 1 8.45 9.1l-8.7-9.15zm-9.46 2.55L85.74 59a5.61 5.61 0 0 0-1.25 1.76l-.1.47-4.79-5a10.9 10.9 0 0 1 1.69-1.92zm10.23 18.61l.87.91a2.63 2.63 0 0 1-.87-.91z"/><path class="cls-6" d="M90.49 51.71l8.7 9.15a10.72 10.72 0 0 1-.08 3.4L99 65 86.38 51.75a10.71 10.71 0 0 1 4.11-.04zm-6.67.9L89 58a4.38 4.38 0 0 0-3.22 1l-4.49-4.67a10.83 10.83 0 0 1 2.53-1.72zm13.81 18.73l-5.35-5.58.55-2.59a4.37 4.37 0 0 0 .07-1.09l5.48 5.71zm-6.43-.49l.45-2.13 4.83 5.13a2.69 2.69 0 0 1-2.34.63l-.91-.19a2.81 2.81 0 0 1-2.03-3.44zM79.6 56.19l4.79 5-.75 3.55-5.46-5.71a10.75 10.75 0 0 1 1.42-2.84zM77.56 62L83 67.71l-.75 3.55-5.49-5.73c.31-1.36.59-2.53.8-3.53zm-1.39 6.48l5.47 5.74-.75 3.55-5.5-5.77c.26-1.21.53-2.39.78-3.52zM74.77 75l5.49 5.75-.75 3.55L74 78.52c.25-1.19.53-2.38.77-3.52zm-1.39 6.47l5.5 5.76-.75 3.55L72.61 85c.25-1.15.52-2.33.77-3.53zM72 88l5.49 5.75-.07.33a2.73 2.73 0 0 1-1.88 2l-4.3-4.5z"/><path class="cls-11" d="M75.31 88.59a.75.75 0 0 0 .58.89.75.75 0 0 0 .89-.58l5.51-26a.75.75 0 0 0-.58-.89.75.75 0 0 0-.89.58zm18.77-17.18a.86.86 0 0 0 .66 1 .86.86 0 0 0 1-.66l1.82-8.6a.86.86 0 0 0-.66-1 .86.86 0 0 0-1 .66z"/></g><g id="bells"><g id="bell-right"><path class="cls-13" d="M181.23 151.45a.94.94 0 0 1-.07-.87s-.2-5.58-3.41-9.09a6.87 6.87 0 0 1-.61-8.09l-.91-1.17a2.35 2.35 0 0 1 3.7-2.9l.91 1.17a7 7 0 0 1 7.4 2.11l.1.13c.13.17.25.32.36.49 2.4 2.95 7 3.81 8.3 4a.79.79 0 0 1 .66.21c.51.6-.42 2.32-2.27 4.45a3.49 3.49 0 0 1-5 4.83c-4.39 3.56-8.39 5.66-9.16 4.73z"/><path class="cls-14" d="M181.15 150.58a17.46 17.46 0 0 0-.49-3.17c5.41-1.5 9.6-6.65 12.73-11.12a19 19 0 0 0 3.6.92.79.79 0 0 1 .66.21c.51.6-.42 2.32-2.27 4.45a3.49 3.49 0 0 1-5 4.83c-4.31 3.56-8.31 5.66-9.11 4.73a.94.94 0 0 1-.12-.85z"/><circle class="cls-6" cx="183.84" cy="133.35" r="1.74" transform="rotate(-51.04 183.844 133.358)"/><circle class="cls-6" cx="187.42" cy="136.07" r="1.12" transform="rotate(-51.03 187.412 136.064)"/></g><g id="bell-left"><path class="cls-13" d="M175.43 150.89a.93.93 0 0 0-.15-.86s-1.23-5.45 1-9.66a6.87 6.87 0 0 0-1.47-8l.59-1.36a2.35 2.35 0 0 0-4.31-1.86l-.59 1.36a7 7 0 0 0-6.62 3.92l-.06.15c-.09.19-.16.37-.23.57-1.57 3.46-5.84 5.48-7 6a.79.79 0 0 0-.58.38c-.34.71 1 2.13 3.33 3.72a3.49 3.49 0 0 0 6.09 3.4c5.06 2.35 9.47 3.35 10 2.24z"/><path class="cls-14" d="M175.28 150a17.6 17.6 0 0 1-.34-3.19c-5.61-.07-11-4-15.14-7.51a19 19 0 0 1-3.24 1.81.79.79 0 0 0-.58.38c-.34.71 1 2.13 3.33 3.72a3.49 3.49 0 0 0 6.09 3.4c5.07 2.35 9.48 3.36 10 2.25a.93.93 0 0 0-.12-.86z"/><circle class="cls-6" cx="168.3" cy="134.06" r="1.75" transform="rotate(-53.71 168.28 134.052)"/><circle class="cls-6" cx="165.53" cy="137.59" r="1.12" transform="rotate(-53.73 165.543 137.589)"/></g><path class="cls-4" d="M195.68 124.18a.45.45 0 0 1 .55.56c-.51 1.78-1.27 6.15 2.48 9a.13.13 0 0 1 0 .16.13.13 0 0 1-.15.07c-1.93-.52-6.68-1.4-8.19 2.08a.45.45 0 0 1-.8.06c-1.33-2.08-5.17-6.82-10.11-1.6a.45.45 0 0 1-.78-.34c.19-2.71.07-8.41-4.17-9.67l.44-1.29s5.35 1.67 9-2.48a.45.45 0 0 1 .79.33c-.08 2.43 1.26 5.78 10.94 3.12z"/><path class="cls-3" d="M174.55 124.48c4.23 1.26 4.36 7 4.17 9.67a.45.45 0 0 0 .78.34c4.95-5.22 8.79-.48 10.11 1.6a.45.45 0 0 0 .8-.06c1.52-3.51 6.33-2.59 8.23-2.07a.07.07 0 0 0 .09 0 .07.07 0 0 0 0-.09l-24-9.9z"/><path class="cls-4" d="M159.31 123a.45.45 0 0 0-.55.56c.51 1.78 1.27 6.15-2.48 9a.13.13 0 0 0 0 .16.13.13 0 0 0 .15.07c1.93-.52 6.68-1.4 8.19 2.08a.45.45 0 0 0 .8.06c1.33-2.08 5.17-6.82 10.12-1.6a.45.45 0 0 0 .78-.34c-.19-2.71-.07-8.41 4.17-9.67L180 122s-5.35 1.67-9-2.49a.45.45 0 0 0-.79.33c.12 2.42-1.21 5.77-10.9 3.16z"/><path class="cls-3" d="M180.44 123.26c-4.24 1.26-4.36 7-4.17 9.67a.45.45 0 0 1-.78.34c-4.95-5.22-8.79-.48-10.12 1.6a.45.45 0 0 1-.8-.06c-1.52-3.51-6.33-2.59-8.23-2.07a.07.07 0 0 1-.09 0 .07.07 0 0 1 0-.09l24-9.9z"/><circle class="cls-15" cx="174.5" cy="119.09" r="7.45" transform="rotate(-4.23 174.429 118.968)"/><circle class="cls-16" cx="182.81" cy="120.46" r="7.74" transform="rotate(-4.22 182.955 120.62)"/><circle class="cls-6" cx="186.01" cy="117.83" r="2.02" transform="rotate(-4.22 186.046 117.88)"/><circle class="cls-6" cx="187.93" cy="122.53" r="1.02" transform="rotate(-4.2 187.893 122.54)"/><circle class="cls-6" cx="170.47" cy="116.19" r="1.19" transform="rotate(-85.74 170.467 116.185)"/><circle class="cls-6" cx="169.34" cy="118.95" r=".6" transform="rotate(-85.75 169.352 118.949)"/></g><g id="hat"><path class="cls-16" d="M308.57 63.51l.11.06a13 13 0 0 0 1-2.23 13.63 13.63 0 0 0-8.43-17.07 8.2 8.2 0 0 1-1.34-14.8 6.5 6.5 0 0 1 1.02-3.47 27.16 27.16 0 0 0-34.38 9.78 29.38 29.38 0 0 0-4.31 15.31C268 52 291.51 56 308.57 63.51z"/><circle class="cls-6" cx="306.15" cy="29.61" r="6.31" transform="rotate(-14.99 306.175 29.61)"/><path class="cls-17" d="M306 35.09a6.17 6.17 0 0 1-5-5.09 1.13 1.13 0 0 1 2.24-.35 3.9 3.9 0 0 0 4.47 3.25 1.13 1.13 0 0 1 .35 2.24 6 6 0 0 1-2.06-.05z"/><path class="cls-18" d="M308 61.81a13.63 13.63 0 0 0-8.43-17.06 8.2 8.2 0 0 1-5-10.43 8.07 8.07 0 0 1 3.61-4.32 6.33 6.33 0 0 1 1.05-3.42 27.22 27.22 0 0 0-17.82-1.78 27.23 27.23 0 0 1 19.52 1.33 6.27 6.27 0 0 0-1.05 3.42 8.07 8.07 0 0 0-3.61 4.32 8.19 8.19 0 0 0 5 10.42 13.62 13.62 0 0 1 6.52 20.83 5.81 5.81 0 0 0-1-.61 13.26 13.26 0 0 0 1.21-2.7z"/><path class="cls-6" d="M305.95 72.13a4.61 4.61 0 0 1-1-.31c-18-7.93-45-11.92-45.28-11.95a4.54 4.54 0 1 1 1.3-9c1.15.16 28.45 4.19 47.63 12.63a4.54 4.54 0 0 1-2.62 8.62z"/><path class="cls-7" d="M221.5 1v17"/></g><path class="cls-3" d="M48.25 32.85l12.87 4.47-4.6 5.67-6.02-.29-2.25-9.85z"/></g></g></g></g></svg>