<svg xmlns="http://www.w3.org/2000/svg" viewBox="0 0 207.43 36.54"><defs><style>.cls-1{fill:#f33}.cls-2{fill:#801a1a}</style></defs><title>rogy</title><g id="Layer_2" data-name="Layer 2"><g id="Leaderboard"><g id="rogy"><path class="cls-1" d="M.77 6.86a1.72 1.72 0 0 1 2.38.49l2.44 3.8c.44-.47 1-.92 1-1.26L7 3.61a1.72 1.72 0 0 1 3.43.21L10.07 10a5.1 5.1 0 0 0 1.84-.73 1.76 1.76 0 0 1 2.28.92 1.71 1.71 0 0 1-.9 2.25c-4.09 1.72-5.91 2.46-6.81 2.77a1.55 1.55 0 0 0-.37 1.09c0 .51.46 1.6 2.73 3 1.2.76 2.28 1.41 3.24 2a42.53 42.53 0 0 1 4.26 2.79 10.69 10.69 0 0 0 .4-7.54A1.72 1.72 0 0 1 20 15.38c.09.26 2.17 6.1-1.12 11.27a14 14 0 0 1 1.56 2.84 12.79 12.79 0 0 0 2 3.76 1.72 1.72 0 0 1-.81 3.28c-1-.06-2.33-.76-4.39-5.73a9.53 9.53 0 0 0-1.66-2.75 1.69 1.69 0 0 1-.74.12L2.25 27.4a1.72 1.72 0 0 1 .21-3.4l8.21.51-.37-.22c-1-.59-2.08-1.25-3.31-2-2.73-1.74-4.18-3.67-4.31-5.75a4.79 4.79 0 0 1 .62-2.66l-3-4.57a1.72 1.72 0 0 1 .47-2.45z"/><path class="cls-2" d="M.77 6.86a1.72 1.72 0 0 1 1.63-.14 1.64 1.64 0 0 0-.48.21 1.72 1.72 0 0 0-.49 2.38l3 4.57a4.77 4.77 0 0 0-.62 2.66c.13 2.08 1.58 4 4.31 5.74 1.23.78 2.33 1.44 3.31 2l.36.22-1.14-.07-.37-.22c-1-.59-2.08-1.25-3.31-2-2.73-1.74-4.18-3.67-4.31-5.75a4.79 4.79 0 0 1 .62-2.66l-3-4.57a1.72 1.72 0 0 1 .49-2.37zM16 28.25a1.7 1.7 0 0 0 .74-.12 9.55 9.55 0 0 1 1.66 2.75c1.66 4 2.88 5.24 3.79 5.6a1.7 1.7 0 0 1-.54.06c-1-.06-2.33-.76-4.39-5.73a9.66 9.66 0 0 0-1.52-2.57z"/><path class="cls-2" d="M16 27.11a15.07 15.07 0 0 1 1.42 2c.59 1-1 .15-1 .15l-.9-1.23a1.69 1.69 0 0 1-.74.12L2.25 27.4A1.71 1.71 0 0 1 2 24a1.77 1.77 0 0 0-.11.49 1.72 1.72 0 0 0 1.61 1.82l12.5.8c.26 0 0 .34.22.25"/><path class="cls-1" d="M206.66 4.86a1.72 1.72 0 0 0-2.38.49l-2.44 3.8c-.44-.47-1-.92-1-1.26l-.39-6.29a1.72 1.72 0 0 0-3.43.21l.34 6.19a5.1 5.1 0 0 1-1.84-.73 1.76 1.76 0 0 0-2.28.92 1.71 1.71 0 0 0 .9 2.25c4.09 1.72 5.91 2.46 6.81 2.77a1.55 1.55 0 0 1 .37 1.09c0 .51-.46 1.6-2.73 3-1.2.76-2.28 1.41-3.24 2a42.53 42.53 0 0 0-4.26 2.79 10.7 10.7 0 0 1-.4-7.54 1.72 1.72 0 0 0-3.23-1.18c-.09.26-2.17 6.1 1.12 11.27a14 14 0 0 0-1.58 2.85 12.79 12.79 0 0 1-2 3.76 1.72 1.72 0 0 0 .81 3.28c1-.06 2.33-.76 4.39-5.73a9.54 9.54 0 0 1 1.66-2.75 1.69 1.69 0 0 0 .74.12l12.57-.78A1.72 1.72 0 0 0 205 22l-8.21.51.37-.22c1-.59 2.08-1.25 3.31-2 2.73-1.74 4.18-3.67 4.31-5.75a4.79 4.79 0 0 0-.62-2.66l3-4.57a1.72 1.72 0 0 0-.5-2.45z"/><path class="cls-2" d="M206.66 4.86a1.72 1.72 0 0 0-1.66-.14 1.64 1.64 0 0 1 .48.21 1.72 1.72 0 0 1 .52 2.39l-3 4.57a4.77 4.77 0 0 1 .62 2.66c-.13 2.08-1.58 4-4.31 5.74-1.23.78-2.33 1.44-3.31 2l-.36.22 1.14-.07.37-.22c1-.59 2.08-1.25 3.31-2 2.73-1.74 4.18-3.67 4.31-5.75a4.79 4.79 0 0 0-.62-2.66l3-4.57a1.72 1.72 0 0 0-.49-2.38zm-15.19 21.39a1.7 1.7 0 0 1-.74-.12 9.55 9.55 0 0 0-1.66 2.75c-1.66 4-2.88 5.24-3.79 5.6a1.7 1.7 0 0 0 .54.06c1-.06 2.33-.76 4.39-5.73a9.66 9.66 0 0 1 1.52-2.57z"/><path class="cls-2" d="M191.4 25.11a15.07 15.07 0 0 0-1.42 2c-.59 1 1 .15 1 .15l.9-1.23a1.69 1.69 0 0 0 .74.12l12.57-.78a1.71 1.71 0 0 0 .28-3.38 1.76 1.76 0 0 1 .11.49 1.72 1.72 0 0 1-1.58 1.85l-12.57.78c-.26 0 0 .34-.22.25"/></g></g></g></svg>