<svg xmlns="http://www.w3.org/2000/svg" viewBox="0 0 210.32 92.19"><defs><style>.cls-1{isolation:isolate}.cls-2{fill:#1e1e1e;mix-blend-mode:multiply}.cls-3{fill:#004722}.cls-4{fill:#736f6c}.cls-5{fill:#00953a}.cls-6{fill:#b5e5f1}.cls-7{fill:#fff}.cls-8{fill:#007534}.cls-9{fill:#fd0}.cls-10{fill:#ff4338}.cls-11{fill:#3e3935}.cls-12{fill:#999592}.cls-13{fill:#6fd1e6}</style></defs><title>Asset 2</title><g class="cls-1"><g id="Layer_2" data-name="Layer 2"><g id="grab-berbagi"><g id="bigcar-2"><ellipse class="cls-2" cx="107.54" cy="84.97" rx="102.79" ry="7.22"/><path class="cls-3" d="M123 32.51a1.11 1.11 0 0 0 .84 1h8c.35 0 .14-.53.14-1v-.58c0-.48.21-.41-.14-.41h-8c-.35 0-.84-.08-.84.41z"/><path class="cls-4" d="M202 66.52a1 1 0 0 1-1 1H14a1 1 0 0 1-1-1 1 1 0 0 1 1-1h187a1 1 0 0 1 1 1z"/><path class="cls-5" d="M203 48v-9.32s1-4.25-6.69-6.52l-33.8-9.35a40.54 40.54 0 0 1-8.83-3.12L133.92 8.93s-8.48-5.81-32.56-7.79c0 0-48.86-5.52-86.82 7.79L1.23 32.44a10.66 10.66 0 0 0-1 7.08L4.64 58s1.7 8.54 14.87 7.54h180.9s4.42-10.31 4.85-14c0-.01 1.74-3.94-2.26-3.54z"/><path class="cls-6" d="M14.23 9.51l3.42 2.08s2.1 1.59 0 4L5.88 31.34S4.78 33.49 3 33H.94z"/><path class="cls-7" d="M123.84 42a5.87 5.87 0 0 0-4.16-1.74 5.73 5.73 0 0 0-2.91.84 17 17 0 0 0-4.3 4.3v1.79a28.35 28.35 0 0 1 4.36-4.73 4.67 4.67 0 0 1 7.57 3.71v1.08a4.73 4.73 0 0 1-4.72 4.75 4.61 4.61 0 0 1-4.45-3.41l-.84 1a5.47 5.47 0 0 0 5.29 3.58 6 6 0 0 0 5.91-5.91V46.2a5.87 5.87 0 0 0-1.75-4.2m-25.64-.55a4.24 4.24 0 0 1 2.15.54 9.86 9.86 0 0 1 .83-.9 5.14 5.14 0 0 0-3-.83 5.72 5.72 0 0 0-5.88 5.94v7h1.2v-7a4.51 4.51 0 0 1 4.71-4.71m11.37 11.7v-7a3.83 3.83 0 0 0-7.66 0v1.08a3.88 3.88 0 0 0 3.83 3.83 3 3 0 0 0 1.82-.53v-1.25a3 3 0 0 1-1.82.6 2.61 2.61 0 0 1-2.63-2.63V46.2a2.64 2.64 0 0 1 5.27 0v7zm-32.06-7.68v.38a7.67 7.67 0 0 0 2.22 5.45 7.52 7.52 0 0 0 5.38 2.23 8.33 8.33 0 0 0 4.33-1.11A5.16 5.16 0 0 0 91 51.2v-6.45h-6.17V46h4.93v4.87a7 7 0 0 1-9.19-.34 6.49 6.49 0 0 1-1.84-4.6v-.38A6.31 6.31 0 0 1 80.77 41a7.87 7.87 0 0 1 8.72-1.11v-1.37a9.54 9.54 0 0 0-3.83-.61c-4.42 0-8.14 3.48-8.14 7.6m20.68-1.94a2.65 2.65 0 0 1 1.14.22 7.52 7.52 0 0 1 .53-1 3.5 3.5 0 0 0-1.67-.37 3.75 3.75 0 0 0-3.83 3.83v7h1.2v-7a2.52 2.52 0 0 1 2.63-2.63m-8.7-1.46v-1.41a7.74 7.74 0 0 0-3.83-.84 6.31 6.31 0 0 0-4.27 1.65 5.37 5.37 0 0 0-1.79 4v.38a5.57 5.57 0 0 0 5.52 5.6c2.48 0 3.5-.81 3.76-1.07v-3.6h-4V48h2.93v1.8a6.53 6.53 0 0 1-2.63.46A4.27 4.27 0 0 1 82.06 49a4.41 4.41 0 0 1-1.27-3.13v-.38a4.72 4.72 0 0 1 4.87-4.41 5.52 5.52 0 0 1 3.83 1.06m28.25 2.26a2.79 2.79 0 0 1 1.94-.85 2.6 2.6 0 0 1 2.64 2.63v1.08a2.61 2.61 0 0 1-2.64 2.63 2.49 2.49 0 0 1-1.95-1.1 4.34 4.34 0 0 1-.84-2.24l-1 1.18a4.54 4.54 0 0 0 1.33 2.38 3.61 3.61 0 0 0 2.42 1 3.84 3.84 0 0 0 3.83-3.83V46.2a3.9 3.9 0 0 0-3.83-3.83 4.29 4.29 0 0 0-2.83 1.31c-.32.32-1.07 1.07-1.53 1.61-.77.84-1.89 2.11-2.84 3.38v1.87c1.06-1.36 1.67-2.12 2.66-3.27a36.44 36.44 0 0 1 2.62-2.85m-17.9 2.86a6 6 0 0 0 5.91 5.91 4.3 4.3 0 0 0 1.82-.38v-1.2a5 5 0 0 1-1.82.38 4.77 4.77 0 0 1-4.73-4.71V46.2a4.78 4.78 0 0 1 4.71-4.71 4.68 4.68 0 0 1 4.71 4.71v7h1.2V46a6 6 0 0 0-1.83-4 5.91 5.91 0 0 0-10 4.25zm13.85-4.63a9.67 9.67 0 0 1 1.2-1.26v-6.33h-1.2zm2.08-1.75v-5.84H117v5a7.44 7.44 0 0 0-1.2.82"/><path class="cls-8" d="M61.89 65.52v-.1a22.13 22.13 0 0 0-44.25 0 1.12 1.12 0 0 0 0 .15z"/><path class="cls-9" d="M203 38.68a18.59 18.59 0 0 0-4.92-1.17l-8.51-.64s-2.88.11.84 5.1c0 0 3.59 4.57 12.59 5.1z"/><path class="cls-7" d="M84.33 65.52h-3.16a231.84 231.84 0 0 1-23.93-24h3.18c6.87 7 17.25 17 23.91 24zm-19.83-28a14.16 14.16 0 1 0 0-28.31 14 14 0 0 0-10.4 4.16 14.88 14.88 0 0 0-3.81 10.25 17.17 17.17 0 0 0 2.5 8.9h-2.67c-.32 0-.61-1.38-.86-2A20.3 20.3 0 0 1 48 23.54a16.77 16.77 0 0 1 4.43-11.66A16.17 16.17 0 0 1 64.5 7a16.75 16.75 0 0 1 0 33.5L.94 40.4l-.36-.56C.44 39.18 0 37.52 0 37.52z"/><path class="cls-7" d="M82.52 23.45a18.23 18.23 0 0 0-4.68-12.13 18 18 0 0 0-9.73-5.52h.79a15.49 15.49 0 0 1 15.54 15.75 13.83 13.83 0 0 1-3.78 9.85 17.92 17.92 0 0 0 1.86-7.95zm4.1 42.07l-23.92-24h3.18l23.91 24h-3.17zm-85.98-31h67.69c.45 0 .88-.17 1.32-.2l2.68-.42a9.8 9.8 0 0 1-6.7 2.62H.11c.12-1 .33-2 .53-2z"/><path class="cls-3" d="M64.34 7.72l.29 17.71s.7 4.31-5.08 3.12c0 0-13.81-2.45-24.88-9.22 0 0-5.69-4.12 1.56-8.18 0 0 13-5.47 24.21-7.72 0 0 3.81-1.59 3.9 4.29z"/><path class="cls-6" d="M61.24 26.52a1.12 1.12 0 0 0 .78-.2 2.26 2.26 0 0 0 0-.45v-.2l-.29-17.9a5 5 0 0 0-.33-2l-.22.11h-.22c-10.22 2-22.14 6.92-23.56 7.5-1.39.8-2.24 1.64-2.28 2.27s.66 1.4 1 1.72c10.54 6.32 23.76 8.85 23.88 8.87a8.41 8.41 0 0 0 1.23.28z"/><path class="cls-3" d="M131.25 10.84l11.58 8.07c5.1 3.08 4.36 5.87 4.36 5.87-.42 3.29-4.57 3.74-4.57 3.74H67.07c-3.19 0-2.9-4.25-2.9-4.25-.32-4.78 0-18.12 0-18.12.07-3.74 4.51-3.49 4.51-3.49s21.84.15 36 1.41l1.82.18s1.84.26 4.57.75c5.63 1 15.1 3 20.18 5.84z"/><path class="cls-6" d="M142.41 26.52c.46 0 2.3-.61 2.47-1.88v-.16c0-.25-.23-1.72-3.27-3.56l-.13-.09-11.48-8c-7.14-3.89-23.68-6.48-23.85-6.5-13.65-1.39-37.26-1.81-37.5-1.81h-.12c-1.35 0-2 .66-2.06 1.49 0 .14-.28 13.47 0 18.1v.4a3.38 3.38 0 0 0 .41 1.93.2.2 0 0 0 .17.09z"/><path class="cls-7" d="M137 65.52V46.17c0-6 1.8-6.66 2.66-6.93a5.82 5.82 0 0 1 .84-.13 19.92 19.92 0 0 0-.5 5.73v20.68zm46.22 0h-3.72L153.74 40l-.29-.38-1.27-1.37c-3-3-6-4.93-8.86-5.62 3.71-1 7.8.71 12.13 5z"/><path class="cls-7" d="M132.47 45.41v-1.7c0-.15 0-.42.06-.62s0-.3.06-.46.05-.38.08-.56.05-.29.08-.44.07-.35.11-.51l.1-.41c0-.16.08-.32.13-.47s.08-.26.12-.39.1-.29.15-.43l.14-.36.18-.39.16-.33.2-.36.18-.3.23-.33.2-.27.26-.3.22-.24.29-.27.24-.21.33-.25.25-.18.37-.23.25-.15.45-.21.22-.1c.23-.1.47-.18.72-.26a8.1 8.1 0 0 1 1.45-.32c.24 0 .49-.05.74-.06 3.23-.11 6.69 1.65 10.34 5.31l25.88 25.93H173l-24-24c-.24-.24-.48-.46-.72-.68l-.1-.09-.07-.06-.54-.48-.15-.12s-3.13-3-6.53-3.09h-1.23l-.52.13-.19.06h-.32s-3.82.58-4 8.93v.95l-.27 18.25h-1.85v-19c-.06-.2-.05-.58-.04-.93z"/><path class="cls-8" d="M188.53 65.52v-.1a22.13 22.13 0 0 0-44.26 0 1.28 1.28 0 0 0 0 .15z"/><path class="cls-10" d="M.94 42.46c7.07 1 7.9-1.24 7.9-1.24 1.58-4.67.33-6 .33-6L.31 35a9.72 9.72 0 0 0-.13 4.2z"/><circle class="cls-11" cx="166.43" cy="65.59" r="20.12"/><circle class="cls-4" cx="166.43" cy="65.59" r="14.48"/><circle class="cls-12" cx="166.43" cy="65.59" r="11.73"/><path class="cls-11" d="M166.43 69.59a4 4 0 1 1 4-4 4 4 0 0 1-4 4zm11-6.14a11.3 11.3 0 0 0-1-2.88 1 1 0 0 0-1.62-.33c-1.56 1.17-3.27 1.55-4.47.77s-1.53-2.31-1.21-4.1v-.23c.11-.57.23-2-1.13-2.16a11.58 11.58 0 0 0-1.69-.13 11.27 11.27 0 0 0-2.17.22c-1.22.35-.69 1.72-.69 1.72.53 2 .19 3.87-1.07 4.68-1.09.7-2.61.47-4.05-.46-1.35-.78-1.93-.16-2.12.14a11.35 11.35 0 0 0-.94 2.8c-.09 1 1.39.74 1.39.74 1.78-.31 3.36.1 4.08 1.24 1 1.63 0 4.19-2.34 6s-1.14.85-.41 1.77a11.28 11.28 0 0 0 3.17 2.42c.38.13 1.4.33 1.91-1.14.6-2.19 2-3.73 3.56-3.73s2.88 1.44 3.5 3.53.46 1.71 1.53 1.28l.25-.13a11.24 11.24 0 0 0 2.73-2.2c.68-.89-.49-1.84-.49-1.84-2.15-1.85-3.15-4.36-2.15-5.97.73-1.16 2.34-1.55 4.16-1.22s1.53.32 1.3-.78zm0 0"/><path class="cls-11" d="M166.43 63.59a2 2 0 1 1-2 2 2 2 0 0 1 2-2zm0 0"/><circle class="cls-11" cx="39.91" cy="65.59" r="20.12"/><circle class="cls-4" cx="39.91" cy="65.59" r="14.48"/><circle class="cls-12" cx="39.91" cy="65.59" r="11.73"/><path class="cls-11" d="M39.91 69.59a4 4 0 1 1 4-4 4 4 0 0 1-4 4zm11-6.14a11.27 11.27 0 0 0-1-2.88 1 1 0 0 0-1.62-.33c-1.56 1.17-3.27 1.55-4.47.77s-1.53-2.31-1.21-4.1v-.23c.11-.57.23-2-1.13-2.16a11.58 11.58 0 0 0-1.69-.13 11.28 11.28 0 0 0-2.17.22c-1.1.39-.62 1.71-.62 1.71.53 2 .19 3.87-1.07 4.68-1.09.7-2.61.47-4.05-.46-1.35-.78-1.93-.16-2.12.14a11.39 11.39 0 0 0-.94 2.8c-.09 1 1.39.74 1.39.74 1.79-.31 3.36.1 4.08 1.24 1 1.63 0 4.19-2.34 6s-1.14.85-.41 1.77a11.27 11.27 0 0 0 3.17 2.42c.38.13 1.4.33 1.91-1.14.6-2.19 2-3.73 3.56-3.73s2.88 1.44 3.5 3.53.46 1.71 1.53 1.28l.25-.13a11.2 11.2 0 0 0 2.73-2.2c.68-.89-.49-1.84-.49-1.84-2.26-1.83-3.26-4.33-2.24-5.94.74-1.16 2.34-1.55 4.16-1.22s1.53.32 1.3-.78zm0 0"/><path class="cls-11" d="M39.91 63.59a2 2 0 1 1-2 2 2 2 0 0 1 2-2zm0 0"/><path class="cls-13" d="M40.49 12.12s-9.49 2.72-3.27 5.82c0 0 12.9 7.17 23.62 8.47s81.57 0 81.57 0 2.32-.58 2.49-2-102 4.06-104.41-11.9"/><path class="cls-3" d="M99.11 5.69l-4.09-.17v22h6.01L99.11 5.69zM67.28 2.82s-4.84-.37-6.12.44-.22 25.48-.22 25.48l8.86-.21S65.64 4.49 67.28 2.82z"/></g></g></g></g></svg>