<svg xmlns="http://www.w3.org/2000/svg" viewBox="0 0 224.44 100.53"><defs><style>.cls-1{isolation:isolate}.cls-2{fill:#1e1e1e;mix-blend-mode:multiply}.cls-3{fill:#736f6c}.cls-4{fill:#00953a}.cls-5{fill:#007534}.cls-6{fill:#fd0}.cls-7{fill:#fff}.cls-8{fill:#004722}.cls-9{fill:#b5e5f1}.cls-10{fill:#ff4338}.cls-11{fill:#3e3935}.cls-12{fill:#999592}.cls-13{fill:#6fd1e6}</style></defs><title>bigcar-1</title><g class="cls-1"><g id="Layer_2" data-name="Layer 2"><g id="grab-berbagi"><g id="bigcar-1"><ellipse class="cls-2" cx="111.64" cy="93.48" rx="108.31" ry="7.05"/><path class="cls-3" d="M17.2 74.59c0-.67.55-.73 1.2-.73h201.12c.65 0 1.68.06 1.68.73v.16c0 .67-1 1.11-1.68 1.11H18.4a1.13 1.13 0 0 1-1.2-1.11z"/><path class="cls-4" d="M222.2 53.49V43.08s.74-4.73-7.48-7.26l-36.5-10.41a42.37 42.37 0 0 1-9.56-3.47l-21.31-12s-9.13-6.47-35-8.68c0 0-52.55-6.15-93.38 8.68l-7.22.17L9.43 15l3.43 2.29-8.23 18.85A12.22 12.22 0 0 0 3.56 44l2.1 9.29L.8 57l2.08 8.11a25.13 25.13 0 0 0 21.4 8.78h194.53s5-11.92 5.5-16c0-.05.89-4.89-2.11-4.4z"/><path class="cls-5" d="M72.19 73.86v-.36a21.21 21.21 0 1 0-42.41 0v.34z"/><path class="cls-6" d="M222.2 44.79s-5.14-3.23-9.07-3.33l-15.22-.62s.84-.26 7.4 4.62l.65.36c1.65.9-5.95 3.12-5.25 3.42 2.95 1.28 11.5 1.17 21.5 1.56z"/><path class="cls-7" d="M94 73.86h-3.4c-6.4-6-15.35-13-25.73-23h3.42c7.37 6 18.53 16 25.71 23zm-21.34-28c8.42 0 15.28-6.09 15.28-13.74s-6.86-13.81-15.28-13.81a15.86 15.86 0 0 0-11.18 4.08 13.53 13.53 0 0 0-4.1 9.89 15.43 15.43 0 0 0 2.69 8.58H57.2c-.34 0-.65-1.21-.93-1.87A17.88 17.88 0 0 1 55 32.28a15.49 15.49 0 0 1 4.77-11.36 18.32 18.32 0 0 1 12.92-4.73c9.76 0 17.69 7 17.69 15.83s-7.96 15.84-17.72 15.84h-69l-.1-.27c-.15-.63-.21-1.73-.23-1.73z"/><path class="cls-7" d="M92 32.26a16.92 16.92 0 0 0-5-11.84A19.87 19.87 0 0 0 76.54 15h.85c9.53 0 16.71 6.91 16.71 15.41A12.85 12.85 0 0 1 90 40a16.19 16.19 0 0 0 2-7.74zm4.45 41.6l-25.72-23h3.41l25.72 23h-3.41zM4 42.86h72.78c.48 0 .95-.06 1.42-.08l2.88-.44a11.11 11.11 0 0 1-7.21 2.53H3.42c.12-1.01.35-2.01.58-2.01z"/><path class="cls-8" d="M147.38 14l13.84 8.77c6.1 3.35 5.21 6.69 5.21 6.69-.51 3.58-5.46 4.38-5.46 4.38H70.69c-3.81 0-3.46-4.93-3.46-4.93-.38-5.19 0-19.83 0-19.83.08-4.06 5.4-3.87 5.4-3.87s28.44.14 45.2 1.68c-.04.02 20.54 2.6 29.55 7.11z"/><path class="cls-9" d="M160.67 31.86c.68-1 3.06-.94 3.28-2.54v-.19c0-.33-.16-2.25-4-4.38l-.14-.09L146.06 16c-8.56-4.24-28.41-6.59-28.61-6.62-16.36-1.51-44.6-1.48-44.88-1.48-1.11 0-2.85 0-2.88 1.49 0 .16-.34 14.56 0 19.59v.23a4.18 4.18 0 0 0 .61 2.54.4.4 0 0 0 .36.15z"/><path class="cls-7" d="M150.2 73.86V54.45c0-5.89 2.15-6.51 3.08-6.77a11.87 11.87 0 0 1 1.18-.13c-.47 1.31-.26 3.1-.26 5.59v20.72zm50.13 0h-4L168.2 48.2v-.07h.14L167 46.75c-3.27-3-6.43-4.81-9.53-5.49 4-.94 8.39 1 13 5.19z"/><path class="cls-7" d="M145.75 53.71v-1.67c0-.15 0-.41.07-.61s0-.3.06-.44.06-.37.09-.55.06-.28.09-.43.07-.34.12-.5.07-.27.11-.4l.14-.46.13-.38c.05-.14.11-.28.16-.42l.15-.35.19-.39.18-.32.22-.35.2-.29.25-.32.22-.26.28-.3.24-.24.31-.27.25-.21.35-.24.27-.18.4-.22.27-.14.48-.21.24-.1c.25-.09.51-.18.78-.26a9.44 9.44 0 0 1 1.56-.31c.26 0 .53 0 .79-.06 3.47-.1 7.2 1.87 11.12 5.44l27.84 25.58h-4l-25.75-23.73c-.26-.24-.52-.58-.77-.8 0 0-.08-.12-.11-.15l-.08-.09-.6-.48-.16-.13s-3.36-2.95-7-3h-1.33l-.56.13-.2.06h-.34s-3.87.56-4.1 8.72c0 .05-.07.11-.07.16v19.1h-2.47V55c-.04-.32-.03-.95-.02-1.29z"/><path class="cls-5" d="M206 73.86v-.36a21.21 21.21 0 1 0-42.42 0v.34z"/><path class="cls-10" d="M4.31 36.81S-2.22 53.85.8 57s5.51-3.59 5.51-3.59"/><path class="cls-8" d="M62.89 5.57S41.71 4.7 34 9.75s-13.36 16.19-5.56 19.1l8.57 5h22.54s4.33-.44 4.37-2.57S65.27 7 62.89 5.57z"/><path class="cls-9" d="M59.36 31.86c.79-1 1.71-.47 2.07-.72 0-.3 0-.78.06-1.37.65-14.91.2-20.14-.21-22h-2C48 7.79 39.1 9.21 35.46 11.59c-4.85 3.17-8.69 9.09-8.23 12.69a2.94 2.94 0 0 0 2.16 2.55l.22.14 8.15 4.89z"/><circle class="cls-11" cx="185.01" cy="73.42" r="19.65"/><circle class="cls-3" cx="185.01" cy="73.42" r="14.15"/><circle class="cls-12" cx="185.01" cy="73.42" r="11.46"/><path class="cls-11" d="M185 77.32a3.91 3.91 0 1 1 3.91-3.91 3.91 3.91 0 0 1-3.91 3.91zm10.79-6a11 11 0 0 0-1-2.81 1 1 0 0 0-1.58-.32c-1.52 1.15-3.2 1.51-4.37.76s-1.5-2.26-1.18-4v-.18c.11-.55.23-1.94-1.1-2.11a11.29 11.29 0 0 0-1.65-.12 11.07 11.07 0 0 0-2.12.21c-1.19.35-.68 1.68-.68 1.68.52 2 .19 3.78-1 4.57-1.07.69-2.55.46-4-.45-1.32-.76-1.89-.15-2.07.14a11 11 0 0 0-.92 2.73c-.09 1 1.36.72 1.36.72 1.74-.3 3.28.09 4 1.21 1 1.59 0 4.09-2.29 5.88s-1.12.83-.4 1.73a11 11 0 0 0 3.21 2.3c.37.13 1.37.32 1.87-1.11.59-2.14 1.92-3.64 3.47-3.64s2.81 1.41 3.42 3.45.45 1.67 1.5 1.25l.24-.13a11 11 0 0 0 2.66-2.14c.66-.87-.48-1.8-.48-1.8-2.2-1.78-3.19-4.23-2.19-5.81.72-1.13 2.29-1.52 4.06-1.19s1.5.31 1.27-.76zm0 0"/><path class="cls-11" d="M185 71.47a2 2 0 1 1-2 2 2 2 0 0 1 2-2zm0 0"/><circle class="cls-11" cx="51.24" cy="73.42" r="19.65"/><circle class="cls-3" cx="51.24" cy="73.42" r="14.15"/><circle class="cls-12" cx="51.24" cy="73.42" r="11.46"/><path class="cls-11" d="M51.24 77.32a3.91 3.91 0 1 1 3.91-3.91 3.91 3.91 0 0 1-3.91 3.91zm10.79-6a11 11 0 0 0-1-2.81 1 1 0 0 0-1.58-.32c-1.52 1.15-3.19 1.51-4.37.76s-1.5-2.26-1.18-4v-.18c.11-.55.23-1.94-1.1-2.11a11.32 11.32 0 0 0-1.65-.12 11.07 11.07 0 0 0-2.12.21c-1.19.35-.68 1.68-.68 1.68.52 2 .19 3.78-1 4.57-1.07.69-2.55.46-4-.45-1.32-.76-1.89-.15-2.07.14a11.08 11.08 0 0 0-.92 2.73c-.09 1 1.36.72 1.36.72 1.74-.3 3.28.09 4 1.21 1 1.59 0 4.09-2.29 5.88s-1.12.83-.4 1.73a11 11 0 0 0 3.09 2.36c.37.13 1.37.32 1.87-1.11.59-2.14 1.92-3.64 3.47-3.64s2.89 1.33 3.54 3.37.45 1.67 1.5 1.25l.24-.13a11 11 0 0 0 2.66-2.14c.66-.87-.48-1.8-.48-1.8-2.21-1.78-3.19-4.23-2.19-5.81.72-1.13 2.29-1.52 4.06-1.19s1.5.31 1.27-.76zm0 0"/><path class="cls-11" d="M51.24 71.47a2 2 0 1 1-2 2 2 2 0 0 1 2-2zm0 0"/><path class="cls-8" d="M71.2 37.7c0 .47 0 .16.38.16h8.62c.38 0 1 .31 1-.16v-.57c0-.47-.62-1.27-1-1.27h-8.61c-.38 0-.38.8-.38 1.27zm67 0c0 .47.41.16.79.16h8.63c.37 0 .59.31.59-.16v-.57c0-.47-.21-1.27-.59-1.27H139c-.38 0-.79.8-.79 1.27z"/><path class="cls-13" d="M27.73 21S98.17 32 164 29.27c0 0-1.2 2.48-2.24 2.48s-122.48 1-123.73.72S23.83 27.1 27.73 21z"/><path class="cls-8" d="M70.45 5.86h-8.06l-1.77 28.05 12.78.25-2.95-28.3zm47.43 2h-8.06l-1.77 25.93 12.78.16-2.95-26.09z"/><path class="cls-7" d="M138.39 51.54a5.73 5.73 0 0 0-4.07-1.7 5.59 5.59 0 0 0-2.85.82 16.59 16.59 0 0 0-4.2 4.2v1.75a27.7 27.7 0 0 1 4.26-4.61 4.57 4.57 0 0 1 7.39 3.62v1.05a4.62 4.62 0 0 1-4.6 4.6 4.51 4.51 0 0 1-4.32-3.33l-.82 1a5.35 5.35 0 0 0 5.17 3.5 5.83 5.83 0 0 0 5.77-5.77v-1.06a5.73 5.73 0 0 0-1.71-4.07m-25-.53a4.14 4.14 0 0 1 2.1.52 9.94 9.94 0 0 1 .81-.88 5 5 0 0 0-2.91-.81 5.59 5.59 0 0 0-5.77 5.77v6.82h1.17v-6.82a4.4 4.4 0 0 1 4.6-4.6m11.11 11.42v-6.82a3.74 3.74 0 0 0-7.48 0v1.05a3.79 3.79 0 0 0 3.74 3.74 3 3 0 0 0 1.78-.52v-1.23a2.91 2.91 0 0 1-1.78.58 2.55 2.55 0 0 1-2.57-2.57v-1.05a2.57 2.57 0 0 1 5.15 0v6.82zm-31.31-7.5v.38a7.5 7.5 0 0 0 2.16 5.32 7.35 7.35 0 0 0 5.26 2.18 8.14 8.14 0 0 0 4.23-1.08 5.05 5.05 0 0 0 1.47-1.24V54.2h-6v1.17h4.81v4.76a6.86 6.86 0 0 1-9-.33 6.34 6.34 0 0 1-1.8-4.49v-.37a6.16 6.16 0 0 1 2-4.44 7.69 7.69 0 0 1 8.52-1.08v-1.31a9.31 9.31 0 0 0-3.74-.6c-4.31 0-8 3.4-8 7.43M113.35 53a2.58 2.58 0 0 1 1.12.21 7.27 7.27 0 0 1 .51-1 3.41 3.41 0 0 0-1.63-.36 3.66 3.66 0 0 0-3.74 3.74v6.82h1.17v-6.8a2.46 2.46 0 0 1 2.57-2.61m-8.51-1.37v-1.35a7.56 7.56 0 0 0-3.74-.82 6.15 6.15 0 0 0-4.17 1.61 5.24 5.24 0 0 0-1.75 3.86v.38a5.44 5.44 0 0 0 5.39 5.47c2.42 0 3.41-.79 3.67-1v-3.55h-4v1.17h2.86v1.76a6.38 6.38 0 0 1-2.56.45 4.17 4.17 0 0 1-3-1.24 4.32 4.32 0 0 1-1.24-3.06v-.37a4.61 4.61 0 0 1 4.76-4.3 5.39 5.39 0 0 1 3.74 1m27.59 2.2a2.72 2.72 0 0 1 1.89-.83 2.54 2.54 0 0 1 2.57 2.57v1.05a2.55 2.55 0 0 1-2.57 2.57 2.43 2.43 0 0 1-1.9-1.08 4.23 4.23 0 0 1-.78-2.12l-.95 1.16a4.44 4.44 0 0 0 1.3 2.33 3.53 3.53 0 0 0 2.37 1 3.75 3.75 0 0 0 3.74-3.74v-1.14a3.81 3.81 0 0 0-3.74-3.74 4.19 4.19 0 0 0-2.77 1.28c-.31.31-1 1-1.5 1.57-.75.82-1.85 2.06-2.78 3.3v1.83c1-1.33 1.63-2.07 2.6-3.2a35.48 35.48 0 0 1 2.56-2.78m-17.49 2.79a5.83 5.83 0 0 0 5.77 5.77 4.2 4.2 0 0 0 1.78-.37V60.9a4.84 4.84 0 0 1-1.78.37 4.67 4.67 0 0 1-4.6-4.6v-1.06a4.67 4.67 0 0 1 4.6-4.6 4.58 4.58 0 0 1 4.6 4.6v6.82h1.17v-7.05a5.81 5.81 0 0 0-1.79-3.92 5.77 5.77 0 0 0-9.75 4.15zm13.53-4.53a9.38 9.38 0 0 1 1.17-1.23v-6.17h-1.17zm2-1.71v-5.7h1.17v4.9a7.28 7.28 0 0 0-1.17.8"/></g></g></g></g></svg>