<svg xmlns="http://www.w3.org/2000/svg" viewBox="0 0 73.91 51.88"><defs><style>.cls-1{fill:#191d26}.cls-2{fill:#1b1c20}.cls-3{fill:#757575}.cls-4{fill:#a4a4a4}.cls-5{fill:#de9526}.cls-6{fill:#ea7200}.cls-7{fill:#b5e5f1}.cls-8{fill:#353535}.cls-9{fill:#fd0}.cls-10{fill:#fff}</style></defs><title>car-2</title><g id="Layer_2" data-name="Layer 2"><g id="grab-berbagi"><g id="car-2"><path class="cls-1" d="M50.91 17.14c-.91 0-1.64.54-1.64 1.21v8.75h3.29v-8.75c-.01-.67-.74-1.21-1.65-1.21z"/><circle class="cls-2" cx="6.26" cy="45.62" r="6.26"/><circle class="cls-3" cx="6.26" cy="45.62" r="4.05"/><circle class="cls-4" cx="6.26" cy="45.62" r="2.85"/><circle class="cls-2" cx="6.26" cy="45.62" r=".87"/><path class="cls-1" d="M31.58 17.14c-.91 0-1.64.54-1.64 1.21v8.75h3.29v-8.75c0-.67-.74-1.21-1.65-1.21z"/><path class="cls-5" d="M10.53 35.69C3.07 35.24.91 38.08.31 39.46a.51.51 0 0 0 .47.72h5.88A5 5 0 0 1 10.54 42l2.39 2.89a.51.51 0 0 0 .88-.16c1.6-4.84-3.28-9.04-3.28-9.04z"/><path class="cls-6" d="M19.45 27.18h-1.13V4.32h.63v-.1h-1.89l-9.5 17.55a8 8 0 0 0-.26 6.64l5.07 12.33a4.46 4.46 0 0 0 4.13 2.77h53.77a2.14 2.14 0 0 0 2.14-2.14V27.18z"/><path d="M72.41 27.1L64.57 2.26 53.81 0 15.09 4.12v.53h40.32V27.1h17z"/><path class="cls-7" d="M16.19 5.81l-8.64 16a8.12 8.12 0 0 0-.45 1.09h5.22a1 1 0 0 0 1-.75l3.87-15a1 1 0 0 0-1-1.34z"/><path class="cls-8" d="M6.7 25.44h11.62v-.8H6.73c-.02.27-.03.53-.03.8z"/><path class="cls-9" d="M72.45 31.28v4.06a1.46 1.46 0 0 0 1.46-1.46v-1.13a1.46 1.46 0 0 0-1.46-1.47z"/><path class="cls-2" d="M28.61 28.95h5.45v.93h-5.45zm20.64 0h5.45v.93h-5.45z"/><circle class="cls-2" cx="60.64" cy="45.62" r="6.26"/><circle class="cls-3" cx="60.64" cy="45.62" r="4.05"/><circle class="cls-4" cx="60.64" cy="45.62" r="2.85"/><circle class="cls-2" cx="60.64" cy="45.62" r=".87"/><path class="cls-5" d="M60.64 37.14a14.24 14.24 0 0 0-2.81.3 5.54 5.54 0 0 0-4.42 4 8.13 8.13 0 0 0-.25 2.08h2.35a.8.8 0 0 0 .78-.64 1.7 1.7 0 0 1 1.45-1.54 41.4 41.4 0 0 1 5.78 0A1.7 1.7 0 0 1 65 42.87a.8.8 0 0 0 .78.64h2.35A5.82 5.82 0 0 0 65.18 38a10.06 10.06 0 0 0-4.54-.86z"/><path class="cls-9" d="M13.55 27.18h3.09v1.05h-3.09z"/><path class="cls-2" d="M59.38 27.46h2.04v1.02h-2.04zm0 1.61v.7a1 1 0 1 0 2 0v-.7zm6.78 0v.7a1 1 0 1 0 2 0v-.7zm0-1.61h2.04v1.02h-2.04z"/><rect class="cls-10" x="5.46" y="26.43" width="4.3" height=".87" rx=".36" ry=".36"/><rect class="cls-10" x="5.97" y="28.1" width="3.79" height=".87" rx=".36" ry=".36"/><path class="cls-2" d="M35.24 4.65h.94v38.86h-.94z"/></g></g></g></svg>