<svg xmlns="http://www.w3.org/2000/svg" viewBox="0 0 72.52 50.91"><defs><style>.cls-1{fill:#191d26}.cls-2{fill:#1b1c20}.cls-3{fill:#757575}.cls-4{fill:#a4a4a4}.cls-5{fill:#2f8956}.cls-6{fill:#3fb773}.cls-7{fill:#b5e5f1}.cls-8{fill:#353535}.cls-9{fill:#fd0}.cls-10{fill:#ea7200}.cls-11{fill:#fff}</style></defs><title>car-1</title><g id="Layer_2" data-name="Layer 2"><g id="grab-berbagi"><g id="car-1"><path class="cls-1" d="M50 16.81c-.89 0-1.61.53-1.61 1.19v8.59h3.23V18c-.05-.66-.78-1.19-1.62-1.19z"/><circle class="cls-2" cx="6.14" cy="44.76" r="6.15"/><circle class="cls-3" cx="6.14" cy="44.76" r="3.97"/><circle class="cls-4" cx="6.14" cy="44.76" r="2.79"/><circle class="cls-2" cx="6.14" cy="44.76" r=".85"/><path class="cls-1" d="M31 16.81c-.89 0-1.61.53-1.61 1.19v8.59h3.21V18c0-.66-.72-1.19-1.6-1.19z"/><path class="cls-5" d="M10.33 35C3 34.58.9 37.37.31 38.72a.5.5 0 0 0 .46.7h5.76a4.94 4.94 0 0 1 3.81 1.79L12.69 44a.5.5 0 0 0 .86-.15c1.57-4.71-3.22-8.85-3.22-8.85z"/><path class="cls-6" d="M19.08 26.67H18V4.24h.62v-.1h-1.89L7.42 21.36a7.83 7.83 0 0 0-.26 6.51l5 12.1a4.38 4.38 0 0 0 4 2.71h52.79a2.1 2.1 0 0 0 2.1-2.1V26.67z"/><path d="M71.05 26.59L63.36 2.22 52.8 0 14.81 4.04v.52h39.55v22.03h16.69z"/><path class="cls-7" d="M15.89 5.7L7.42 21.36A7.59 7.59 0 0 0 7 22.42h5.12a1 1 0 0 0 1-.74l3.8-14.76a1 1 0 0 0-1.03-1.22z"/><path class="cls-8" d="M6.57 25H18v-.78H6.6c-.02.22-.03.48-.03.78z"/><path class="cls-9" d="M71.08 30.69v4a1.43 1.43 0 0 0 1.43-1.43v-1.13a1.43 1.43 0 0 0-1.43-1.44z"/><path class="cls-2" d="M28.07 28.4h5.34v.92h-5.34zm20.25 0h5.34v.92h-5.34z"/><circle class="cls-2" cx="59.5" cy="44.76" r="6.15"/><circle class="cls-3" cx="59.5" cy="44.76" r="3.97"/><circle class="cls-4" cx="59.5" cy="44.76" r="2.79"/><circle class="cls-2" cx="59.5" cy="44.76" r=".85"/><path class="cls-5" d="M59.5 36.44a13.86 13.86 0 0 0-2.76.29 5.43 5.43 0 0 0-4.33 3.92 8 8 0 0 0-.24 2h2.31a.78.78 0 0 0 .76-.63 1.67 1.67 0 0 1 1.43-1.51 40.44 40.44 0 0 1 5.67 0 1.67 1.67 0 0 1 1.42 1.51.78.78 0 0 0 .76.63h2.31a5.71 5.71 0 0 0-2.89-5.37 9.87 9.87 0 0 0-4.44-.84z"/><path class="cls-10" d="M13.29 26.67h3.03v1.03h-3.03z"/><path class="cls-2" d="M58.26 26.94h2v1h-2zm0 1.59v.68a1 1 0 0 0 2 0v-.68zm6.65 0v.68a1 1 0 0 0 2 0v-.68zm0-1.59h2v1h-2z"/><rect class="cls-11" x="5.36" y="25.94" width="4.22" height=".86" rx=".35" ry=".35"/><rect class="cls-11" x="5.86" y="27.57" width="3.72" height=".86" rx=".35" ry=".35"/><path class="cls-2" d="M34.57 4.56h.92v38.13h-.92z"/></g></g></g></svg>