<svg xmlns="http://www.w3.org/2000/svg" viewBox="0 0 488.96 88.06"><defs><style>.cls-1{fill:#fff}</style></defs><title>cloud-2</title><g id="Layer_2" data-name="Layer 2"><g id="grab-berbagi"><path class="cls-1" d="M461.94 34a27 27 0 0 0-3 .17l-.9.1-.64-.64a27 27 0 0 0-26-7l-1.6.42-.62-1.53a27 27 0 0 0-51.94 7.3l-.14 1.41-1.4.25a27 27 0 0 0 4.75 53.62h81.47a27 27 0 0 0 0-54zM73.9 16.95a6.72 6.72 0 0 0-3.09.75v-.15a8.27 8.27 0 0 0-15.31-4.34 11.81 11.81 0 0 0-6.6-.41l-.45.1-.22-.4a11.86 11.86 0 0 0-13.72-5.66L34 7l-.23-.45a12.11 12.11 0 0 0-22.84 5.35v.55l-.37.13A11.89 11.89 0 0 0 0 24.52a12.08 12.08 0 0 0 12 12h39.48a11.07 11.07 0 0 0 10.27-6H73.9a6.79 6.79 0 0 0 0-13.58z" id="cloud-2"/></g></g></svg>