<svg xmlns="http://www.w3.org/2000/svg" viewBox="0 0 559.74 137.62"><defs><style>.cls-1{fill:#fff}</style></defs><title>cloud-1</title><g id="Layer_2" data-name="Layer 2"><g id="grab-berbagi"><path class="cls-1" d="M550.32 24a18.21 18.21 0 1 0-35-9.81 12.12 12.12 0 0 0-19 10v.19a15.42 15.42 0 0 0-17.3 9 10.66 10.66 0 0 0-1.11-.06 10.4 10.4 0 0 0-7.22 17.89l.33.29c.08.07.16.35.24.42a12.49 12.49 0 0 0 6.29 2.89h66.25A16.14 16.14 0 0 0 550.32 24zM43.38 113.54a12 12 0 0 0-5.52 1.34v-.27a14.78 14.78 0 0 0-29.55-.48A12 12 0 0 0 12 137.62h31.38a12 12 0 0 0 0-24.07zm6.5-25.1" id="cloud-1"/></g></g></svg>