<svg xmlns="http://www.w3.org/2000/svg" viewBox="0 0 1020 500.25"><defs><style>.cls-1,.cls-34{fill:none}.cls-2{isolation:isolate}.cls-3{fill:#c2eaf3}.cls-4{fill:#a7e1ee}.cls-5{fill:#ff4338}.cls-14,.cls-22,.cls-6{fill:#fff}.cls-15,.cls-7{fill:#00953a}.cls-16,.cls-8{fill:#076d2b}.cls-9{opacity:.5}.cls-10,.cls-13{fill:#51bc7c}.cls-11{fill:#fd0}.cls-12{fill:#3e3935}.cls-13,.cls-14,.cls-15,.cls-16{fill-rule:evenodd}.cls-17{fill:#97d7b0}.cls-18{fill:#fbd303}.cls-19{fill:#615c58}.cls-20{fill:#8431a6}.cls-21,.cls-22{opacity:.8}.cls-23{fill:#f33}.cls-24{fill:#736f6c}.cls-25{fill:#b5e5f1}.cls-26{fill:#007534}.cls-27{fill:#999592}.cls-28{fill:#bdf4f4}.cls-29{fill:#c43b3b}.cls-30{fill:#801a1a}.cls-31{fill:#004722}.cls-32{fill:#1e1e1e;opacity:.6;mix-blend-mode:multiply}.cls-33{fill:#6fd1e6}.cls-34{stroke:#bdf4f4;stroke-linecap:round;stroke-linejoin:round}.cls-35{fill:#464648}.cls-36{fill:#757575}.cls-37{fill:#a4a4a4}.cls-38{clip-path:url(#clip-path)}.cls-39{fill:#ea7200}.cls-40{fill:#cc5e05}.cls-41{fill:#2b2b2b}</style><clipPath id="clip-path"><path class="cls-1" d="M164.33 382.75c.36 4.89-2.5 4.67-2.5 4.67l-74.5-4.67c-4.67-.17-4.83-2.83-4.83-2.83l-2.83-20.17s-.67-1.67 2.42-1.67c0 0 28.39 1 40 2.17a42.35 42.35 0 0 1 13.21 3.67l20.67 10.5s8.03 3.83 8.36 8.33z"/></clipPath></defs><title>grab</title><g class="cls-2"><g id="Layer_2" data-name="Layer 2"><path class="cls-3" d="M0 0h1020v391H0z" id="sky"/><g id="buildings"><path class="cls-4" d="M293.56 308v-9h-4.26V188h-39.35v207h52.02-5.22v-87h-3.19z"/><path class="cls-4" d="M356.31 274v-62h-7.45v-29h-6.38v-29h-25.53v29h-4.25v29h-6.38v78H301v105h70.2V274h-14.89zm104.31-89.8l13.55-4.2h.2v213h-10.74l-3.01-208.8zM410.55 393V111.28l33.89-2.28h-3.04v284h-30.85z"/><path class="cls-4" d="M441.4 109h13.2l-1.5 1.57V393h-11.7V109zm48.92 282V175.22l14.7 6.78h41.01l-3.59-6.43V391h-52.12z"/><path class="cls-4" d="M537.12 286v2h24.47v9h17.01v94h-85.09V286h43.61z"/><path class="cls-4" d="M561.59 382V239h3.19v-82h1.06v-2h2.13v-11.4l11.92 4.4h21.44-4.65v-4.4V155h2.13v2h1.07v82h3.19v143m35.09-72v2h3.2v-4h17.01v83h-35.1v-87.91V310h14.89zm70.2 16v-2h30.85v2h3.19v65h-36.16v-65h2.12z"/><path class="cls-4" d="M749.84 319v29h4.26v-17h11.7v59h-11.7v-24h-4.26v25h-11.7v-72h11.7zm28.72 22v-12h13.83v62h-24.47v-50h10.64zm24.46-79v-32h3.2v-22.11l11.69-7.35V210h25.53v26h4.26v155h4.2-57.39V262h8.51zm-136.14 18v2h9.58v-2h3.18v-2h1.07v2h4.25v2h6.39v-2h2.12v7h4.26v104h-32.98V278.58 280h2.13z"/><path class="cls-4" d="M684.96 319h18.08v72h-18.08zm-291.42-32v6h-15.96v-6h-2.13v-3.09V394h20.21V283.91 287h-2.12zm10.63 45h28.72v61h-28.72zM0 393h56.37v-56.88V342H39.35v3h-5.32v-5H5.32v5H0v-4m113.81-9h28.72v61h-28.72zm104.23 10v3h-5.32v-5h-29.78v5h-5.32v-4h-14.89v22h-7.44v9h-3.19v-26h-8.51v47h8.51v-15h3.19v15h78.7v-56.88V342h-15.95zm376.52-67H602v-43h3.19v-7h14.89v-12h1.07v-8h1.06v-1.01V225h1.06v166h5.34H602v-1h-7.44V275z"/><path class="cls-4" d="M99.98 309h27.65v84H99.98zm-56.37-17h47.86v101H43.61zm877.47 40h27.65v61h-27.65zm-74.45 10v3h5.32v-5h28.72v5h6.38v-4h12.76v22h7.45v9h3.19v-26h8.51v47h-8.51v-15h-3.19v15h3.34-79.92v-56.88V342h15.95z"/><path class="cls-4" d="M934.91 309h29.78v84h-29.78z"/><path class="cls-4" d="M961.5 324h23.4v69h-23.4z"/><path class="cls-4" d="M974.26 292H1020v101h-45.74zm-777.49 11h42.54v90h-42.54z"/></g><g id="landmarks"><g id="Airport"><ellipse class="cls-5" cx="98.99" cy="176.67" rx="13.62" ry="14.85"/><path class="cls-6" d="M42 229.8L72.93 215h52.79L156 229.74l.67 7.83L138.33 272s-38.83-14.66-77.08 0L42 238.61zM86 189h25v2H86z"/><path class="cls-7" d="M71.87 197.5l15.18-6.5h24.21l14.99 6.47 2.63 4.45-3.16 13.08H72.93l-3.7-13.08 2.64-4.42z"/><path class="cls-8" d="M71.87 197.39l39.44-.39h14.94l-14.99-6H87.05l-15.18 6.39z"/><path class="cls-6" d="M88.2 197l-4.17 5h-14.8l2.64-5H88.2zm21.72 0l4.17 5h14.79l-2.63-5h-16.33z"/><path class="cls-7" d="M84.03 202h29.92l-4.03-5H88.06l-4.03 5z"/><path class="cls-6" d="M84.03 202l4.17 13h23.06l2.69-13H84.03z"/><g class="cls-9"><path class="cls-10" d="M54.61 234.39l10.92-2.75 2.69 8.62-10.35 3.3-3.26-9.17zm5.54 13.02l9.08-2.2 3.95 12.93-7.56 2.01-5.47-12.74zm9.08-16.6l17.82-1.83.51 8.62-16.06 1.92-2.27-8.71zm3.95 13.76l15.02-1.38.87 12.38-12.52 1.74-3.37-12.74zM90.41 229h17.49l-.59 9H90.75l-.34-9zm.93 14.86l15.3-.21-.76 12.35H92.43l-1.09-12.14zm52.53-9.47l-10.93-2.75-2.69 8.62 10.36 3.3 3.26-9.17zm-5.55 13.02l-9.07-2.2-3.95 12.93 7.56 2.01 5.46-12.74zm-9.07-16.6l-17.82-1.83-.51 8.62 16.06 1.92 2.27-8.71zm-3.95 13.76l-15.02-1.38-.87 12.38 12.52 1.74 3.37-12.74z"/></g><ellipse class="cls-8" cx="99.91" cy="271.8" rx="38.41" ry="7.88"/><path class="cls-6" d="M83 272h32v119H83z"/><path class="cls-11" d="M97 272h5v119h-5z"/><ellipse class="cls-6" cx="104.45" cy="171.14" rx="3.73" ry="4.07"/></g><g id="Christmas_Tree" data-name="Christmas Tree"><path class="cls-5" d="M383.91 369l-16.33-29h6.68l-29.87-51.72L314.53 340h9.43l-16.33 29h11.55l-11.55 19h72.47l-11.55-19h15.36z"/><path class="cls-6" d="M323.7 339.72l9.66 4.44 13.57-6.05 8.15 6.05 12.76-4.35 7.31 13.19h-8.77l-10.36-2.76-7.92 2.63-8.79-3.21-7.33 3.18-6.42-2.51-9.17 2.5 7.31-13.11zM344.39 288l-14.63 25.34 10.32-6.97 4.36 6.42 4.78-6.89 9.16 6.32M319.18 368l10.04 3.74 13.57-6.05 8.15 6.05 17.48-4.26 7.3 12.52h-13.48l-10.36-2.47-7.92 2.78-8.79-3.14-7.33 3.22-6.42-2.49-9.11 1.99 6.87-11.89z"/><path class="cls-7" d="M343.67 336.58l2.58.08.67 1.45a5.47 5.47 0 0 1-.15 4.9l-.14.27a2.09 2.09 0 0 1-3.74-.11l-.13-.28a5.48 5.48 0 0 1 .15-4.9z"/><path class="cls-12" d="M344.88 339.2a.64.64 0 0 1-.63-.67l.06-1.94a.65.65 0 1 1 1.29 0l-.06 1.94a.64.64 0 0 1-.67.63m.13-4.48a.65.65 0 0 1-.63-.67l.05-1.76a.65.65 0 1 1 1.29 0l-.05 1.76a.65.65 0 0 1-.67.63"/><path class="cls-12" d="M346.26 336.66l-2.58-.08.06-1.94a.65.65 0 0 1 .67-.63h1.29a.65.65 0 0 1 .63.67z"/><path class="cls-11" d="M360.47 336.63l-2.47.75-.27 1.58a5.48 5.48 0 0 0 1.43 4.68l.21.22a2.09 2.09 0 0 0 3.58-1.1l.05-.3a5.48 5.48 0 0 0-1.43-4.68z"/><path class="cls-12" d="M360 339.48a.64.64 0 0 0 .43-.81l-.57-1.85a.65.65 0 1 0-1.24.38l.57 1.86a.64.64 0 0 0 .81.43m-1.34-4.34a.65.65 0 0 0 .43-.81l-.51-1.68a.65.65 0 0 0-1.24.38l.51 1.69a.65.65 0 0 0 .81.43"/><path class="cls-12" d="M358 337.38l2.47-.75-.56-1.85a.65.65 0 0 0-.81-.43l-1.23.38a.65.65 0 0 0-.43.81z"/><path class="cls-7" d="M329.46 336.27l2.47.75.27 1.58a5.48 5.48 0 0 1-1.43 4.69l-.21.22a2.09 2.09 0 0 1-3.58-1.09v-.3a5.48 5.48 0 0 1 1.43-4.68z"/><path class="cls-12" d="M329.94 339.12a.64.64 0 0 1-.43-.81l.57-1.85a.65.65 0 0 1 1.24.38l-.57 1.86a.65.65 0 0 1-.81.43m1.32-4.34a.65.65 0 0 1-.43-.81l.51-1.68a.65.65 0 1 1 1.24.38l-.51 1.69a.65.65 0 0 1-.81.43"/><path class="cls-12" d="M331.94 337l-2.47-.75.56-1.85a.65.65 0 0 1 .81-.43l1.23.38a.65.65 0 0 1 .43.81z"/><path class="cls-11" d="M342.38 366.34l2.59.08.67 1.45a5.47 5.47 0 0 1-.15 4.9l-.14.27a2.09 2.09 0 0 1-3.74-.11l-.13-.28a5.48 5.48 0 0 1 .15-4.9z"/><path class="cls-12" d="M343.59 369a.65.65 0 0 1-.63-.67l.06-1.94a.65.65 0 1 1 1.29 0l-.06 1.94a.64.64 0 0 1-.67.63m.15-4.52a.65.65 0 0 1-.63-.67l.05-1.76a.65.65 0 1 1 1.29 0l-.05 1.76a.65.65 0 0 1-.67.63"/><path class="cls-12" d="M345 366.41l-2.59-.08.06-1.94a.65.65 0 0 1 .67-.63h1.29a.65.65 0 0 1 .63.67z"/><path class="cls-7" d="M359.17 366.38l-2.47.76-.27 1.58a5.48 5.48 0 0 0 1.43 4.69l.21.22a2.09 2.09 0 0 0 3.58-1.09v-.3a5.47 5.47 0 0 0-1.43-4.68z"/><path class="cls-12" d="M358.69 369.24a.64.64 0 0 0 .43-.81l-.57-1.85a.65.65 0 0 0-1.24.38l.57 1.86a.65.65 0 0 0 .81.43m-1.32-4.34a.65.65 0 0 0 .43-.81l-.52-1.68a.65.65 0 1 0-1.24.38l.52 1.68a.64.64 0 0 0 .8.43"/><path class="cls-12" d="M356.7 367.14l2.47-.76-.57-1.85a.65.65 0 0 0-.81-.43l-1.23.38a.65.65 0 0 0-.43.81z"/><path class="cls-7" d="M328.17 366l2.47.75.27 1.58a5.48 5.48 0 0 1-1.43 4.69l-.21.22a2.09 2.09 0 0 1-3.58-1.09l-.05-.3a5.48 5.48 0 0 1 1.43-4.68z"/><path class="cls-12" d="M328.65 368.88a.64.64 0 0 1-.43-.81l.57-1.85a.65.65 0 1 1 1.24.38l-.57 1.86a.65.65 0 0 1-.81.43m1.35-4.34a.65.65 0 0 1-.43-.81l.51-1.68a.65.65 0 1 1 1.24.38l-.51 1.68a.65.65 0 0 1-.81.43"/><path class="cls-12" d="M330.64 366.78l-2.47-.75.56-1.85a.65.65 0 0 1 .81-.43l1.23.38a.65.65 0 0 1 .43.81z"/></g><g id="Merlion"><path class="cls-13" d="M615.43 310.82l-2.4-5.91c2.2-9.17 4.61-18.27 8.48-26.93 8.09-18.13 19.22-33.91 34.67-46.6a141.13 141.13 0 0 1 16.61-12 12.09 12.09 0 0 1 2.92-1.37c-30 32.13-46.09 69.87-47.26 113.83a42 42 0 0 1-7.14-10.15 10.78 10.78 0 0 1-.64-6.15c4.43-21.06 10.43-41.58 21.2-60.4a108.51 108.51 0 0 1 15.27-20.52c-16.77 18.76-31.86 42.55-38.63 71-.32 1.35-.7 2.69-1 4-.31 1.17-.76 1.93-2.08 1.2z"/><path class="cls-14" d="M615.43 310.82c2.15-7.42 3.89-15 6.63-22.22A155 155 0 0 1 651 240.39c3.27-3.71 6.7-7.2 10.51-10.89.4 1.62-.48 2.11-1 2.67C650.33 242.65 643 255 637 268.14c-7.29 16-11.83 32.83-15.22 50-.23 1.16-.31 2.36-.46 3.54-2.55-3.3-4.1-7.14-5.89-10.86z"/><path class="cls-6" d="M755.6 280.09c-3.59-3.85-9.93-11.25-11.73-17.19a3.3 3.3 0 0 1 3.32-4.24c1.53.07 3-.1 3.07-1 .13-1.23-2.65-5.8-4.56-9.44a3.26 3.26 0 0 1 1.71-4.5 1.47 1.47 0 0 0 .89-.88c.5-1.67-7.66-12.33-6.83-15.82s5.83 3.66 7-.67c1-3.79 2.41-35-14.76-44.28a17.43 17.43 0 0 0-1.77-9.58c-2.29-4.24-18.8-.66-22.17-.68h-.37c-5.1-.92-12.4-.35-13.09 2 0 0-16.77-.95-25.21 24.2 0 0-15.71 7.74-14.72 20 .71 8.77 6.5 18.92 15.92 20.74l.41.27a3.3 3.3 0 0 1 1 4.56 24.62 24.62 0 0 0-2.42 4.75 3.29 3.29 0 0 1-4.5 1.86c-3.27-1.52-7.62-3-9.07-1.11 0 0-3.34 2.64 3.4 9.44l.19.17c1.43 1.25 20.05 18.08 14.29 46.76a3.26 3.26 0 0 1-.13.48c-1.3 3.62-16.62 49.18 31.44 53.74 1.06.1 65.24 1 36.26-78.95 0 0 3 8 7.51 6.5a20.23 20.23 0 0 0 4.31-2.07 3.29 3.29 0 0 0 .61-5.06zm-48.51 46.15a13.12 13.12 0 1 1 13.12-13.12 13.12 13.12 0 0 1-13.13 13.12z"/><path class="cls-8" d="M720.88 175.95c1.45-2.22 4.08-2.91 5.88-1.55s2.09 4.27.65 6.49"/><ellipse class="cls-7" cx="686.69" cy="199.67" rx="4.74" ry="7.15" transform="rotate(-2.1 686.503 199.517)"/><path id="_Path_" data-name="&lt;Path&gt;" class="cls-5" d="M672.11 254.72s9 0 10 5.66 7.32 29.62 4.32 33.62l-3 4s-4.33-35.95-11.32-43.28z"/><path id="_Path_2" data-name="&lt;Path&gt;" class="cls-8" d="M690.42 261.56s7.77 1.67 7.58 6.75.81 27-2.52 29.86l-3.33 2.89s2.94-31.86-1.73-39.5z"/><path id="_Path_3" data-name="&lt;Path&gt;" class="cls-10" d="M712.69 273.57s4.62 3.62 2.64 7.22-9.33 19.68-12.64 20.73l-3.31 1s13.62-22 13.31-28.95z"/><path id="_Path_4" data-name="&lt;Path&gt;" class="cls-7" d="M702.45 302.06s18.33-13.41 23.12 1.26c0 0-1.57-22.95-23.12-1.26z"/><path id="_Path_5" data-name="&lt;Path&gt;" class="cls-5" d="M713.27 301.39s15.06 4.88 8.73 13.61c0 0 12.34-10.28-8.73-13.61z"/><path id="_Path_6" data-name="&lt;Path&gt;" class="cls-8" d="M739 271.85c4 4.22 10.47 10.91 14.43 13.69a.88.88 0 0 1-.3 1.58 16.62 16.62 0 0 0-3.77 1.41c-2.12 1.14-8.5-9-11.8-15.67a.88.88 0 0 1 1.44-1.01z"/><path id="_Path_7" data-name="&lt;Path&gt;" class="cls-10" d="M735.93 313.72s4.16 10.19 11 0c0 0-4.56 4.12-11 0z"/><path id="_Path_8" data-name="&lt;Path&gt;" class="cls-10" d="M730.43 324.54s4.16 10.19 11 0c0 0-4.56 4.12-11 0z"/><path id="_Path_9" data-name="&lt;Path&gt;" class="cls-10" d="M713.8 331.84s4.16 10.19 11 0c0 0-4.56 4.16-11 0z"/><path id="_Path_10" data-name="&lt;Path&gt;" class="cls-10" d="M725.59 296.33s4.16 10.19 11 0c.01 0-4.59 4.11-11 0z"/><path id="_Path_11" data-name="&lt;Path&gt;" class="cls-10" d="M725.59 282s4.16 10.19 11 0c.01 0-4.59 4.13-11 0z"/><path id="_Path_12" data-name="&lt;Path&gt;" class="cls-10" d="M682.18 339.11s5.11 12.53 13.53 0c0 0-5.61 5.06-13.53 0z"/><path id="_Path_13" data-name="&lt;Path&gt;" class="cls-10" d="M729.63 334.21s5.11 12.53 13.53 0c0 0-5.61 5.06-13.53 0z"/><path id="_Path_14" data-name="&lt;Path&gt;" class="cls-10" d="M702.37 344.83s5.2 12.75 13.76 0c0 0-5.7 5.17-13.76 0z"/><path id="_Path_15" data-name="&lt;Path&gt;" class="cls-10" d="M675.71 326.81s4.16 10.19 11 0c0 0-4.56 4.11-11 0z"/><path id="_Path_16" data-name="&lt;Path&gt;" class="cls-10" d="M696.71 194.24s.52-9.57-11.56-8v2.07a12.93 12.93 0 0 1 11.56 5.93z"/><circle id="_Path_17" data-name="&lt;Path&gt;" class="cls-6" cx="688.81" cy="194.64" r="2.12"/><path id="_Path_18" data-name="&lt;Path&gt;" class="cls-8" d="M667 213.11a88.38 88.38 0 0 0 11.51 1.63c.45 0 .63.44.29.71a9.77 9.77 0 0 0-1.6 1.55c-.8 1-7.06-1.35-10.68-3.12-.52-.24-.11-.88.48-.77z"/><path id="_Path_19" data-name="&lt;Path&gt;" class="cls-8" d="M665.92 218.29a88.16 88.16 0 0 0 10.67 4.61c.43.13.49.59.09.76a9.77 9.77 0 0 0-1.94 1.08c-1 .77-6.45-3.16-9.48-5.82-.42-.37.13-.92.66-.63z"/><path id="_Path_20" data-name="&lt;Path&gt;" class="cls-5" d="M709.07 322a11 11 0 0 1-1.16-21.93c-.42 0-.84-.06-1.27-.06a13.43 13.43 0 1 0 13.43 13.43c0-.43 0-.85-.06-1.27a11 11 0 0 1-10.94 9.83z"/><path class="cls-15" d="M697 251.18c-2.1-.77-4.23-1-6.07-2.33-3.51-2.53-3.83-9.62-.79-15.21 2.38-4.37 5-8.32 7.32-12.71 3-5.59 5.78-11.8 5.91-19.68.07-4.64 1-9.71-.38-14.12 4.94-.13 9 2.55 11.65 9.51 3.1 8 1.78 20-2.89 27-2.09 3.13-4.32 5.88-6.47 8.85-3.44 4.85-7 9.51-8.28 18.69z"/><path class="cls-16" d="M702.95 261.5c-2.92.67-8.14-3.76-9.75-8.32 1.87.19 3.65.38 5.44.54.93.09 1.44-.6 1.6-2.6a20.48 20.48 0 0 1 3.37-9.75c2.57-3.91 5.3-7.42 7.91-11.23 2.06-3 4-6.19 6.19-9.5-.94 2.77-1.71 5.65-2.79 8.07-1.78 4-3.77 7.64-5.66 11.45-1 2.11-2.11 4.2-3.1 6.4a32.64 32.64 0 0 0-3.21 14.94z"/><path id="_Path_21" data-name="&lt;Path&gt;" class="cls-5" d="M661.16 205.95s4.84 8.7 2.3 10.67-5.54 5.13-6.79 2.82-3.55-10.67 4.49-13.49z"/><path class="cls-15" d="M737.28 237.17a11.62 11.62 0 0 1 2.79 6.09c.22 1.61.28 3.14.44 4.71a15.89 15.89 0 0 0 2.65 8.4 9.89 9.89 0 0 1-2.63 1c-1.86.18-4-2-4.6-4.7-.32-1.38-.18-.77-.44-2.12-.14-.7.3-.82.13-1.53z"/><path class="cls-13" d="M749.34 258.54c-.9 1.26-4.43 1.33-6.61.11L745 257c.39-.29.35-.73-.27-1.55a10.58 10.58 0 0 1-2-4.92c-.34-2.39-.49-4.68-.78-7-.23-1.86-.55-3.77-.86-5.79.58 1.39 1.27 2.77 1.68 4.08.67 2.15 1.15 4.24 1.72 6.37.32 1.17.62 2.35 1 3.53a16.84 16.84 0 0 0 3.85 6.82z"/><path class="cls-5" d="M715 190.17s18.71 1.73 14.94 52.61l-1.42 11.44s-10.51-.22-11.21-11a21.42 21.42 0 0 1 2.4-10.42s5.07-8.63 4.67-21.68c0-.03 1.16-12.91-9.38-20.95z"/><path class="cls-16" d="M740.72 219.62a13.6 13.6 0 0 1-3.83.42c-2.54-.38-4.63-4-4.55-7.81.07-2.95.36-5.74.41-8.7a24.72 24.72 0 0 0-2.23-12c-1.22-2.47-2.09-5.41-4-7.34 2.57-1.41 5.42-1.09 8.73 1.85 3.82 3.39 6.38 10.08 5.82 15.05-.25 2.22-.68 4.28-1 6.43-.57 3.48-1.18 6.93.65 12.1z"/><path class="cls-13" d="M746.71 223.41c-1.36 1.15-5.32.23-7.4-1.74l3-1.19c.52-.21.6-.71.14-1.8a12.14 12.14 0 0 1-.87-6.06c.29-2.76.78-5.36 1.12-8.08.27-2.14.45-4.36.68-6.69.25 1.72.63 3.45.72 5 .14 2.58.09 5.05.13 7.58 0 1.4 0 2.79.1 4.22a19.36 19.36 0 0 0 2.38 8.76z"/><ellipse class="cls-6" cx="685.32" cy="202.87" rx="3.24" ry="4.88" transform="rotate(-2.1 685.079 202.766)"/><path class="cls-7" d="M738.66 358.34a1.39 1.39 0 0 1-1.42 1.36l-52.4-1.13a1.39 1.39 0 0 1-1.36-1.42v-1.17a1.39 1.39 0 0 1 1.42-1.36l52.4 1.13a1.39 1.39 0 0 1 1.36 1.42z"/><rect class="cls-8" x="679" y="357" width="63" height="29" rx="3.33" ry="3.33"/><path class="cls-10" d="M753.28 383.51a3.12 3.12 0 0 0-1.08-2 23.89 23.89 0 0 0-13.08-4.31c-4.94 0-6.29 2.28-8.84 3.79l-.42.24-.31.15-.39.18a10.45 10.45 0 0 1-4.17.75c-7.39 0-7.41-5.06-14.8-5.06h-.3c-7.39 0-7.41 5.06-14.81 5.06a10.44 10.44 0 0 1-4.17-.75l-.39-.18-.3-.15-.43-.24c-2.55-1.52-3.9-3.79-8.84-3.79a23.87 23.87 0 0 0-13.08 4.31 3.12 3.12 0 0 0-1.09 2v.93c0 .7.51 1.56 1.21 1.56h84.16c.7 0 1.24-.86 1.21-1.56z"/></g><g id="Esplanade"><path class="cls-7" d="M408 350h230v39H408z"/><path class="cls-6" d="M641.89 341.73s10.93 5.19-4.72 8.16-36.28 7.42-123.76 14.34c0 0-136.56 6.92-108.42-11.25s236.9-11.25 236.9-11.25z"/><path class="cls-17" d="M641.91 345.44s-5.19-80.36-124.62-72.44c0 0-92-1.24-112.25 84.56-.04 0 101.38 11.87 236.87-12.12z"/><path class="cls-10" d="M524 278h9.37l-9.37 4.52V278zm-10 10h8.73l-8.73 3.66V288z"/><path class="cls-5" d="M493 316h9.71l-9.71 4.59V316zm2.79 22.86l-9.79 3.49V339"/><path class="cls-10" d="M482 348h9.58l-9.58 4.24V348zm14 4h9.43l-9.43 3.7V352zm7-33h10.09L503 323.56V319zm-3 11h9.14l-9.14 4.19V330z"/><path class="cls-18" d="M514 299h9.48l-9.48 3.79V299z"/><path class="cls-5" d="M510 310h9.52l-9.52 3.42V310z"/><path class="cls-18" d="M516 332h8.71l-8.71 4.91V332z"/><path class="cls-10" d="M511 343h9.76l-9.76 4.54V343zm3 8h8.73l-8.73 3.96V351zm3-29h9.69l-9.69 4.28V322zm4-8v-4"/><path class="cls-18" d="M528 288h8.58l-8.58 3.66V288z"/><path class="cls-10" d="M537 278h9.47l-9.47 4.52V278z"/><path class="cls-7" d="M531 323h9.54l-9.54 4.27V323z"/><path class="cls-5" d="M531 314h9.54l-9.54 3.87V314z"/><path class="cls-7" d="M541 294h9.43l-9.43 3.85V294z"/><path class="cls-8" d="M548 281h9.85l-9.85 4.24V281z"/><path class="cls-10" d="M561 274h9.7l-9.7 4.56V274zm27 21h10.15L588 298.83V295z"/><path class="cls-18" d="M597 301h9.31l-9.31 4.51V301z"/><path class="cls-10" d="M557 287h9.75l-9.75 3.68V287zm-3 10h8.79l-8.79 3.56V297zm-10 20h9.89l-9.89 4.09V317z"/><path class="cls-7" d="M543 339h9.65l-9.65 3.35V339z"/><path class="cls-10" d="M552 343h9.8l-9.8 4.54V343z"/><path class="cls-5" d="M557 333h8.76l-8.76 4.41V333z"/><path class="cls-10" d="M557 322h8.76l-8.76 4.53V322z"/><path class="cls-5" d="M557 313h9.75l-9.75 3.39V313z"/><path class="cls-10" d="M567 292h9.14l-9.14 4.11V292zm33-1h10.26L600 295.13V291zm9 5h9.18l-9.18 4.07V296zm5 6h9.61l-9.61 4.75V302zm-9 9h9.22l-9.22 3.91V311z"/><path class="cls-18" d="M622 311h9.28l-9.28 3.91V311z"/><path class="cls-10" d="M627 319h9.72l-9.72 4.31V319z"/><path class="cls-18" d="M629 328h10.19L629 331.47V328z"/><path class="cls-5" d="M633 336h8.91l-8.91 4.13V336zm-17-13h9.35l-9.35 4.27V323z"/><path class="cls-10" d="M620 332h9.3l-9.3 4.91V332z"/><path class="cls-18" d="M620 341h9.3l-9.3 3.82V341z"/><path class="cls-10" d="M609 339h8.93l-8.93 3.35V339z"/><path class="cls-18" d="M595 314h8.84l-8.84 4.37V314z"/><path class="cls-10" d="M586 306h9.92l-9.92 4.7V306z"/><path class="cls-8" d="M574 302h10.05L574 306.75V302z"/><path class="cls-10" d="M570 314h8.37l-8.37 3.63V314zm12 1h8.98l-8.98 4.11V315z"/><path class="cls-5" d="M585 326h9.93l-9.93 3.99V326z"/><path class="cls-10" d="M592 333h8.87l-8.87 4.41V333z"/><path class="cls-7" d="M597 343h9.31l-9.31 4.79V343z"/><path class="cls-10" d="M579 333h9.01l-9.01 4.41V333z"/><path class="cls-18" d="M567 339h9.14l-9.14 3.85V339z"/><path class="cls-10" d="M563 348h9.93l-9.93 4.24V348zm16-5h9.01l-9.01 4.54V343z"/><path class="cls-8" d="M528 343h8.58l-8.58 4.79V343z"/><path class="cls-11" d="M473 339h8.69l-8.69 3.35V339z"/><path class="cls-10" d="M457 349h9.36l-9.36 3.98V349zm-34 2h9.98l-9.98 3.22V351zm-18-3h8.94l-8.94 4.24V348zm4-12h9.89l-9.89 3.63V336zm5-11h10.08L414 329v-4zm25-28h9.06l-9.06 3.56V297zm10-8h9.45l-9.45 4.4V289zm40-13h9.75l-9.75 3.8V276zm28-3h9.69l-9.69 4.08V273z"/><path class="cls-8" d="M503 283h10.34L503 286.97V283z"/><path class="cls-10" d="M491 286h10.47L491 289.69V286z"/><path class="cls-7" d="M491 297h10.47L491 300.56V297z"/><path class="cls-10" d="M494.98 306.06l-9.98 4.89V306"/><path class="cls-11" d="M478 288h9.63l-9.63 4.41V288z"/><path class="cls-10" d="M465 290h9.27l-9.27 4.38V290z"/><path class="cls-7" d="M453 296h9.4l-9.4 4.07V296z"/><path class="cls-8" d="M435 312h9.11l-9.11 3.65V312z"/><path class="cls-5" d="M420 336h9.02l-9.02 4.13V336z"/><path class="cls-10" d="M433 336h9.13l-9.13 4.13V336zm12-20h9.49l-9.49 4.59V316z"/><path class="cls-5" d="M454 308h9.89l-9.89 4.19V308z"/><path class="cls-10" d="M467 300h9.5l-9.5 4.03V300z"/><path class="cls-11" d="M471 310h9.7l-9.7 3.67V310z"/><path class="cls-18" d="M478 317h9.63l-9.63 4.09V317z"/><path class="cls-10" d="M464 319h9.78l-9.78 4.31V319z"/><path class="cls-7" d="M462 330h8.32l-8.32 4.69V330z"/><path class="cls-10" d="M457 339h8.87l-8.87 3.85V339z"/><path class="cls-18" d="M445 339h9.49l-9.49 3.35V339z"/><path class="cls-10" d="M449 328h9.45l-9.45 3.97V328z"/><path class="cls-5" d="M453 320h9.4l-9.4 3.81V320z"/><path class="cls-6" d="M480 369h20v7h-20zm0 10h20v7h-20zm45-10h20v7h-20zm-23 0h20v7h-20zm0 10h20v7h-20zm23 0h20v7h-20zm45-10h21v7h-21zm0 10h21v7h-21zm46-10h20v7h-20zm-22 0h19v7h-19zm22 10h20v7h-20zm-22 0h19v7h-19zm-46-10h20v7h-20zm0 10h20v7h-20zm46-21h19v8h-19zm22 0h20v8h-20zm-157 21h19v7h-19zm0-10h19v7h-19zm-23 0h20v7h-20zm0 10h20v7h-20zm-23 0h20v7h-20zm0-10h20v8h-20z"/><path class="cls-5" d="M596.38 372.11l18.83-18.35 3.3-.52-20.1 21.02.15 5.74H601v8h-13v-8h6v-5.88l-15.2-15.82 4.08-.43 13.5 14.24z"/><path class="cls-5" d="M627 374h-4v14h9v-15h-2v-3.24l8.11-20.1-1.09.25-7.66 16.84-9.73-13.69-2.79.43L627 369.92v4.2-.12zm-53.97-15.1L547 379.15V382h4v6h-15v-6h6.02l.16-3.44-18.11-15.19 5.36-.44 15.72 12.43 22.39-15.89 5.49-.57zm-75.48 16.85l14.66-11.36 6.32-.52L501 378.74V382h3v6h-14v-5h5v-3.93L476.58 366h5.85l15.12 9.75zm-25.69-10.22L459 378.27V382h2.42l-.07 6H449v-5h4.5l.06-4.07-15.57-13.81 4.88.17 12.86 10.32 10.95-10.08h5.18zm-35.35-.34L421 378.51V382h5.55l-.09 6H415v-4.98l5-.12v-4.57l-10.98-16.23 5.35 1.07 6.94 10.51 9.64-8.88 5.56.39z"/></g><path id="Ground" class="cls-19" d="M0 387.61h1020v7.87H0z"/><path class="cls-11" d="M236.66 295.88C242.19 269 256.78 258 256.78 258c-19.34-6.33-48.53-1.05-48.53-1.05s17.87 14.64 22.69 38.88z"/><path class="cls-7" d="M239.69 293.81a4.94 4.94 0 0 1-4.69 3.94h-3a4.94 4.94 0 0 1-4.69-3.94l-2.63-15.12a3.26 3.26 0 0 1 3.31-3.94h11a3.26 3.26 0 0 1 3.31 3.94z"/><path class="cls-5" d="M233.5 297.25a.5.5 0 0 1-.5-.5v-51a.5.5 0 0 1 1 0v51a.5.5 0 0 1-.5.5z"/><path class="cls-5" d="M233.5 303c-.28-1-.5-.6-.5-.88.5-54.49 14.36-56.62 15-56.68.28 0 .52.08.54.36a.46.46 0 0 1-.45.5c-.13 0-13.56 2.57-14 55.86-.09.27-.32.84-.59.84z"/><path class="cls-5" d="M234.17 298c-.28-1-.5-.61-.49-.88.35-21.05 6.73-34.09 12-41.17 5.76-7.7 11.37-10.45 11.61-10.56a.48.48 0 0 1 .66.2.47.47 0 0 1-.24.64c-.22.1-22.39 11.24-23 50.92-.05.27-.27.85-.54.85z"/><path class="cls-5" d="M233.5 312c-.27 0-.5-.59-.5-.87-.83-50.1 34-64.36 34.32-64.49s.55-.07.65.19a.45.45 0 0 1-.29.6c-.34.13-34.5 14.33-33.68 63.71 0 .28-.22-.14-.49.86z"/><path class="cls-5" d="M235.29 317c-.28 0-.5-.6-.5-.88.15-31.2 14-48.57 25.53-57.5a66 66 0 0 1 25.34-12.11.47.47 0 0 1 .58.36.48.48 0 0 1-.41.55 63.76 63.76 0 0 0-24.94 11.84c-11.37 8.79-25 26.09-25.1 56.86 0 .29-.23.88-.5.88zm-2.57-14c-.27 0-.5-.6-.5-.87-.49-53.28-13.92-55.68-14.05-55.7a.6.6 0 0 1-.44-.64.53.53 0 0 1 .54-.49c.59.06 14.46 2.36 15 56.84 0 .28-.22-.14-.5.86z"/><path class="cls-5" d="M232.06 298c-.27 0-.5-.59-.5-.87-.65-39.73-22.82-50.64-23-50.74a.61.61 0 0 1-.24-.76.52.52 0 0 1 .66-.29c.23.11 23 11.45 23.62 51.8 0 .28-.22-.14-.49.86z"/><path class="cls-5" d="M232.72 312c-.28-1-.5-.61-.49-.88.82-49.38-33.34-63.41-33.68-63.54a.61.61 0 0 1-.29-.74.53.53 0 0 1 .65-.33c.35.14 35.15 14.56 34.32 64.66-.01.26-.23.83-.51.83z"/><path class="cls-5" d="M230.94 317c-.28 0-.5-.6-.5-.87-.15-30.77-13.73-47.89-25.1-56.68a65 65 0 0 0-24.94-11.95.55.55 0 0 1-.41-.62.51.51 0 0 1 .58-.43 64.78 64.78 0 0 1 25.34 12c11.56 8.93 25.38 26.48 25.53 57.68 0 .28-.22.87-.5.87z"/><path class="cls-11" d="M195.66 364.88C201.19 338 215.78 327 215.78 327c-19.34-6.33-48.53-1.05-48.53-1.05s17.87 14.64 22.69 38.88z"/><path class="cls-5" d="M198.69 358.81a4.94 4.94 0 0 1-4.69 3.94h-3a4.94 4.94 0 0 1-4.69-3.94l-2.63-15.12a3.26 3.26 0 0 1 3.31-3.94h11a3.26 3.26 0 0 1 3.31 3.94z"/><path class="cls-7" d="M192.5 362.25a.5.5 0 0 1-.5-.5v-51a.5.5 0 0 1 1 0v51a.5.5 0 0 1-.5.5z"/><path class="cls-7" d="M192.5 368c-.28-1-.5-.6-.5-.88.5-54.49 14.36-56.62 15-56.68.28 0 .52.08.54.36a.46.46 0 0 1-.45.5c-.13 0-13.56 2.57-14 55.86-.09.27-.32.84-.59.84z"/><path class="cls-7" d="M193.17 363c-.28-1-.5-.61-.49-.88.35-21.05 6.73-34.09 12-41.17 5.76-7.7 11.37-10.45 11.61-10.56a.48.48 0 0 1 .66.2.47.47 0 0 1-.24.64c-.22.1-22.39 11.24-23 50.92-.05.27-.27.85-.54.85z"/><path class="cls-7" d="M192.5 377c-.27 0-.5-.59-.5-.87-.83-50.1 34-64.36 34.32-64.49a.46.46 0 0 1 .65.19.45.45 0 0 1-.29.6c-.34.13-34.5 14.33-33.68 63.71 0 .28-.22-.14-.49.86z"/><path class="cls-7" d="M194.29 381.25a.49.49 0 0 1-.5-.5c.15-31.2 14-48.38 25.53-57.31a64.9 64.9 0 0 1 25.34-12 .5.5 0 0 1 .17 1 63.88 63.88 0 0 0-24.94 11.85c-11.37 8.79-25 25.73-25.1 56.5a.5.5 0 0 1-.5.46zM191.72 368c-.27 0-.5-.6-.5-.87-.49-53.28-13.92-55.68-14.05-55.7a.6.6 0 0 1-.44-.64.54.54 0 0 1 .54-.49c.59.06 14.46 2.36 15 56.84 0 .28-.22-.14-.5.86z"/><path class="cls-7" d="M191.06 363c-.27 0-.5-.59-.5-.87-.65-39.73-22.82-50.64-23-50.74a.61.61 0 0 1-.24-.76.52.52 0 0 1 .66-.29c.23.11 23 11.45 23.62 51.8 0 .28-.22-.14-.49.86z"/><path class="cls-7" d="M191.72 377c-.28-1-.5-.61-.49-.88.82-49.41-33.34-63.41-33.68-63.55a.61.61 0 0 1-.29-.74.52.52 0 0 1 .65-.33c.35.14 35.15 14.55 34.32 64.66-.01.27-.23.84-.51.84z"/><path class="cls-7" d="M189.94 382c-.28 0-.5-.6-.5-.87-.15-30.79-13.75-47.92-25.14-56.71a64.87 64.87 0 0 0-24.9-11.91.55.55 0 0 1-.41-.63.51.51 0 0 1 .58-.43 64.77 64.77 0 0 1 25.34 12c11.56 8.92 25.38 26.48 25.53 57.68 0 .28-.22.87-.5.87z"/><path class="cls-12" d="M183 360.88a2.9 2.9 0 0 1 3-2.87h13a2.8 2.8 0 0 1 3 2.75v25a3.22 3.22 0 0 1-3 3.25h-13a3.05 3.05 0 0 1-3-3.06"/><rect class="cls-12" x="223.49" y="294.25" width="19" height="95" rx="3" ry="3"/><path class="cls-11" d="M269.66 352.88C275.19 326 289.78 315 289.78 315c-19.34-6.33-48.53-1.05-48.53-1.05s17.87 14.64 22.69 38.88z"/><path class="cls-5" d="M272.69 346.81a4.94 4.94 0 0 1-4.69 3.94h-3a4.94 4.94 0 0 1-4.69-3.94l-2.63-15.12a3.26 3.26 0 0 1 3.31-3.94h11a3.26 3.26 0 0 1 3.31 3.94z"/><path class="cls-7" d="M266.5 350.25a.5.5 0 0 1-.5-.5v-51a.5.5 0 0 1 1 0v51a.5.5 0 0 1-.5.5z"/><path class="cls-7" d="M266.5 356c-.28-1-.5-.6-.5-.88.5-54.49 14.36-56.62 15-56.68.27 0 .52.08.54.36a.46.46 0 0 1-.45.5c-.13 0-13.56 2.57-14 55.86-.09.27-.32.84-.59.84z"/><path class="cls-7" d="M267.17 351c-.28-1-.5-.61-.49-.88.35-21.05 6.73-34.09 12-41.17 5.76-7.7 11.37-10.45 11.61-10.56a.48.48 0 0 1 .66.2.47.47 0 0 1-.24.64c-.22.1-22.39 11.24-23 50.92-.05.27-.27.85-.54.85z"/><path class="cls-7" d="M266.5 365c-.27 0-.5-.59-.5-.87-.83-50.1 34-64.36 34.32-64.49a.46.46 0 0 1 .65.19.45.45 0 0 1-.29.6c-.34.13-34.5 14.33-33.68 63.71 0 .28-.22-.14-.49.86z"/><path class="cls-7" d="M268.29 370c-.28 0-.5-.6-.5-.88.15-31.2 14-48.57 25.53-57.5a66 66 0 0 1 25.34-12.11.46.46 0 0 1 .58.36.48.48 0 0 1-.41.56 63.75 63.75 0 0 0-24.94 11.83c-11.37 8.79-25 26.1-25.1 56.86 0 .29-.23.88-.5.88zm-2.57-14c-.27 0-.5-.6-.5-.87-.49-53.28-13.92-55.68-14.05-55.7a.6.6 0 0 1-.44-.64.54.54 0 0 1 .54-.49c.59.06 14.46 2.36 15 56.84 0 .28-.22-.14-.5.86z"/><path class="cls-7" d="M265.06 351c-.27 0-.5-.59-.5-.87-.65-39.73-22.82-50.64-23-50.74a.61.61 0 0 1-.24-.76.52.52 0 0 1 .66-.29c.23.11 23 11.45 23.62 51.8 0 .28-.22-.14-.49.86z"/><path class="cls-7" d="M265.72 365c-.28-1-.5-.61-.49-.88.82-49.41-33.34-63.41-33.68-63.55a.61.61 0 0 1-.29-.74.52.52 0 0 1 .65-.33c.35.14 35.15 14.55 34.32 64.66-.01.27-.23.84-.51.84z"/><path class="cls-7" d="M263.94 370c-.28 0-.5-.6-.5-.87-.15-30.79-13.75-47.92-25.14-56.71a64.87 64.87 0 0 0-24.9-11.91.55.55 0 0 1-.41-.63.51.51 0 0 1 .58-.43 64.77 64.77 0 0 1 25.34 12c11.56 8.92 25.38 26.48 25.53 57.68 0 .28-.22.87-.5.87z"/><rect class="cls-12" x="257" y="346" width="19" height="44" rx="3" ry="3"/></g><path class="cls-6" d="M227.72 201.13l2.09 1.68a.56.56 0 0 0 .51.1l2.57-.76a.56.56 0 0 1 .68.74l-1 2.5a.57.57 0 0 0 .06.53l1.52 2.2a.57.57 0 0 1-.5.89l-2.67-.14a.55.55 0 0 0-.47.22l-1.63 2.13a.57.57 0 0 1-1-.2l-.69-2.59a.59.59 0 0 0-.36-.38l-2.53-.89a.56.56 0 0 1-.12-1l2.24-1.46a.56.56 0 0 0 .25-.46l.07-2.67a.56.56 0 0 1 .91-.43zm0 17.97l2.09 1.68a.56.56 0 0 0 .51.1l2.57-.76a.56.56 0 0 1 .68.74l-1 2.5a.57.57 0 0 0 .06.53l1.52 2.2a.57.57 0 0 1-.5.89l-2.67-.14a.55.55 0 0 0-.47.22l-1.63 2.13a.57.57 0 0 1-1-.2l-.69-2.59a.58.58 0 0 0-.36-.38l-2.53-.89a.56.56 0 0 1-.12-1l2.24-1.46a.56.56 0 0 0 .25-.46l.07-2.67a.56.56 0 0 1 .91-.42zm-15.11 2.81l.32 2.91a.61.61 0 0 0 .32.48l2.58 1.4a.62.62 0 0 1 0 1.1l-2.67 1.2a.63.63 0 0 0-.36.46l-.53 2.88a.62.62 0 0 1-1.07.3l-2-2.17a.6.6 0 0 0-.54-.2l-2.91.39a.62.62 0 0 1-.62-.92l1.46-2.54a.64.64 0 0 0 0-.58l-1.24-2.62a.62.62 0 0 1 .69-.87l2.86.6a.61.61 0 0 0 .55-.16l2.12-2a.61.61 0 0 1 1 .38zm-14.23 2.83l-3 2.74a.84.84 0 0 0-.28.75l.54 4a.86.86 0 0 1-1.28.85l-3.52-2a.87.87 0 0 0-.8 0l-3.65 1.77a.86.86 0 0 1-1.21-1l.83-4a.84.84 0 0 0-.22-.76L183 224.2a.86.86 0 0 1 .53-1.45l4-.43a.89.89 0 0 0 .66-.45l1.93-3.58a.85.85 0 0 1 1.53.06l1.67 3.7a.85.85 0 0 0 .63.49l4 .73a.85.85 0 0 1 .42 1.47zm16.98-14.27l1.53 1.23a.41.41 0 0 0 .38.08l1.89-.56a.41.41 0 0 1 .5.55l-.7 1.83a.42.42 0 0 0 0 .39l1.11 1.61a.42.42 0 0 1-.36.65l-2-.1a.41.41 0 0 0-.35.16l-1.2 1.56a.42.42 0 0 1-.73-.14l-.51-1.9a.42.42 0 0 0-.26-.28l-1.85-.65a.41.41 0 0 1-.09-.74l1.65-1.07a.41.41 0 0 0 .18-.34l.05-2a.41.41 0 0 1 .67-.31zm-35.06-3.15l1.53 1.23a.41.41 0 0 0 .38.08l1.89-.56a.41.41 0 0 1 .5.55l-.7 1.83a.42.42 0 0 0 0 .39l1.12 1.62a.42.42 0 0 1-.37.65l-2-.1a.41.41 0 0 0-.35.16l-1.2 1.56a.42.42 0 0 1-.73-.14l-.51-1.9a.43.43 0 0 0-.26-.28l-1.86-.65a.41.41 0 0 1-.09-.74l1.65-1.07a.41.41 0 0 0 .18-.34l.05-2a.41.41 0 0 1 .67-.31zm-7.92 2.56l.37 3.42a.72.72 0 0 0 .37.56l3 1.64a.72.72 0 0 1-.05 1.3l-3.07 1.41a.73.73 0 0 0-.43.54l-.62 3.38a.73.73 0 0 1-1.26.36l-2.3-2.55a.71.71 0 0 0-.63-.23l-3.42.46a.73.73 0 0 1-.72-1.08l1.72-3a.75.75 0 0 0 0-.67l-1.49-3.11a.73.73 0 0 1 .81-1l3.34.69a.71.71 0 0 0 .65-.19l2.49-2.37a.72.72 0 0 1 1.22.44zm-10.76-12.41l2-.21a.41.41 0 0 0 .32-.21l.94-1.73a.41.41 0 0 1 .74 0l.8 1.79a.42.42 0 0 0 .3.24l1.93.35a.42.42 0 0 1 .2.72l-1.46 1.32a.41.41 0 0 0-.13.36l.26 2a.42.42 0 0 1-.62.41l-1.7-1a.43.43 0 0 0-.39 0l-1.78.85a.41.41 0 0 1-.58-.46l.41-1.92a.41.41 0 0 0-.11-.37l-1.35-1.42a.41.41 0 0 1 .25-.7zm10.61 1.48l1.53 1.23a.41.41 0 0 0 .38.08l1.89-.56a.41.41 0 0 1 .5.54l-.7 1.83a.42.42 0 0 0 0 .39l1.12 1.62a.42.42 0 0 1-.37.65l-2-.1a.41.41 0 0 0-.35.16l-1.19 1.56a.42.42 0 0 1-.73-.14l-.51-1.9a.42.42 0 0 0-.26-.28l-1.86-.65a.41.41 0 0 1-.09-.74l1.65-1.07a.41.41 0 0 0 .18-.34l.05-2a.41.41 0 0 1 .67-.31zm-1.75-10.27l1 .79a.26.26 0 0 0 .24 0l1.21-.36a.27.27 0 0 1 .32.35l-.45 1.17a.27.27 0 0 0 0 .25l.71 1a.27.27 0 0 1-.23.42l-1.25-.06a.26.26 0 0 0-.22.1l-.77 1a.26.26 0 0 1-.47-.09l-.33-1.22a.27.27 0 0 0-.17-.18l-1.19-.42a.27.27 0 0 1-.05-.47l1.05-.69a.26.26 0 0 0 .12-.22v-1.25a.26.26 0 0 1 .43-.2zm74.62 15.84l4.29 3.45a1.15 1.15 0 0 0 1.06.21l5.28-1.57a1.16 1.16 0 0 1 1.41 1.53l-2 5.13a1.17 1.17 0 0 0 .13 1.08l3.12 4.52a1.17 1.17 0 0 1-1 1.82l-5.49-.28a1.13 1.13 0 0 0-1 .45l-3.35 4.37a1.16 1.16 0 0 1-2-.41l-1.42-5.32a1.21 1.21 0 0 0-.74-.79l-5.19-1.83a1.16 1.16 0 0 1-.24-2.06l4.61-3a1.13 1.13 0 0 0 .52-.95l.15-5.49a1.15 1.15 0 0 1 1.88-.87zm-68.21-18.29l1 .79a.26.26 0 0 0 .24 0l1.21-.36a.27.27 0 0 1 .32.35l-.45 1.17a.27.27 0 0 0 0 .25l.71 1a.27.27 0 0 1-.23.42l-1.25-.06a.26.26 0 0 0-.22.1l-.76 1a.26.26 0 0 1-.47-.09l-.33-1.22a.28.28 0 0 0-.17-.18l-1.19-.42a.26.26 0 0 1-.05-.47l1.05-.69a.26.26 0 0 0 .12-.22v-1.26a.26.26 0 0 1 .43-.2zm6.11-3.77l.49.39a.13.13 0 0 0 .12 0l.6-.18a.13.13 0 0 1 .16.18l-.22.58a.13.13 0 0 0 0 .12l.36.52a.13.13 0 0 1-.12.21h-.63a.13.13 0 0 0-.11.05l-.38.5a.13.13 0 0 1-.23 0l-.16-.61a.14.14 0 0 0-.09-.09l-.59-.21a.13.13 0 0 1 0-.24l.53-.34a.13.13 0 0 0 .06-.11v-.63a.13.13 0 0 1 .21-.1zM702.09 121l.58 5.54a1.17 1.17 0 0 0 .6.91l4.89 2.68a1.17 1.17 0 0 1-.09 2.1l-5.07 2.21a1.19 1.19 0 0 0-.69.86l-1 5.47a1.18 1.18 0 0 1-2 .57l-3.71-4.15a1.15 1.15 0 0 0-1-.37l-5.53.71a1.18 1.18 0 0 1-1.17-1.76l2.8-4.81a1.21 1.21 0 0 0 0-1.09l-2.38-5a1.17 1.17 0 0 1 1.31-1.64l5.44 1.17a1.15 1.15 0 0 0 1-.3l4.06-3.81a1.16 1.16 0 0 1 2 .73zm19.09-15.34l8.52-.89a1.79 1.79 0 0 0 1.41-.92l4.12-7.52a1.8 1.8 0 0 1 3.23.14l3.46 7.82a1.82 1.82 0 0 0 1.32 1.05l8.41 1.57a1.82 1.82 0 0 1 .87 3.14l-6.38 5.71a1.78 1.78 0 0 0-.58 1.57l1.1 8.5a1.81 1.81 0 0 1-2.71 1.8l-7.4-4.31a1.87 1.87 0 0 0-1.68-.06l-7.74 3.66a1.8 1.8 0 0 1-2.53-2l1.8-8.37a1.78 1.78 0 0 0-.47-1.61l-5.86-6.23a1.79 1.79 0 0 1 1.12-3zm-46.97 30.96l.34 3.22a.68.68 0 0 0 .35.53l2.84 1.56a.68.68 0 0 1-.06 1.22l-3 1.31a.68.68 0 0 0-.4.5l-.6 3.18a.69.69 0 0 1-1.19.33l-2.1-2.47a.66.66 0 0 0-.59-.22l-3.21.41a.68.68 0 0 1-.68-1l1.63-2.8a.71.71 0 0 0 0-.64l-1.38-2.93a.68.68 0 0 1 .76-1l3.16.68a.68.68 0 0 0 .61-.18l2.35-2.22a.68.68 0 0 1 1.14.42zm35.61-32.45l.33 3.22a.68.68 0 0 0 .35.53l2.84 1.56a.68.68 0 0 1-.06 1.22l-3 1.31a.69.69 0 0 0-.4.5l-.59 3.18a.69.69 0 0 1-1.19.33l-2.1-2.42a.66.66 0 0 0-.59-.22l-3.21.41a.68.68 0 0 1-.68-1l1.63-2.8a.7.7 0 0 0 0-.64l-1.39-2.93a.68.68 0 0 1 .77-1l3.16.68a.67.67 0 0 0 .61-.18l2.35-2.21a.68.68 0 0 1 1.15.42zm15.52 26.89l.34 3.22a.68.68 0 0 0 .35.53l2.84 1.56a.68.68 0 0 1-.05 1.22l-3 1.31a.69.69 0 0 0-.4.5l-.6 3.18a.69.69 0 0 1-1.19.33l-2.16-2.41a.66.66 0 0 0-.59-.22l-3.21.41a.69.69 0 0 1-.68-1l1.63-2.8a.71.71 0 0 0 0-.64l-1.39-2.93a.68.68 0 0 1 .77-1l3.16.68a.66.66 0 0 0 .61-.18l2.36-2.21a.68.68 0 0 1 1.14.42zm-67.72-17.32l.23 2.18a.45.45 0 0 0 .24.36l1.92 1.05a.46.46 0 0 1 0 .83l-2 .89a.47.47 0 0 0-.27.34l-.4 2.15a.47.47 0 0 1-.8.22l-1.54-1.63a.46.46 0 0 0-.4-.15l-2.18.28a.46.46 0 0 1-.46-.69l1.1-1.9a.47.47 0 0 0 0-.43l-.94-2a.46.46 0 0 1 .52-.65l2.14.46a.45.45 0 0 0 .41-.12l1.6-1.5a.46.46 0 0 1 .77.29zm-7.62 31.4l.23 2.23a.46.46 0 0 0 .24.37l2 1.08a.47.47 0 0 1 0 .84l-2 .91a.47.47 0 0 0-.28.34l-.41 2.2a.47.47 0 0 1-.82.22l-1.49-1.67a.46.46 0 0 0-.41-.15l-2.22.29a.47.47 0 0 1-.47-.71l1.12-1.93a.49.49 0 0 0 0-.44l-1-2a.47.47 0 0 1 .51-.72l2.19.47a.45.45 0 0 0 .42-.12l1.63-1.53a.47.47 0 0 1 .79.29zM628.67 130l.18 1.77a.37.37 0 0 0 .19.29l1.56.86a.37.37 0 0 1 0 .67l-1.62.72a.38.38 0 0 0-.22.27l-.32 1.75a.38.38 0 0 1-.65.18l-1.19-1.33a.35.35 0 0 0-.32-.12l-1.77.23a.38.38 0 0 1-.37-.56l.9-1.54a.39.39 0 0 0 0-.35l-.76-1.61a.38.38 0 0 1 .42-.53l1.74.38a.37.37 0 0 0 .34-.1l1.3-1.22a.37.37 0 0 1 .63.23zm1.48 15.29l.19 1.77a.37.37 0 0 0 .19.29l1.56.86a.37.37 0 0 1 0 .67l-1.62.72a.38.38 0 0 0-.22.28l-.32 1.74a.38.38 0 0 1-.65.18l-1.18-1.32a.35.35 0 0 0-.33-.12l-1.77.23a.38.38 0 0 1-.37-.57l.89-1.54a.39.39 0 0 0 0-.35l-.76-1.61a.37.37 0 0 1 .42-.52l1.74.37a.37.37 0 0 0 .33-.1l1.3-1.22a.37.37 0 0 1 .63.23zm-8.56 8.98l.12 1.11a.23.23 0 0 0 .12.18l1 .54a.23.23 0 0 1 0 .42l-1 .45a.23.23 0 0 0-.14.17l-.2 1.09a.24.24 0 0 1-.41.12l-.74-.83a.22.22 0 0 0-.2-.07l-1.11.14a.24.24 0 0 1-.23-.35l.56-1a.24.24 0 0 0 0-.22l-.48-1a.24.24 0 0 1 .26-.33l1.09.24a.23.23 0 0 0 .21-.06l.81-.76a.23.23 0 0 1 .39.15zm-9.26.96l.12 1.11a.23.23 0 0 0 .12.18l1 .54a.24.24 0 0 1 0 .42l-1 .45a.24.24 0 0 0-.14.17l-.2 1.09a.24.24 0 0 1-.41.11l-.74-.83a.22.22 0 0 0-.2-.08l-1.11.14a.24.24 0 0 1-.23-.35l.56-1a.24.24 0 0 0 0-.22l-.48-1a.23.23 0 0 1 .26-.33l1.09.24a.23.23 0 0 0 .21-.06l.81-.76a.23.23 0 0 1 .39.15zm1.37 8.07l.12 1.11a.23.23 0 0 0 .12.18l1 .54a.23.23 0 0 1 0 .42l-1 .45a.24.24 0 0 0-.14.17l-.2 1.09a.24.24 0 0 1-.41.11l-.74-.83a.22.22 0 0 0-.2-.07l-1.11.14a.24.24 0 0 1-.23-.35l.56-1a.24.24 0 0 0 0-.22l-.48-1a.24.24 0 0 1 .26-.33l1.09.24a.23.23 0 0 0 .21-.06l.81-.76a.23.23 0 0 1 .39.15zm31.56-41.3l.34 3.22a.67.67 0 0 0 .35.53l2.84 1.56a.68.68 0 0 1-.05 1.22l-3 1.31a.69.69 0 0 0-.4.5l-.59 3.18a.69.69 0 0 1-1.19.33l-2.16-2.41a.67.67 0 0 0-.59-.22l-3.21.41a.68.68 0 0 1-.68-1l1.63-2.8a.71.71 0 0 0 0-.64l-1.39-2.93a.68.68 0 0 1 .77-1l3.16.68a.67.67 0 0 0 .61-.18l2.36-2.21a.68.68 0 0 1 1.14.42zm10.35 11.85l-.08 1.52a.31.31 0 0 0 .12.27l1.2.93a.32.32 0 0 1-.12.56l-1.47.38a.33.33 0 0 0-.23.2l-.51 1.43a.32.32 0 0 1-.57.06l-.82-1.28a.32.32 0 0 0-.26-.14h-1.52a.32.32 0 0 1-.24-.52l1-1.18a.33.33 0 0 0 .06-.29l-.43-1.46a.32.32 0 0 1 .43-.39l1.42.55a.32.32 0 0 0 .3 0l1.26-.85a.32.32 0 0 1 .5.28zm-17.9 4.05l-.08 1.52a.31.31 0 0 0 .12.27l1.2.93a.32.32 0 0 1-.12.57l-1.47.38a.33.33 0 0 0-.22.2l-.52 1.43a.32.32 0 0 1-.57.06l-.82-1.28a.31.31 0 0 0-.26-.15h-1.52a.32.32 0 0 1-.24-.52l1-1.18a.33.33 0 0 0 .06-.29l-.42-1.46a.32.32 0 0 1 .43-.38l1.42.55a.31.31 0 0 0 .3 0l1.26-.85a.32.32 0 0 1 .5.28zM751 130.71l1.6 2.07a.54.54 0 0 0 .46.22l2.62-.13a.55.55 0 0 1 .48.86l-1.47 2.16a.54.54 0 0 0-.06.51l.94 2.44a.56.56 0 0 1-.68.73l-2.51-.75a.53.53 0 0 0-.5.1l-2 1.65a.55.55 0 0 1-.9-.42l-.07-2.62a.57.57 0 0 0-.26-.45l-2.2-1.42a.55.55 0 0 1 .12-1l2.46-.87a.53.53 0 0 0 .34-.38l.68-2.53a.55.55 0 0 1 1-.19zm8.44 12.79l1.09 1.41a.37.37 0 0 0 .31.15l1.78-.09a.37.37 0 0 1 .32.58l-1 1.47a.39.39 0 0 0 0 .35l.64 1.66a.38.38 0 0 1-.46.5l-1.7-.5a.36.36 0 0 0-.34.07l-1.39 1.12a.38.38 0 0 1-.61-.28v-1.78a.4.4 0 0 0-.17-.31l-1.49-1a.37.37 0 0 1 .08-.67l1.68-.6a.37.37 0 0 0 .23-.26l.46-1.72a.37.37 0 0 1 .66-.13zm7.05-21.71l2 2.56a.68.68 0 0 0 .57.27l3.24-.17a.68.68 0 0 1 .59 1.07l-1.83 2.67a.69.69 0 0 0-.08.64l1.16 3a.69.69 0 0 1-.84.9l-3.1-.92a.67.67 0 0 0-.62.12l-2.52 2a.68.68 0 0 1-1.12-.51l-.08-3.24a.7.7 0 0 0-.31-.55l-2.72-1.76a.68.68 0 0 1 .15-1.21l3-1.08a.67.67 0 0 0 .43-.47l.84-3.12a.68.68 0 0 1 1.2-.24zm5.16 17.5l.73 1.33a.31.31 0 0 0 .25.17l1.51.16a.32.32 0 0 1 .2.54l-1 1.1a.33.33 0 0 0-.08.29l.31 1.49a.32.32 0 0 1-.46.36l-1.37-.66a.31.31 0 0 0-.3 0l-1.32.76a.32.32 0 0 1-.48-.32l.2-1.51a.33.33 0 0 0-.1-.28l-1.13-1a.32.32 0 0 1 .16-.55l1.5-.28a.31.31 0 0 0 .23-.18l.62-1.39a.32.32 0 0 1 .57 0zm-81.26 4.84l-.09 1.52a.32.32 0 0 0 .12.27l1.2.93a.32.32 0 0 1-.12.57l-1.47.38a.32.32 0 0 0-.22.2l-.52 1.43a.32.32 0 0 1-.58.06l-.82-1.28a.31.31 0 0 0-.26-.14h-1.52a.32.32 0 0 1-.24-.52l1-1.18a.33.33 0 0 0 .06-.29l-.42-1.46a.32.32 0 0 1 .43-.38l1.42.55a.31.31 0 0 0 .3 0l1.26-.85a.32.32 0 0 1 .5.28zm-18.93-18.59l-.08 1.52a.32.32 0 0 0 .12.27l1.2.93a.32.32 0 0 1-.12.56l-1.47.39a.32.32 0 0 0-.23.2l-.51 1.43a.32.32 0 0 1-.58.06l-.82-1.28a.31.31 0 0 0-.26-.15h-1.52a.32.32 0 0 1-.24-.53l1-1.17a.33.33 0 0 0 .06-.29l-.42-1.46a.32.32 0 0 1 .43-.38l1.42.55a.32.32 0 0 0 .3 0l1.26-.85a.32.32 0 0 1 .5.28zm17.86-14.98l-.08 1.52a.31.31 0 0 0 .12.27l1.2.93a.32.32 0 0 1-.12.56l-1.47.38a.33.33 0 0 0-.23.21l-.51 1.43a.32.32 0 0 1-.58.06l-.82-1.28a.32.32 0 0 0-.26-.15h-1.52a.32.32 0 0 1-.24-.53l1-1.18a.32.32 0 0 0 .06-.29l-.43-1.46a.32.32 0 0 1 .43-.39l1.42.55a.31.31 0 0 0 .3 0l1.26-.85a.32.32 0 0 1 .5.28zm-16.04-4.99l-.08 1.52a.31.31 0 0 0 .12.27l1.2.93a.32.32 0 0 1-.12.56l-1.47.39a.33.33 0 0 0-.23.2l-.51 1.43a.32.32 0 0 1-.58.06l-.82-1.28a.31.31 0 0 0-.26-.15h-1.52a.32.32 0 0 1-.24-.53l1-1.17a.32.32 0 0 0 .06-.29l-.42-1.46a.32.32 0 0 1 .43-.38l1.42.55a.31.31 0 0 0 .3 0l1.26-.85a.32.32 0 0 1 .5.28zm-54.19 32.94l-.07 1.3a.26.26 0 0 0 .1.23l1 .8a.27.27 0 0 1-.1.48l-1.26.33a.28.28 0 0 0-.19.17l-.44 1.23a.28.28 0 0 1-.49.06L617 142a.27.27 0 0 0-.22-.13h-1.31a.28.28 0 0 1-.21-.45l.83-1a.28.28 0 0 0 .05-.25l-.36-1.25a.27.27 0 0 1 .37-.33l1.21.47a.27.27 0 0 0 .26 0l1.08-.73a.27.27 0 0 1 .43.24zm.83 8.49l-.08 1.52a.31.31 0 0 0 .12.27l1.2.93a.32.32 0 0 1-.12.56l-1.47.39a.33.33 0 0 0-.23.2l-.51 1.43a.32.32 0 0 1-.58.06l-.82-1.28a.31.31 0 0 0-.25-.15h-1.52a.32.32 0 0 1-.24-.52l1-1.18a.32.32 0 0 0 .06-.29l-.42-1.46a.32.32 0 0 1 .43-.39l1.42.55a.31.31 0 0 0 .3 0l1.26-.85a.32.32 0 0 1 .5.28zm2.91 15.62l.1.91a.19.19 0 0 0 .1.15l.8.44a.19.19 0 0 1 0 .34l-.83.37a.2.2 0 0 0-.11.14l-.17.9a.2.2 0 0 1-.34.09l-.61-.68a.18.18 0 0 0-.17-.06l-.91.12a.19.19 0 0 1-.19-.29l.46-.79a.2.2 0 0 0 0-.18l-.39-.83a.19.19 0 0 1 .22-.27l.89.19a.18.18 0 0 0 .17-.05l.67-.62a.19.19 0 0 1 .32.12zm-4.99-1.94l.06.54a.11.11 0 0 0 .06.09l.47.26a.11.11 0 0 1 0 .2l-.49.22a.12.12 0 0 0-.07.08l-.1.53a.12.12 0 0 1-.2.05l-.36-.4a.1.1 0 0 0-.1 0l-.53.07a.11.11 0 0 1-.11-.17l.27-.47a.12.12 0 0 0 0-.1l-.23-.49a.11.11 0 0 1 .13-.16l.52.11a.11.11 0 0 0 .1 0l.39-.37a.11.11 0 0 1 .19.07zm9.79 6.89l.06.54a.1.1 0 0 0 .05.09l.47.26a.11.11 0 0 1 0 .2l-.49.22a.12.12 0 0 0-.07.09l-.1.53a.12.12 0 0 1-.2.05l-.36-.4a.11.11 0 0 0-.1 0l-.53.07a.11.11 0 0 1-.11-.17l.27-.47a.12.12 0 0 0 0-.1l-.23-.49a.11.11 0 0 1 .13-.16l.53.11a.11.11 0 0 0 .1 0l.39-.37a.11.11 0 0 1 .19.07zm2.78 2.29v.35a.07.07 0 0 0 0 .06l.3.17a.07.07 0 0 1 0 .13l-.31.14a.08.08 0 0 0 0 .05l-.06.34a.07.07 0 0 1-.13 0l-.23-.26a.07.07 0 0 0-.06 0h-.34a.07.07 0 0 1-.07-.11l.18-.3a.08.08 0 0 0 0-.07l-.15-.31a.07.07 0 0 1 .08-.1l.34.07a.07.07 0 0 0 .06 0l.25-.24a.07.07 0 0 1 .12 0zm5.46 1.57v.35a.08.08 0 0 0 0 .06l.3.17a.07.07 0 0 1 0 .13l-.31.14a.08.08 0 0 0 0 .05l-.06.34a.07.07 0 0 1-.13 0l-.23-.26a.07.07 0 0 0-.06 0h-.34a.07.07 0 0 1-.07-.11l.18-.3a.07.07 0 0 0 0-.07l-.15-.31a.07.07 0 0 1 .08-.1l.34.07a.08.08 0 0 0 .06 0l.25-.24a.07.07 0 0 1 .12 0zM623.55 170l.06.53a.11.11 0 0 0 .06.09l.47.26a.11.11 0 0 1 0 .2l-.49.22a.12.12 0 0 0-.07.08l-.1.53a.11.11 0 0 1-.2.05l-.36-.4a.11.11 0 0 0-.1 0l-.54.07a.11.11 0 0 1-.11-.17l.27-.47a.12.12 0 0 0 0-.1l-.23-.49a.11.11 0 0 1 .13-.16l.52.11a.11.11 0 0 0 .1 0l.39-.37a.11.11 0 0 1 .19.07zm-3.84-2.67l.06.54a.11.11 0 0 0 .06.09l.47.26a.11.11 0 0 1 0 .2l-.49.22a.12.12 0 0 0-.07.08l-.1.53a.12.12 0 0 1-.2.06l-.36-.4a.11.11 0 0 0-.1 0l-.53.07a.11.11 0 0 1-.11-.17l.27-.47a.12.12 0 0 0 0-.11l-.23-.49a.11.11 0 0 1 .13-.16l.53.11a.12.12 0 0 0 .1 0l.39-.37a.11.11 0 0 1 .19.07zm-7.91-21.76l-.08 1.52a.31.31 0 0 0 .12.27l1.2.93a.32.32 0 0 1-.12.56l-1.47.39a.32.32 0 0 0-.23.2l-.51 1.43a.32.32 0 0 1-.58.06l-.82-1.28a.31.31 0 0 0-.26-.14h-1.52a.32.32 0 0 1-.24-.52l1-1.17a.33.33 0 0 0 .06-.29l-.42-1.46a.32.32 0 0 1 .43-.38l1.41.55a.31.31 0 0 0 .3 0l1.26-.85a.32.32 0 0 1 .5.28zm13.03 36.9l.64 2a.44.44 0 0 0 .29.29l2 .63a.45.45 0 0 1 .13.79l-1.73 1.23a.46.46 0 0 0-.19.38v2.11a.45.45 0 0 1-.72.37l-1.7-1.27a.42.42 0 0 0-.41-.06l-2 .68a.45.45 0 0 1-.57-.57l.68-2a.47.47 0 0 0-.07-.41L620 185a.45.45 0 0 1 .37-.71h2.12a.43.43 0 0 0 .37-.19l1.23-1.73a.44.44 0 0 1 .79.12zm-12.23-2.1l.38 1.19a.25.25 0 0 0 .17.17l1.19.37a.26.26 0 0 1 .07.46l-1 .72a.28.28 0 0 0-.12.22v1.24a.27.27 0 0 1-.43.22l-1-.74a.24.24 0 0 0-.24 0l-1.18.4a.26.26 0 0 1-.33-.33l.4-1.18a.28.28 0 0 0 0-.24l-.75-1a.26.26 0 0 1 .22-.42h1.25a.26.26 0 0 0 .22-.11l.72-1a.26.26 0 0 1 .46.07zm25.4 11.14l.38 1.19a.25.25 0 0 0 .17.17l1.19.37a.26.26 0 0 1 .07.46l-1 .72a.28.28 0 0 0-.12.22v1.24a.27.27 0 0 1-.43.22l-1-.75a.24.24 0 0 0-.24 0l-1.18.4a.26.26 0 0 1-.33-.33l.4-1.18a.28.28 0 0 0 0-.24l-.75-1a.26.26 0 0 1 .22-.42h1.25a.26.26 0 0 0 .22-.11l.72-1a.26.26 0 0 1 .46.07zm7.42 3.92l.24.77a.17.17 0 0 0 .11.11l.77.24a.17.17 0 0 1 0 .3l-.65.46a.18.18 0 0 0-.07.14v.8a.17.17 0 0 1-.27.14l-.64-.48a.16.16 0 0 0-.15 0l-.76.26a.17.17 0 0 1-.22-.22l.26-.76a.18.18 0 0 0 0-.16l-.48-.64a.17.17 0 0 1 .14-.27h.8a.16.16 0 0 0 .14-.07l.47-.66a.17.17 0 0 1 .3 0zm13.14 1.03l.24.77a.17.17 0 0 0 .11.11l.77.24a.17.17 0 0 1 0 .3l-.65.46a.18.18 0 0 0-.07.14v.8a.17.17 0 0 1-.27.14l-.64-.48a.16.16 0 0 0-.15 0l-.76.26a.17.17 0 0 1-.14-.2l.26-.76a.18.18 0 0 0 0-.16l-.48-.64a.17.17 0 0 1 .14-.27h.81a.16.16 0 0 0 .14-.07l.47-.66a.17.17 0 0 1 .3 0zM629.9 199l.38 1.19a.25.25 0 0 0 .17.17l1.19.37a.26.26 0 0 1 .07.46l-1 .72a.28.28 0 0 0-.12.22v1.24a.27.27 0 0 1-.43.22l-1-.75a.24.24 0 0 0-.24 0l-1.18.4a.26.26 0 0 1-.33-.33l.4-1.18a.28.28 0 0 0 0-.24l-.75-1a.26.26 0 0 1 .22-.42h1.25a.26.26 0 0 0 .22-.11l.72-1a.26.26 0 0 1 .46.07zm-9.98-4.37l.38 1.19a.25.25 0 0 0 .17.17l1.19.37a.26.26 0 0 1 .07.46l-1 .72a.28.28 0 0 0-.12.22V199a.27.27 0 0 1-.43.22l-1-.74a.24.24 0 0 0-.24 0l-1.18.4a.26.26 0 0 1-.33-.33l.4-1.18a.28.28 0 0 0 0-.24l-.75-1a.26.26 0 0 1 .22-.42h1.25a.26.26 0 0 0 .22-.11l.72-1a.26.26 0 0 1 .46.07zM455 183.39a.45.45 0 0 1 .42-.68l2.12.2a.44.44 0 0 0 .39-.15l1.37-1.64a.45.45 0 0 1 .78.18l.47 2.08a.49.49 0 0 0 .27.32l2 .79a.45.45 0 0 1 .06.81l-1.88 1.08a.44.44 0 0 0-.22.36l-.14 2.13a.45.45 0 0 1-.75.31l-1.6-1.41a.45.45 0 0 0-.41-.1l-2.06.52a.45.45 0 0 1-.53-.61l.85-2a.45.45 0 0 0 0-.42l-1.14-1.77zm-17.23 9.88a.56.56 0 0 1-.24-1l2.07-1.73a.56.56 0 0 0 .21-.49l-.24-2.68a.57.57 0 0 1 .87-.54l2.28 1.44a.59.59 0 0 0 .53 0l2.48-1.06a.57.57 0 0 1 .78.67l-.67 2.62a.55.55 0 0 0 .12.51l1.77 2a.57.57 0 0 1-.39.95l-2.69.17a.58.58 0 0 0-.46.28l-1.38 2.31a.57.57 0 0 1-1-.08l-1-2.51a.57.57 0 0 0-.4-.34l-2.63-.61zm.04 24.57a.9.9 0 0 1-1.38-.85l.39-4.27a.9.9 0 0 0-.31-.78l-3.29-2.75a.9.9 0 0 1 .37-1.58l4.19-.94a1 1 0 0 0 .65-.55l1.59-4a.91.91 0 0 1 1.62-.12l2.19 3.7a.88.88 0 0 0 .71.44l4.28.28a.91.91 0 0 1 .62 1.51l-2.83 3.21a.92.92 0 0 0-.2.83l1 4.16a.9.9 0 0 1-1.23 1.05l-3.95-1.7a.9.9 0 0 0-.84.07l-3.64 2.28zm-32.29-7.15a1.2 1.2 0 0 1-.49-2.1l4.4-3.66a1.19 1.19 0 0 0 .44-1l-.51-5.71a1.21 1.21 0 0 1 1.84-1.22l4.85 3.07a1.26 1.26 0 0 0 1.12.1l5.27-2.26a1.21 1.21 0 0 1 1.65 1.42l-1.42 5.56a1.18 1.18 0 0 0 .26 1.09l3.77 4.31a1.22 1.22 0 0 1-.83 2l-5.71.35a1.24 1.24 0 0 0-1 .6l-2.93 4.91a1.21 1.21 0 0 1-2.16-.17l-2.07-5.27a1.19 1.19 0 0 0-.86-.73l-5.59-1.29zm46.17-10.5a.58.58 0 0 1-.24-1l2.13-1.77a.59.59 0 0 0 .22-.5l-.25-2.76a.58.58 0 0 1 .89-.55l2.35 1.48a.59.59 0 0 0 .54 0l2.56-1.09a.58.58 0 0 1 .8.68l-.69 2.72a.57.57 0 0 0 .13.52l1.82 2.09a.59.59 0 0 1-.41 1l-2.76.17a.59.59 0 0 0-.47.29l-1.42 2.38a.58.58 0 0 1-1-.08l-1-2.58a.57.57 0 0 0-.41-.35l-2.7-.62zM392 202.48a.58.58 0 0 1-.24-1l2.13-1.77a.57.57 0 0 0 .21-.5l-.25-2.76a.59.59 0 0 1 .89-.55l2.34 1.49a.62.62 0 0 0 .54 0l2.55-1.09a.59.59 0 0 1 .8.68l-.69 2.69a.57.57 0 0 0 .12.53l1.83 2.09a.59.59 0 0 1-.4 1l-2.76.17a.6.6 0 0 0-.47.29l-1.42 2.37a.59.59 0 0 1-1-.08l-1-2.58a.59.59 0 0 0-.42-.35l-2.71-.62zm-15.93-6.02a.58.58 0 0 1 .55-.89l2.76.25a.58.58 0 0 0 .5-.2l1.78-2.13a.58.58 0 0 1 1 .24l.6 2.71a.61.61 0 0 0 .35.42l2.58 1a.59.59 0 0 1 .08 1l-2.39 1.41a.57.57 0 0 0-.28.46l-.19 2.77a.59.59 0 0 1-1 .4l-2.07-1.83a.6.6 0 0 0-.54-.12l-2.68.67a.59.59 0 0 1-.68-.79l1.1-2.55a.58.58 0 0 0 0-.54l-1.47-2.36zm-6.22 12.44a.37.37 0 0 1-.16-.65l1.36-1.13a.37.37 0 0 0 .14-.32L371 205a.37.37 0 0 1 .57-.35l1.5.95a.38.38 0 0 0 .35 0l1.63-.7a.37.37 0 0 1 .51.44l-.44 1.72a.37.37 0 0 0 .08.34l1.17 1.33a.38.38 0 0 1-.26.63l-1.77.11a.4.4 0 0 0-.3.19l-.91 1.52a.38.38 0 0 1-.67-.05l-.65-1.65a.38.38 0 0 0-.27-.23l-1.73-.4zm96.84-23.24a.37.37 0 0 1-.15-.65l1.36-1.14a.35.35 0 0 0 .14-.32l-.16-1.77a.38.38 0 0 1 .57-.35l1.5 1a.39.39 0 0 0 .35 0l1.63-.7a.37.37 0 0 1 .51.44l-.44 1.72a.38.38 0 0 0 .08.34l1.17 1.34a.38.38 0 0 1-.26.62l-1.77.11a.38.38 0 0 0-.3.18L470 188a.37.37 0 0 1-.67-.05l-.65-1.65a.37.37 0 0 0-.27-.23l-1.73-.4zm-99.19 34.13a.18.18 0 0 1-.07-.33l.68-.56a.18.18 0 0 0 .07-.16l-.08-.88a.19.19 0 0 1 .28-.18l.75.47a.19.19 0 0 0 .17 0l.81-.35a.19.19 0 0 1 .26.22l-.22.86a.17.17 0 0 0 0 .17l.58.67a.19.19 0 0 1-.12.31l-.88.05a.19.19 0 0 0-.15.09l-.45.76a.19.19 0 0 1-.34 0l-.33-.82a.19.19 0 0 0-.13-.11l-.86-.2zm109.93-37.48a.19.19 0 0 1-.08-.33l.68-.56a.18.18 0 0 0 .07-.16l-.08-.88a.18.18 0 0 1 .28-.18l.75.47a.19.19 0 0 0 .17 0l.82-.35a.19.19 0 0 1 .26.22l-.22.86a.17.17 0 0 0 0 .17l.58.66a.19.19 0 0 1-.13.31l-.88.05a.2.2 0 0 0-.15.09l-.45.76a.19.19 0 0 1-.33 0l-.33-.82a.18.18 0 0 0-.13-.11l-.86-.2zm0 0" id="sparkles"/><g id="road"><g id="Road_and_Divider" data-name="Road and Divider"><path class="cls-6" d="M30 412.04h960v11.75H30z"/><path class="cls-8" d="M0 416h1020v11.75H0z"/><path class="cls-19" d="M0 427.25h1020v37.69H0z"/></g><path class="cls-5" d="M0 394.75h1020v17.99H0z"/><g id="foreground"><path class="cls-5" d="M0 470.13h1020v30.12H0z"/><path class="cls-12" d="M0 467.25h1020V479H0z"/><path class="cls-7" d="M0 464.25h1020V476H0z"/></g></g><g class="cls-21" id="cloud-4"><path class="cls-6" d="M110.9 51a27.07 27.07 0 0 0-3 .17l-.9.1-.64-.64a26.84 26.84 0 0 0-19.12-7.93 27.12 27.12 0 0 0-6.85.88l-1.6.42-.62-1.53a27 27 0 0 0-51.94 7.3l-.14 1.41-1.4.25A27 27 0 0 0 29.43 105h81.47a27 27 0 0 0 0-54zm0 0"/></g><path class="cls-22" d="M569 78.19a18.21 18.21 0 1 0-35-9.81 12.12 12.12 0 0 0-19 10v.19a15.42 15.42 0 0 0-17.3 9 10.66 10.66 0 0 0-1.11-.06 10.4 10.4 0 0 0-7.22 17.89l.33.29c.08.07.16.35.24.42a12.49 12.49 0 0 0 6.29 2.89h66.27a16.14 16.14 0 0 0 6.5-30.81z" id="cloud-3"/><path class="cls-6" d="M439 35.42a6.72 6.72 0 0 0-3.09.75v-.15a8.27 8.27 0 0 0-15.31-4.33 11.81 11.81 0 0 0-6.6-.41l-.45.1-.22-.4a11.86 11.86 0 0 0-13.73-5.66l-.49.14-.23-.45A12.11 12.11 0 0 0 376 30.37v.55l-.37.13A11.89 11.89 0 0 0 365.07 43a12.08 12.08 0 0 0 12 12h39.49a11.07 11.07 0 0 0 10.27-6H439a6.79 6.79 0 0 0 0-13.58z" id="cloud-2"/><path class="cls-22" d="M167.17 146.7a12 12 0 0 0-5.52 1.34v-.27a14.78 14.78 0 0 0-29.55-.48 12 12 0 0 0 3.72 23.48h31.34a12 12 0 1 0 0-24.07zm6.5-25.1" id="cloud-1"/><g id="car-2"><circle class="cls-23" cx="850.37" cy="362.72" r="3.71"/><rect class="cls-24" x="845" y="395" width="163" height="2" rx=".94" ry=".94"/><path class="cls-10" d="M844 379.62v-8.06s-.7-3.66 5.89-5.61l29.18-8.05a34.89 34.89 0 0 0 7.63-2.68l17.06-9.28s7.31-5 28.06-6.71c0 0 42.1-4.76 74.8 6.71l11.47 20.26a9.17 9.17 0 0 1 .85 6.1l-3.79 16s-1.46 7.65-12.81 6.65H846.5s-3.94-9-4.3-12.21c0 .05-1.2-3.49 1.8-3.12z"/><path class="cls-25" d="M1006.91 346.44l-2.94 1.79s-1.8 1.37 0 3.43l10.14 13.59s.95 1.85 2.47 1.4l1.78.07z"/><path class="cls-6" d="M950.87 374.46a5.05 5.05 0 0 0-3.59-1.5 4.94 4.94 0 0 0-2.51.73 14.66 14.66 0 0 0-3.71 3.71v1.54a24.43 24.43 0 0 1 3.76-4.08 4 4 0 0 1 6.52 3.19v.95a4.08 4.08 0 0 1-4.06 4.06 4 4 0 0 1-3.83-2.94l-.72.88a4.72 4.72 0 0 0 4.56 3.09 5.14 5.14 0 0 0 5.09-5.09v-1a5.05 5.05 0 0 0-1.5-3.59m-22.1-.41a3.65 3.65 0 0 1 1.85.46 8.46 8.46 0 0 1 .71-.77 4.43 4.43 0 0 0-2.56-.72 4.93 4.93 0 0 0-5.09 5.09v6h1v-6a3.88 3.88 0 0 1 4.06-4.06m9.8 10.08v-6a3.3 3.3 0 0 0-6.6 0v.92a3.34 3.34 0 0 0 3.3 3.3 2.63 2.63 0 0 0 1.57-.46v-1.09a2.57 2.57 0 0 1-1.57.51A2.25 2.25 0 0 1 933 379v-1a2.27 2.27 0 0 1 4.54 0v6zM911 377.45v.33a6.61 6.61 0 0 0 1.91 4.7 6.48 6.48 0 0 0 4.64 1.92 7.18 7.18 0 0 0 3.73-1 4.46 4.46 0 0 0 1.29-1.09v-5.51h-5.28v1h4.24v4.2a6.06 6.06 0 0 1-7.92-.29 5.59 5.59 0 0 1-1.59-4v-.33a5.44 5.44 0 0 1 1.77-3.91 6.78 6.78 0 0 1 7.51-1v-1.16a8.23 8.23 0 0 0-3.3-.53 6.88 6.88 0 0 0-7 6.55m17.82-1.67a2.29 2.29 0 0 1 1 .19 6.39 6.39 0 0 1 .45-.9 3 3 0 0 0-1.44-.32 3.23 3.23 0 0 0-3.3 3.3v6h1v-6a2.17 2.17 0 0 1 2.27-2.27m-7.51-1.21v-1.22a6.68 6.68 0 0 0-3.3-.72 5.43 5.43 0 0 0-3.69 1.49 4.62 4.62 0 0 0-1.54 3.41v.33a4.8 4.8 0 0 0 4.76 4.83 4.52 4.52 0 0 0 3.24-.92v-3.1h-3.49v1h2.52v1.55a5.61 5.61 0 0 1-2.26.4 3.68 3.68 0 0 1-2.64-1.1 3.8 3.8 0 0 1-1.09-2.7v-.33a4.06 4.06 0 0 1 4.2-3.79 4.75 4.75 0 0 1 3.3.91m24.34 1.94a2.4 2.4 0 0 1 1.67-.73 2.24 2.24 0 0 1 2.27 2.27V379a2.25 2.25 0 0 1-2.27 2.27 2.15 2.15 0 0 1-1.68-.95 3.73 3.73 0 0 1-.72-1.93l-.83 1a3.92 3.92 0 0 0 1.15 2.05 3.11 3.11 0 0 0 2.09.84 3.3 3.3 0 0 0 3.3-3.3V378a3.36 3.36 0 0 0-3.3-3.3 3.7 3.7 0 0 0-2.44 1.13c-.28.27-.92.92-1.32 1.39-.66.72-1.63 1.82-2.45 2.91v1.61c.91-1.17 1.44-1.83 2.29-2.82a31.48 31.48 0 0 1 2.26-2.45M930.19 379a5.14 5.14 0 0 0 5.09 5.09 3.71 3.71 0 0 0 1.57-.33v-1a4.28 4.28 0 0 1-1.57.33 4.11 4.11 0 0 1-4.06-4.06V378a4.11 4.11 0 0 1 4.06-4.06 4 4 0 0 1 4.06 4.06v6h1v-6.22a5.13 5.13 0 0 0-1.58-3.46 5.09 5.09 0 0 0-8.6 3.66zm11.94-4a8.26 8.26 0 0 1 1-1.09v-5.45h-1zm1.79-1.51v-5h1v4.32a6.41 6.41 0 0 0-1 .71"/><path class="cls-26" d="M965.84 395v-.24a19.06 19.06 0 1 1 38.13 0v.24z"/><path class="cls-11" d="M844 371.57a17.66 17.66 0 0 1 4.36-1l7.4-.55s2.39.09-.82 4.4A18 18 0 0 1 844 378.8z"/><path class="cls-6" d="M946.51 395h2.72c5.13-5 12.3-12 20.62-21h-2.74c-5.92 6-14.86 15-20.6 21zm17.08-24a12.36 12.36 0 0 1 0-24.71 12 12 0 0 1 9 3.53 12.43 12.43 0 0 1 3.28 8.67 12.94 12.94 0 0 1-2.16 7.51H976c.27 0 .52-1.05.74-1.63a17.15 17.15 0 0 0 1-5.91 14.36 14.36 0 0 0-3.82-10 13.92 13.92 0 0 0-10.35-4.17 14.36 14.36 0 0 0 0 28.72h55.28l.08-.36c.12-.56.17-1.64.19-1.64z"/><path class="cls-6" d="M948.07 358.45a15.71 15.71 0 0 1 4-10.45 15.49 15.49 0 0 1 8.38-4.76h-.68a13.35 13.35 0 0 0-13.39 13.59 11.92 11.92 0 0 0 3.26 8.49 15.44 15.44 0 0 1-1.57-6.87zM944.53 395l20.61-21h-2.74l-20.59 21h2.72zm74.08-27h-58.32c-.39 0-.76-.15-1.14-.17l-2.31-.22a8.23 8.23 0 0 0 5.77 2.4h56.44c-.05-1.01-.26-2.01-.44-2.01z"/><path class="cls-25" d="M968.88 345.48l-.64 14.37s-.64 3.48 3.84 2.65c0 0 10.71-1.65 19.4-6.87 0 0 4.49-3.2-1-6.68a113 113 0 0 0-18.48-6.86s-2.9-1.38-3.12 3.39zm-62.79 2.11l-10 7c-4.39 2.66-3.75 5.15-3.75 5.15.37 2.84 3.94 3.31 3.94 3.31h65.08c2.75 0 2.5-3.75 2.5-3.75.27-4.12 0-15.65 0-15.65-.06-3.22-3.89-3-3.89-3s-20.5.13-32.59 1.36c.04-.09-14.79 1.99-21.29 5.58z"/><path class="cls-6" d="M901 395v-17c0-5.2-1.49-5.74-2.23-6a2.14 2.14 0 0 0-.46-.11 15.65 15.65 0 0 1 .69 4.93V395zm-39.69 0h3.21L887 372.52v-.06h-.09l1.12-1.18c2.62-2.63 5.16-4.25 7.64-4.84-3.2-.83-6.72.77-10.45 4.5z"/><path class="cls-6" d="M905 377.37v-1.48c0-.13 0-.36-.05-.53s0-.26-.05-.39 0-.33-.07-.48 0-.25-.07-.38-.06-.3-.09-.44-.06-.24-.09-.36-.07-.27-.11-.4l-.11-.33-.13-.37-.12-.31-.15-.34-.14-.29-.18-.31-.16-.26-.2-.29-.17-.23-.22-.26-.19-.21-.25-.24-.2-.18-.28-.21-.21-.16-.32-.19-.22-.13-.39-.18-.19-.09-.62-.23a7.07 7.07 0 0 0-1.25-.27h-.64c-2.78-.09-5.77 1.58-8.91 4.73L866.85 395h3.23l20.68-20.87c.21-.21.41-.47.62-.66 0 0 .06-.09.09-.11l.06-.07.46-.43.13-.11s2.69-2.6 5.63-2.66h1.07l.45.12.16.05h.28s3.07.5 3.25 7.69V395h2.05v-16.53c.05-.32-.01-.8-.01-1.1z"/><path class="cls-26" d="M856.74 395v-.24a19.06 19.06 0 1 1 38.13 0v.24z"/><path class="cls-5" d="M1018.35 374.83c-6.09.88-6.81-1.07-6.81-1.07-1.36-4-.29-5.13-.29-5.13l7.64-.28a8.37 8.37 0 0 1 .11 3.65z"/><g id="wheel-22-small"><circle class="cls-12" cx="875.78" cy="394.76" r="17.33"/><circle class="cls-24" cx="875.78" cy="394.76" r="12.48"/><circle class="cls-27" cx="875.78" cy="394.76" r="10.11"/><path class="cls-12" d="M875.78 398.2a3.45 3.45 0 1 1 3.45-3.45 3.44 3.44 0 0 1-3.45 3.45zm-9.52-5.29c-.2.94 1.12.67 1.12.67 1.56-.29 2.95.05 3.58 1 .88 1.39 0 3.55-1.93 5.12s-1 .82-.43 1.59a9.67 9.67 0 0 0 2.35 1.89l.22.11c.92.38 1.32-1.1 1.32-1.1.54-1.8 1.68-3 3-3s2.55 1.32 3.06 3.21c.44 1.26 1.32 1.1 1.65 1a9.7 9.7 0 0 0 2.73-2.08c.63-.79-.35-1.53-.35-1.53-2-1.58-2.91-3.78-2-5.19.63-1 2-1.33 3.52-1.07s1.27.21 1.2-.64a9.76 9.76 0 0 0-.81-2.41c-.16-.26-.66-.8-1.83-.12a3.24 3.24 0 0 1-3.49.4c-1.08-.7-1.38-2.29-.92-4s.45-1.18-.6-1.48a9.76 9.76 0 0 0-1.87-.19 9.9 9.9 0 0 0-1.45.11c-1.17.15-1.06 1.37-1 1.86v.16c.28 1.54-.06 2.9-1 3.53s-2.51.35-3.85-.67a.9.9 0 0 0-1.39.28 9.73 9.73 0 0 0-.86 2.48zm0 0"/><path class="cls-12" d="M875.78 393a1.72 1.72 0 1 1-1.72 1.72 1.72 1.72 0 0 1 1.72-1.72zm0 0"/></g><g id="wheel-21-small"><circle class="cls-12" cx="984.78" cy="394.76" r="17.33"/><circle class="cls-24" cx="984.78" cy="394.76" r="12.48"/><circle class="cls-27" cx="984.78" cy="394.76" r="10.11"/><path class="cls-12" d="M984.78 398.2a3.45 3.45 0 1 1 3.45-3.45 3.44 3.44 0 0 1-3.45 3.45zm-9.52-5.29c-.2.94 1.12.67 1.12.67 1.56-.29 2.95.05 3.58 1 .88 1.39 0 3.55-1.93 5.12s-1 .82-.43 1.59a9.67 9.67 0 0 0 2.35 1.89l.22.11c.92.38 1.32-1.1 1.32-1.1.54-1.8 1.68-3 3-3s2.55 1.32 3.06 3.21c.44 1.26 1.32 1.1 1.65 1a9.7 9.7 0 0 0 2.73-2.08c.63-.79-.35-1.53-.35-1.53-2-1.58-2.91-3.78-2-5.19.63-1 2-1.33 3.52-1.07s1.27.21 1.2-.64a9.76 9.76 0 0 0-.81-2.41c-.16-.26-.66-.8-1.83-.12a3.24 3.24 0 0 1-3.49.4c-1.08-.7-1.38-2.29-.92-4s.45-1.18-.6-1.48a9.76 9.76 0 0 0-1.87-.19 9.9 9.9 0 0 0-1.45.11c-1.17.15-1.06 1.37-1 1.86v.16c.28 1.54-.06 2.9-1 3.53s-2.51.35-3.85-.67a.9.9 0 0 0-1.39.28 9.73 9.73 0 0 0-.86 2.48zm0 0"/><path class="cls-12" d="M984.78 393a1.72 1.72 0 1 1-1.72 1.72 1.72 1.72 0 0 1 1.72-1.72zm0 0"/></g><path class="cls-23" d="M1000.18 343.23a5.1 5.1 0 0 0 .31-.89 5.3 5.3 0 0 0-3.79-6.36 3.19 3.19 0 0 1-1-5.7 2.53 2.53 0 0 1 .3-1.38 10.56 10.56 0 0 0-13 4.85 11.43 11.43 0 0 0-1.2 6.07c2.3.18 11.53 1.02 18.38 3.41z"/><circle class="cls-6" cx="998.2" cy="330.16" r="2.45" transform="matrix(.94 -.33 .33 .94 -52.95 352.4)"/><path class="cls-28" d="M998.32 332.29a2.4 2.4 0 0 1-2.1-1.83.44.44 0 1 1 .86-.21 1.52 1.52 0 0 0 1.83 1.13.44.44 0 0 1 .21.86 2.37 2.37 0 0 1-.8.05z"/><path class="cls-29" d="M999.89 342.59a5.3 5.3 0 0 0-3.79-6.36 3.19 3.19 0 0 1-2.24-3.89 3.14 3.14 0 0 1 1.27-1.79 2.46 2.46 0 0 1 .3-1.36 10.58 10.58 0 0 0-7-.14 10.6 10.6 0 0 1 7.61-.08 2.44 2.44 0 0 0-.3 1.36 3.14 3.14 0 0 0-1.27 1.79 3.18 3.18 0 0 0 2.24 3.89 5.3 5.3 0 0 1 3.17 7.88 2.31 2.31 0 0 0-.42-.21 5.13 5.13 0 0 0 .43-1.09z"/><path class="cls-6" d="M999.43 346.65a1.8 1.8 0 0 1-.41-.09c-7.23-2.52-17.82-3.24-17.92-3.24a1.77 1.77 0 1 1 .23-3.52c.45 0 11.16.75 18.85 3.43a1.76 1.76 0 0 1-.75 3.42z"/></g><g id="car-1"><circle class="cls-23" cx="816.37" cy="372.72" r="3.71"/><path class="cls-23" d="M883.61 345.17a1.24 1.24 0 0 0-1.71.35l-1.76 2.73c-.31-.34-.73-.66-.75-.9l-.28-4.52a1.23 1.23 0 0 0-2.46.15l.27 4.43a3.67 3.67 0 0 1-1.32-.53 1.27 1.27 0 0 0-1.64.66 1.23 1.23 0 0 0 .65 1.62c2.94 1.24 4.24 1.77 4.89 2a1.11 1.11 0 0 1 .27.78c0 .37-.33 1.15-2 2.19-.86.55-1.64 1-2.33 1.43a30.26 30.26 0 0 0-3.06 2 7.68 7.68 0 0 1-.28-5.42 1.23 1.23 0 0 0-2.32-.85 9.87 9.87 0 0 0 .81 8.1 10 10 0 0 0-1.12 2 9.23 9.23 0 0 1-1.46 2.7 1.23 1.23 0 0 0 .58 2.36c.69 0 1.68-.55 3.15-4.12a6.83 6.83 0 0 1 1.2-2 1.24 1.24 0 0 0 .53.09l9-.56a1.23 1.23 0 0 0-.15-2.46l-5.9.37.26-.16c.71-.43 1.5-.9 2.38-1.46 2-1.25 3-2.64 3.1-4.13a3.44 3.44 0 0 0-.44-1.91l2.17-3.28a1.23 1.23 0 0 0-.28-1.66z"/><path class="cls-30" d="M883.61 345.17a1.23 1.23 0 0 0-1.17-.1 1.15 1.15 0 0 1 .35.15 1.23 1.23 0 0 1 .35 1.71l-2.14 3.29a3.43 3.43 0 0 1 .44 1.91c-.1 1.49-1.14 2.88-3.1 4.13-.88.56-1.67 1-2.38 1.46l-.26.16h.82l.26-.16c.71-.43 1.5-.9 2.38-1.46 2-1.25 3-2.64 3.1-4.13a3.44 3.44 0 0 0-.44-1.91l2.17-3.28a1.23 1.23 0 0 0-.38-1.77zm-10.92 15.37a1.23 1.23 0 0 1-.53-.09 6.84 6.84 0 0 0-1.2 2c-1.2 2.88-2.07 3.77-2.72 4a1.2 1.2 0 0 0 .39 0c.69 0 1.68-.55 3.15-4.12a7 7 0 0 1 1.09-1.85z"/><path class="cls-30" d="M872.64 359.72a10.88 10.88 0 0 0-1 1.45c-.42.74.72.11.72.11l.64-.88a1.24 1.24 0 0 0 .53.09l9-.56a1.23 1.23 0 0 0 .2-2.43 1.28 1.28 0 0 1 .08.35 1.24 1.24 0 0 1-1.15 1.31l-9 .56c-.19 0 0 .25-.16.18"/><path class="cls-12" d="M1006.64 388.93a5.65 5.65 0 0 1 4.41-1.93h3.52c1.55 0 2.54.85 2.21 2.36l-1.26 5.32a3.3 3.3 0 0 1-3.42 2.31h-8.8c-1.55 0-2.1-.61-1.22-1.88z"/><path class="cls-10" d="M999.79 401H831.54s-6.34-.17-12.5-7.39l-3.52-6.33S812 379.8 817.46 375c0 0 6.45-5.15 19.68-9.37 0 0 2.14-1.78 41.92-2.31a19 19 0 0 0 9-3.18s21.3-11.27 35.55-12.33c0 0 38-1.41 53.68 2.81 0 0 20.77 5.2 37.66 16.33l2.64 4.44s4.4 6.79-5.81 17.3l-4.22 6.41s-1.96 5.9-7.77 5.9z"/><path class="cls-12" d="M872.37 397h83.77l3.72 4h-91.01l3.52-4z"/><ellipse class="cls-11" cx="828.28" cy="376.39" rx="8.54" ry="3.54" transform="rotate(-24.15 828.129 376.362)"/><path class="cls-25" d="M897.14 367.31L925.17 352H959v15.22l-61.86.09zm64.86-.09v-15.49s19.48 1.53 20.18 6.69c0 0 1.82 5.51-20.18 8.8zM908.27 352h11.26l-24.41 12.66s-6 4.39-14-1.54a19.42 19.42 0 0 0 6.66-2.68 208.19 208.19 0 0 1 19.65-8.44z"/><path class="cls-5" d="M1014.93 367l-.6-.38a5.81 5.81 0 0 0 3.24 10.63 5.9 5.9 0 0 0 .81-.06 8.79 8.79 0 0 0-.81-5.74z"/><path class="cls-6" d="M937.72 384.74a4.46 4.46 0 0 0-3.17-1.33 4.35 4.35 0 0 0-2.22.64 12.89 12.89 0 0 0-3.28 3.28v1.36a21.56 21.56 0 0 1 3.32-3.61 3.56 3.56 0 0 1 5.77 2.82v.82a3.6 3.6 0 0 1-3.59 3.59 3.51 3.51 0 0 1-3.39-2.6l-.64.78a4.17 4.17 0 0 0 4 2.73 4.55 4.55 0 0 0 4.51-4.51v-.82a4.46 4.46 0 0 0-1.33-3.17m-19.54-.42a3.24 3.24 0 0 1 1.64.41 7.44 7.44 0 0 1 .63-.68 3.93 3.93 0 0 0-2.27-.64 4.36 4.36 0 0 0-4.5 4.5v5.33h.91v-5.33a3.44 3.44 0 0 1 3.59-3.59m8.67 8.92v-5.33a2.92 2.92 0 0 0-5.84 0v.82a3 3 0 0 0 2.92 2.92 2.32 2.32 0 0 0 1.38-.4v-1a2.26 2.26 0 0 1-1.38.46 2 2 0 0 1-2-2v-.82a2 2 0 0 1 4 0v5.33zm-24.44-5.86v.29a5.84 5.84 0 0 0 1.69 4.15 5.74 5.74 0 0 0 4.11 1.7 6.35 6.35 0 0 0 3.3-.84 3.94 3.94 0 0 0 1.14-1v-4.91H908v.91h3.75v3.71a5.36 5.36 0 0 1-7-.26 5 5 0 0 1-1.4-3.51v-.29a4.81 4.81 0 0 1 1.56-3.46 6 6 0 0 1 6.65-.84v-1a7.28 7.28 0 0 0-2.92-.47 6.09 6.09 0 0 0-6.21 5.8m15.77-1.48a2 2 0 0 1 .87.17 5.53 5.53 0 0 1 .4-.8 2.69 2.69 0 0 0-1.28-.28 2.86 2.86 0 0 0-2.92 2.92v5.33h.91v-5.33a1.92 1.92 0 0 1 2-2m-6.64-1.08v-1.08a5.92 5.92 0 0 0-2.92-.64 4.78 4.78 0 0 0-3.25 1.26 4.08 4.08 0 0 0-1.37 3v.29a4.25 4.25 0 0 0 4.21 4.27 4 4 0 0 0 2.86-.81v-2.74H908v.91h2.23v1.37a5 5 0 0 1-2 .35 3.25 3.25 0 0 1-2.33-1 3.35 3.35 0 0 1-1-2.38v-.29a3.59 3.59 0 0 1 3.71-3.36 4.21 4.21 0 0 1 2.92.8m21.54 1.72a2.12 2.12 0 0 1 1.48-.65 2 2 0 0 1 2 2v.82a2 2 0 0 1-2 2 1.9 1.9 0 0 1-1.48-.84 3.26 3.26 0 0 1-.64-1.71l-.74.9a3.47 3.47 0 0 0 1 1.82 2.76 2.76 0 0 0 1.85.74 2.92 2.92 0 0 0 2.92-2.92v-.82a3 3 0 0 0-2.92-2.92 3.28 3.28 0 0 0-2.16 1c-.24.24-.82.81-1.17 1.23-.59.64-1.44 1.61-2.17 2.57v1.43c.81-1 1.27-1.62 2-2.49a27.7 27.7 0 0 1 2-2.17m-13.65 2.18a4.55 4.55 0 0 0 4.51 4.51 3.32 3.32 0 0 0 1.38-.29V392a3.77 3.77 0 0 1-1.38.29 3.64 3.64 0 0 1-3.59-3.59v-.82a3.64 3.64 0 0 1 3.59-3.59 3.57 3.57 0 0 1 3.59 3.59v5.33h.91v-5.5a4.53 4.53 0 0 0-1.4-3.06 4.5 4.5 0 0 0-7.61 3.24zM930 385.2a7.18 7.18 0 0 1 .91-1v-4.82H930zm1.58-1.34v-4.45h.91v3.82a5.6 5.6 0 0 0-.91.63"/><path class="cls-6" d="M874.64 372.8c-.38.39-3.05 3.13-5.92 6-1.34 1.35-6.55 6.65-7 7.09l1.38 1.4c.45-.44 3.89-4 5.71-5.81l7.2-7.23a4.71 4.71 0 0 1 3.42-1.25h100.3a3 3 0 0 0 2-.82c.12-.12.56-.59 1.2-1.24H879.45a6.69 6.69 0 0 0-4.81 1.86z"/><path class="cls-6" d="M997.76 357.88l-15 15.24a5 5 0 0 1-2.91 1.52c-.1 0-.21.36-.31.36H879.2a2.88 2.88 0 0 0-2.17.54 10.18 10.18 0 0 0-1.06.9l103.52-.09a6.33 6.33 0 0 0 4.44-1.8.41.41 0 0 0 .07-.26c1-.81 10.63-10.6 15.52-15.56-.64-.29-1.13-.58-1.76-.85zm3.24 1.48l-10.19 10.36c-.1.1-2.33 2.31-3.16 3.15a6.69 6.69 0 0 0 4.54-1.75l10.69-10.87zm-133.11 18.22c.14-.14 2.46-2.44 3.3-3.28a6.68 6.68 0 0 0-4.68 1.89c-.4.41-6.77 6.95-7.19 7.37l1.38 1.39c.42-.43 6.79-6.95 7.19-7.37z"/><g id="wheel-12-small"><circle class="cls-12" cx="855.53" cy="391.77" r="18.39"/><circle class="cls-27" cx="855.53" cy="391.77" r="13.24"/><circle class="cls-12" cx="855.53" cy="391.77" r="3.03"/><path d="M844.59 391.77a11 11 0 0 1 10.94-10.95.35.35 0 1 1 0 .7 10.25 10.25 0 0 0-10.24 10.24.35.35 0 0 1-.7 0zm10.59 10.6a.35.35 0 0 1 .35-.35 10.25 10.25 0 0 0 10.24-10.24.35.35 0 0 1 .71 0 11 11 0 0 1-10.95 10.94.35.35 0 0 1-.35-.35z"/></g><g id="wheel-11-small"><circle class="cls-12" cx="980.53" cy="391.77" r="18.39"/><circle class="cls-27" cx="980.53" cy="391.77" r="13.24"/><circle class="cls-12" cx="980.53" cy="391.77" r="3.03"/><path d="M969.59 391.77a11 11 0 0 1 10.94-10.95.35.35 0 1 1 0 .7 10.25 10.25 0 0 0-10.24 10.24.35.35 0 0 1-.7 0zm10.59 10.6a.35.35 0 0 1 .35-.35 10.25 10.25 0 0 0 10.24-10.24.35.35 0 0 1 .71 0 11 11 0 0 1-10.95 10.94.35.35 0 0 1-.35-.35z"/></g></g><g id="bigcar-3"><path class="cls-7" d="M15.88 437h198.9s7.86.76 7.86-7.4l1.16-10.51s.93-6-3-9.26c0 0-1.62-3.66-1.62-5.3 0 0-2.24-4.66-12.45-7.43 0 0-22.81-6-34.44-7.87a16 16 0 0 1-8.85-4.63l-23.82-22s-.46-3.47-16.88-3.93c0 0-56.2-3.24-91.59 1.39 0 0-6 2.08-17.57 24.05a11.78 11.78 0 0 1-3.71 3.93s-3 5.32-4.16 18.27c0 0 0 3.24-1.16 4.39 0 0-3.93 4.35-.93 11.31a7.78 7.78 0 0 1 .23 5.11s-2.08 4.56 3.7 7.05z"/><path class="cls-31" d="M140.64 363.58l-7.37 1s-1.44.34.42 2.71l20.95 21.12s2.46 2.29 5.26 1.1l6.91-2.32a9.86 9.86 0 0 1-1.9-1.52l-23.24-21.16z"/><path class="cls-25" d="M141.94 364.78l-6.26.94s-1.31.31.39 2.47l19 19.2s2.24 2.08 4.78 1l5.94-1.78"/><path class="cls-5" d="M7.09 396.79s4.93.15 7.25.45c0 0 1.85.16 0 7.25 0 0-.31 2.47-8.63 1.85a69.9 69.9 0 0 1 1.38-9.55z"/><path class="cls-11" d="M219.17 404.52l-8.87-1s-2-.15-.92 5.55c0 0 .77 3.85 4 4a36.35 36.35 0 0 0 9.73 0z"/><path class="cls-31" d="M222.75 429.62c0 8.16-8 7.38-8 7.38H15.88l-8.33-2.84c-5.77-2.49-3.71-7-3.7-7a6.47 6.47 0 0 0 3.7 3.27l8.33 2.57H215s5.88.43 7.75-3.38z"/><path class="cls-6" d="M78 403.94v-14.06l-4-.1v14.16c0 5.73-4.17 11.06-9.89 11.06H2.71a11.45 11.45 0 0 0-.18 3h61.58A14 14 0 0 0 78 403.94zm6-5.94v-7.9l-4-.1v14a16.51 16.51 0 0 1-.18 3.69A14.07 14.07 0 0 0 84 398z"/><path class="cls-6" d="M64.73 412a7.12 7.12 0 0 0 5.94-3.27c-.2 0-.39.27-.59.27H5.43a3.31 3.31 0 0 1-.89 2s-.32 0-.7 1z"/><path class="cls-31" d="M55.92 429.6a21.18 21.18 0 1 0-42.35 0 21.48 21.48 0 0 0 1.18 7l1.13.42h38.74a20.36 20.36 0 0 0 1.3-7.42z"/><path class="cls-6" d="M129.2 406.62a5.66 5.66 0 0 0-4-1.69 5.51 5.51 0 0 0-2.81.81 16.37 16.37 0 0 0-4.15 4.15v1.73a27.4 27.4 0 0 1 4.21-4.57 4.51 4.51 0 0 1 7.3 3.58v1a4.56 4.56 0 0 1-4.55 4.55 4.45 4.45 0 0 1-4.29-3.29l-.81 1a5.28 5.28 0 0 0 5.11 3.45 5.75 5.75 0 0 0 5.7-5.7v-1a5.66 5.66 0 0 0-1.68-4m-24.74-.53a4.1 4.1 0 0 1 2.08.52 10 10 0 0 1 .8-.87 5 5 0 0 0-2.87-.8 5.53 5.53 0 0 0-5.7 5.7v6.74h1.15v-6.74a4.35 4.35 0 0 1 4.55-4.55m11 11.29v-6.74a3.7 3.7 0 0 0-7.39 0v1a3.75 3.75 0 0 0 3.7 3.7 2.94 2.94 0 0 0 1.75-.51v-1.22a2.87 2.87 0 0 1-1.75.57 2.52 2.52 0 0 1-2.54-2.54v-1a2.54 2.54 0 0 1 5.09 0v6.74zm-31-7.4v.37a7.41 7.41 0 0 0 2.14 5.26 7.26 7.26 0 0 0 5.19 2.15 8.05 8.05 0 0 0 4.17-1.1 5 5 0 0 0 1.45-1.23v-6.22h-5.9v1.16h4.75v4.7a6.79 6.79 0 0 1-8.87-.33 6.28 6.28 0 0 1-1.78-4.44V410a6.09 6.09 0 0 1 2-4.39 7.6 7.6 0 0 1 8.35-1.09v-1.3a9.23 9.23 0 0 0-3.69-.59c-4.26 0-7.86 3.36-7.86 7.34m20-1.87a2.56 2.56 0 0 1 1.1.21 7 7 0 0 1 .51-1 3.36 3.36 0 0 0-1.61-.36 3.61 3.61 0 0 0-3.7 3.7v6.74h1.15v-6.74a2.43 2.43 0 0 1 2.54-2.54M96 406.74v-1.36a7.47 7.47 0 0 0-3.69-.81 6.08 6.08 0 0 0-4.12 1.59A5.18 5.18 0 0 0 86.5 410v.37a5.37 5.37 0 0 0 5.33 5.41c2.39 0 3.37-.78 3.63-1v-3.47h-3.9v1.16h2.82v1.74a6.29 6.29 0 0 1-2.53.45 4.12 4.12 0 0 1-3-1.23 4.25 4.25 0 0 1-1.22-3V410a4.55 4.55 0 0 1 4.7-4.25 5.33 5.33 0 0 1 3.69 1m27.26 2.18a2.69 2.69 0 0 1 1.87-.82 2.51 2.51 0 0 1 2.54 2.54v1a2.52 2.52 0 0 1-2.54 2.54 2.41 2.41 0 0 1-1.88-1.06 4.19 4.19 0 0 1-.81-2.16l-.93 1.14a4.36 4.36 0 0 0 1.28 2.3 3.47 3.47 0 0 0 2.34.94 3.7 3.7 0 0 0 3.7-3.7v-1a3.76 3.76 0 0 0-3.7-3.7 4.15 4.15 0 0 0-2.74 1.26c-.31.31-1 1-1.48 1.55-.74.81-1.82 2-2.75 3.26v1.81c1-1.31 1.61-2 2.57-3.16a35 35 0 0 1 2.53-2.75M106 411.68a5.75 5.75 0 0 0 5.7 5.7 4.19 4.19 0 0 0 1.75-.36v-1.15a4.77 4.77 0 0 1-1.75.36 4.61 4.61 0 0 1-4.55-4.55v-1a4.61 4.61 0 0 1 4.55-4.55 4.52 4.52 0 0 1 4.55 4.55v6.74h1.15v-7a5.76 5.76 0 0 0-1.77-3.88 5.7 5.7 0 0 0-9.63 4.1zm13.37-4.47a9.22 9.22 0 0 1 1.15-1.22v-6.1h-1.12zm2-1.69v-5.63h1.15v4.84a7.25 7.25 0 0 0-1.15.79M171 433v-18.92c0-.07-.11-.13-.11-.17-.23-7.06-2.39-7.71-3.5-8.06a7.39 7.39 0 0 0-1-.17 24.77 24.77 0 0 1 .64 7.16V433zm-21-26.38l1.71-1.69c3.79-3.81 7.52-6.15 11.12-7-4.64-1.2-9.72 1.06-15.12 6.48L119.35 433H124l26-26.38z"/><path class="cls-6" d="M156.69 408.09l.2-.18.69-.62.17-.14.7-.58.07-.06.09-.07.71-.54h.07c.26-.19.52-.36.78-.53.27-.17.53-.33.79-.48a13.82 13.82 0 0 1 1.63-.79 10.44 10.44 0 0 1 1.42-.46l.67-.14h.06l.62-.07h1.62l.35.06q.33.07.64.17l.46.16h.11l.35.15.14.07.31.17.15.1.29.19.16.13.27.22.17.16.25.25.16.19.23.29.16.23.21.33.15.27.19.38.14.32.17.42.13.37c0 .15.1.31.14.47s.08.28.12.43.08.35.12.53.07.32.1.49.06.38.09.58.06.37.08.56 0 .42.07.63 0 .42.06.64 0 .45 0 .67-.07.48-.06.73c0 .46-.07.94-.07 1.44V433h3.5v-20.68c0-.29 0-.38-.05-.58s0-.53-.08-.78 0-.38-.08-.56-.07-.48-.1-.7-.07-.36-.1-.54-.09-.43-.13-.64-.08-.35-.13-.52-.1-.4-.16-.59-.1-.33-.15-.48-.12-.36-.19-.54l-.18-.45-.22-.49-.21-.42-.25-.45-.23-.38-.29-.41-.25-.34-.32-.38-.28-.3-.36-.34-.3-.26-.41-.31-.31-.22-.47-.28-.31-.18c-.18-.1-.37-.18-.56-.27l-.28-.13q-.44-.18-.9-.33c-4.78-1.51-10 .71-15.65 6.33L127.38 433h4.69l23.72-23.91c.3-.3.6-.72.9-1z"/><path class="cls-31" d="M206.72 428.68a21.18 21.18 0 1 0-42.35 0A19.5 19.5 0 0 0 166 437h39a19.57 19.57 0 0 0 1.72-8.32z"/><path class="cls-6" d="M78 357.6h-4V371h4zm6 0h-4V376h4z"/><path class="cls-31" d="M145.28 387.75l-16.82-20c-1.22-1.46-3.81-1.76-5.59-1.76h-5.63l-2.84-.14-50.24-.17-19.44.17a16.7 16.7 0 0 0-3 .27l-.76.16a9.41 9.41 0 0 0-5.7 4.47c-.48.83-1 1.84-1.45 2.88l-5.32 11.69S26.9 389 31.75 389h.19l104.58 2.69 7.73.18s4.93.48 1.03-4.12z"/><path class="cls-25" d="M73.86 367.56l-30.32.24s-4.14-.51-6.82 5.7l-4.89 10.33s-1.47 3.41 2.76 3.51h.65l38.11.92s3.18.38 3.19-3.78l.37-14.48s.22-2.36-3.05-2.44zm68.53 19.36l-15.5-17.59s-1.07-1.6-4.39-1.7H85.42a2.05 2.05 0 0 0-2.16 2.37l1.16 16.27a2.79 2.79 0 0 0 .45 1.07 2.75 2.75 0 0 0 .43.48 3.33 3.33 0 0 0 2.12 1.06l54 1.7s4.51.52.97-3.66z"/><ellipse class="cls-32" cx="110.28" cy="449.09" rx="109.94" ry="5.99"/><path class="cls-31" d="M100 397.53a1.5 1.5 0 0 1-1.58 1.47l-9-.43A1.5 1.5 0 0 1 88 397a1.5 1.5 0 0 1 1.57-1.43l9 .42a1.5 1.5 0 0 1 1.43 1.57z"/><path class="cls-33" d="M142.46 389.62l-54-1.7a3.33 3.33 0 0 1-2.12-1.06 2.75 2.75 0 0 1-.43-.48 2.79 2.79 0 0 1-.45-1.07L84.26 369a2.57 2.57 0 0 1 .14-1.18 1.93 1.93 0 0 0-1.14 2.18l1.16 16.27a2.79 2.79 0 0 0 .45 1.07 2.75 2.75 0 0 0 .43.48 3.33 3.33 0 0 0 2.12 1.06l54 1.7s2.21.23 2.28-1.08a4.27 4.27 0 0 1-1.24.12zm-67.1-2.33l-38.11-.92h.92-1.57c-4.23-.1-2.76-3.51-2.76-3.51l4.89-10.33A10.65 10.65 0 0 1 42 368c-1.45.41-3.66 1.68-5.32 5.52l-4.89 10.33s-1.47 3.41 2.76 3.51h1.57-.92l38.11.92a2.86 2.86 0 0 0 2.39-1 2.71 2.71 0 0 1-.34.01zm-38.83.71zm1.94-1zm125.22-2.36l-5.8 1.74a4.7 4.7 0 0 1-4.67-.91l1.89 1.91s2.24 2.08 4.78 1l5.94-1.78z"/><circle class="cls-6" cx="12.5" cy="347.06" r="3.59"/><path class="cls-23" d="M16.86 366.85a3.47 3.47 0 0 1 .71-.68l.27-.24c7.08-6.43 14.57-10.36 22.27-11.69h.09a15.5 15.5 0 0 0-25.33-9.84 3.57 3.57 0 0 1 1.08 1.73 4.59 4.59 0 0 1 2.62 1.87 4.67 4.67 0 0 1-1.19 6.47 7.76 7.76 0 0 0-.52 12.43z"/><path class="cls-6" d="M19.59 372.53a3.5 3.5 0 0 1-2-6.36l.27-.24C25.41 359 33.45 355 41.72 354a3.5 3.5 0 1 1 .87 6.95c-6.82.85-13.56 4.27-20 10.17a4.19 4.19 0 0 1-2.78 1.41z"/><path class="cls-34" d="M14.74 346.57a2.88 2.88 0 0 1-2.56 3.16M40.85 356a2.38 2.38 0 0 1 2.65 2.06"/><path class="cls-29" d="M16.25 365.05a7.77 7.77 0 0 1 2.13-10.64 4.67 4.67 0 0 0 1.19-6.41 4.59 4.59 0 0 0-2.62-1.85 3.57 3.57 0 0 0-1.08-1.73 15.52 15.52 0 0 1 9.55-3.61 15.53 15.53 0 0 0-10.55 3.61 3.57 3.57 0 0 1 1.08 1.73 4.59 4.59 0 0 1 2.62 1.85 4.67 4.67 0 0 1-1.19 6.47 7.76 7.76 0 0 0-.52 12.43 3.59 3.59 0 0 1 .48-.49 7.7 7.7 0 0 1-1.09-1.36z"/><g id="wheel-32"><circle class="cls-35" cx="185.54" cy="430.19" r="11.66"/><circle class="cls-36" cx="185.54" cy="430.19" r="9.33"/><path class="cls-37" d="M187.22 441.85v-4.8a2.43 2.43 0 0 1 1.18-2.16 2.34 2.34 0 0 1 2.36.27l3.71 2.39a11.77 11.77 0 0 0 2-3.53l-3.67-2.21a2 2 0 0 1 .25-3.78l3.54-1.65a11.7 11.7 0 0 0-2.16-3.86l-3.59 2.48a2.84 2.84 0 0 1-1.49.5 2.07 2.07 0 0 1-2.12-2.32v-4.62a11 11 0 0 0-4 0v4.62c0 1-.21 1.75-.86 2.11a1.45 1.45 0 0 1-.76.21 2.7 2.7 0 0 1-1.45-.49l-3.63-2.45a11.66 11.66 0 0 0-2.13 3.79l3.7 1.65a2 2 0 0 1 .25 3.78l-3.8 2.29-.13-.22a11.67 11.67 0 0 0 2.16 3.79l-.07-.11 3.67-2.4a2 2 0 0 1 2.14-.27 2.27 2.27 0 0 1 .89 2.16v4.8h-.05c.75 0 1.53.23 2.33.23s1.58-.23 2.33-.23z"/><path d="M185.54 412.19a18 18 0 1 0 18 18 18 18 0 0 0-18-18zm0 29.66a11.66 11.66 0 1 1 11.66-11.66 11.66 11.66 0 0 1-11.66 11.66z"/><circle class="cls-35" cx="185.54" cy="430.19" r="3.4"/><circle cx="185.54" cy="430.19" r="1.36"/></g><g id="wheel-31"><circle class="cls-35" cx="34.75" cy="430.19" r="11.66"/><circle class="cls-36" cx="34.75" cy="430.19" r="9.33"/><path class="cls-37" d="M36.42 441.85v-4.8a2.43 2.43 0 0 1 1.18-2.16 2.34 2.34 0 0 1 2.36.27l3.71 2.39a11.73 11.73 0 0 0 2-3.53L42 431.81a2 2 0 0 1 .25-3.78l3.54-1.65a11.68 11.68 0 0 0-2.16-3.86L40 425a2.84 2.84 0 0 1-1.49.5 2.07 2.07 0 0 1-2.12-2.32v-4.62a13.28 13.28 0 0 0-2-.18 13.37 13.37 0 0 0-2 .18v4.62c0 1-.21 1.75-.86 2.11a1.46 1.46 0 0 1-.76.21 2.7 2.7 0 0 1-1.45-.49l-3.63-2.45a11.64 11.64 0 0 0-2.13 3.79L27.3 428a2 2 0 0 1 .25 3.78l-3.8 2.29-.13-.22a11.71 11.71 0 0 0 2.17 3.79l-.07-.11 3.67-2.4a2 2 0 0 1 2.14-.27 2.27 2.27 0 0 1 .89 2.16v4.8h-.05c.75 0 1.53.23 2.33.23s1.58-.23 2.33-.23z"/><path d="M34.75 412.19a18 18 0 1 0 18 18 18 18 0 0 0-18-18zm0 29.66a11.66 11.66 0 1 1 11.66-11.66 11.66 11.66 0 0 1-11.66 11.66z"/><circle class="cls-35" cx="34.75" cy="430.19" r="3.4"/><circle cx="34.75" cy="430.19" r="1.36"/></g></g><g id="bigcar-2"><path class="cls-12" d="M24.74 374.29h7.3v18.26h-7.3z"/><path class="cls-7" d="M227 404.75s-.33-8.33-14.33-14L190 383.42s-11.34-2.33-19-7.67l-25.66-15.33s-10.33-6.67-40.67-9.33c0 0-63.23-2.67-83.45 5 0 0-.6 1.33 2.42 4 0 0-16 11.48-17.31 39.07 0 0 1.33.93-2.33 4.09 0 0-3.33 2.5-2.67 10.5 0 0 .67 15.71 2.67 18.36 0 0 2.93 2.35 5 .16l45 4.48s96.33 2 119.67 0l10.33-4.48 26.47-10.19 8.77 15.56s9.43 1 13.43-2.63c0 0 2.33-11 1.33-18.95 0 0 0-5.36-6-7.84 0 .01-.2-.63-1-3.47z"/><path class="cls-31" d="M196.4 407.94a23.86 23.86 0 0 0-23.33 29l14.93-.44 1.17 1.26h30.37a23.9 23.9 0 0 0-23.14-29.82z"/><path class="cls-31" d="M232.67 430c-4 3.59-13.43 2.63-13.43 2.63l-8.77-15.56-26.47 10.2-10.33 4.48c-23.33 2-119.67 0-119.67 0l-45-4.48c-2 2.19-5-.16-5-.16-1.74-2.29-2.47-14.43-2.63-17.6a21.53 21.53 0 0 0 0 4.24S2 429.46 4 432.11c0 0 2.93 2.35 5 .16l45 4.48s96.33 2 119.67 0l10.33-4.48 26.47-10.19 8.77 15.56s9.43 1 13.43-2.63c0 0 2-9.21 1.52-16.89a84.57 84.57 0 0 1-1.52 11.88z"/><path class="cls-11" d="M223.93 398.34s-11.88-6.75-16.58-3.42c0 0-1.51 1.34.65 3.42l14 9.6s3.33 1.93 6 .29l-1.25-5.81a23.26 23.26 0 0 0-2.82-4.08z"/><path class="cls-25" d="M6.51 400.14s3.49-.78 6.36-6.15c0 0 1-1.49.63-7.87 0 0 1.88-16.87 11.25-24.37 0 0 .91-1-1.11-1.67 0 0-16.87 12-17.13 39.33"/><path class="cls-6" d="M145.57 413.64a5.66 5.66 0 0 0-4-1.69 5.51 5.51 0 0 0-2.81.81 16.37 16.37 0 0 0-4.15 4.15v1.73a27.4 27.4 0 0 1 4.21-4.57 4.51 4.51 0 0 1 7.3 3.58v1a4.56 4.56 0 0 1-4.55 4.55 4.45 4.45 0 0 1-4.29-3.29l-.81 1a5.28 5.28 0 0 0 5.11 3.46 5.75 5.75 0 0 0 5.7-5.7v-1a5.66 5.66 0 0 0-1.68-4m-24.74-.53a4.1 4.1 0 0 1 2.08.52 10 10 0 0 1 .8-.87 5 5 0 0 0-2.87-.8 5.53 5.53 0 0 0-5.7 5.7v6.74h1.15v-6.74a4.35 4.35 0 0 1 4.55-4.55m11 11.29v-6.74a3.7 3.7 0 0 0-7.39 0v1a3.75 3.75 0 0 0 3.7 3.7 3 3 0 0 0 1.75-.51v-1.22a2.87 2.87 0 0 1-1.75.57 2.52 2.52 0 0 1-2.54-2.54v-1a2.54 2.54 0 0 1 5.09 0v6.74zm-31-7.43v.37a7.41 7.41 0 0 0 2.14 5.26 7.26 7.26 0 0 0 5.19 2.15 8.05 8.05 0 0 0 4.18-1.07 5 5 0 0 0 1.45-1.23v-6.22h-5.91v1.16h4.75v4.7a6.79 6.79 0 0 1-8.87-.33 6.28 6.28 0 0 1-1.78-4.44V417a6.09 6.09 0 0 1 2-4.39 7.6 7.6 0 0 1 8.41-1.06v-1.3a9.23 9.23 0 0 0-3.69-.59c-4.26 0-7.86 3.36-7.86 7.34m20-1.87a2.56 2.56 0 0 1 1.1.21 7 7 0 0 1 .51-1 3.36 3.36 0 0 0-1.61-.36 3.61 3.61 0 0 0-3.7 3.7v6.74h1.15v-6.74a2.43 2.43 0 0 1 2.54-2.54m-8.41-1.36v-1.38a7.47 7.47 0 0 0-3.69-.81 6.08 6.08 0 0 0-4.12 1.59 5.18 5.18 0 0 0-1.73 3.82v.37a5.37 5.37 0 0 0 5.33 5.41c2.39 0 3.37-.78 3.63-1v-3.47h-3.9v1.16h2.82v1.74a6.29 6.29 0 0 1-2.53.45 4.12 4.12 0 0 1-3-1.23 4.25 4.25 0 0 1-1.22-3V417a4.55 4.55 0 0 1 4.7-4.25 5.33 5.33 0 0 1 3.69 1m27.26 2.18a2.69 2.69 0 0 1 1.87-.82 2.51 2.51 0 0 1 2.54 2.54v1a2.52 2.52 0 0 1-2.54 2.54 2.41 2.41 0 0 1-1.88-1.06 4.19 4.19 0 0 1-.81-2.16l-.93 1.14a4.36 4.36 0 0 0 1.28 2.3 3.47 3.47 0 0 0 2.34.94 3.7 3.7 0 0 0 3.7-3.7v-1a3.76 3.76 0 0 0-3.7-3.7 4.15 4.15 0 0 0-2.74 1.26c-.31.31-1 1-1.48 1.55-.74.81-1.82 2-2.75 3.26v1.81c1-1.31 1.61-2 2.57-3.16a35 35 0 0 1 2.53-2.75m-17.28 2.76a5.75 5.75 0 0 0 5.7 5.7 4.19 4.19 0 0 0 1.75-.36v-1.15a4.77 4.77 0 0 1-1.75.36 4.61 4.61 0 0 1-4.55-4.55v-1a4.61 4.61 0 0 1 4.55-4.55 4.52 4.52 0 0 1 4.55 4.55v6.74h1.15v-7a5.75 5.75 0 0 0-1.77-3.88 5.7 5.7 0 0 0-9.63 4.1zm13.37-4.47a9.22 9.22 0 0 1 1.15-1.22v-6.1h-1.15zm2-1.69v-5.63h1.15v4.84a7.25 7.25 0 0 0-1.15.79M20.84 390.66c1.3 5 5.58 7.5 13.88 7.93l75.84 3.82v.07l50 2.59a22.48 22.48 0 0 1 6.86 1.21 4.14 4.14 0 0 0-.12-.76c-.27-1.05-.83-3.21-8.09-3.72L124 400v-.08l-89.1-4.46c-8.5-.44-10.3-3-10.94-5.49-.89-3.44 1.06-7.35 5.81-11.61L60.19 351c-1.79.07-3.57.14-5.35.23L27.6 375.79c-5.7 5.12-7.98 10.21-6.76 14.87zm39.51 19.69l5.77.1a18.09 18.09 0 0 1 4.05.53 15.23 15.23 0 0 0-10.58-4.51l-57.19-1a13 13 0 0 0-1 3.81l58.14 1c.27.02.54.04.81.07z"/><path class="cls-6" d="M26.06 374.25l1.71-1.54L51.5 351.4q-2.63.16-5.2.36l-20.67 18.58c-5.5 4.94-7.81 9.74-6.88 14.27 1.01-3.42 3.45-6.89 7.31-10.36zm-24.8 37.83zm166.16 8.56l-1.71 1.54-11.48 10.32 4.9-.1 8.73-7.85c5.5-4.94 7.81-9.74 6.88-14.27-1.01 3.42-3.46 6.89-7.32 10.36zM1.33 413.75c0-.33 0-.65-.06-1l.06 1zm64.75-.58l-64.56-1.08c.07 1.12.17 2.45.3 3.84L66 417a11.45 11.45 0 0 1 11.27 11.58l-.06 3.56 3.85.06.06-3.56a15.28 15.28 0 0 0-15.04-15.47z"/><path class="cls-6" d="M74.45 432.11l.07-4.24a8.66 8.66 0 0 0-3.75-6.6v.65l-.17 10.13zm-41.54-42.29a22.49 22.49 0 0 1-6.86-1.21 4.16 4.16 0 0 0 .12.76c.27 1.05.83 3.21 8.09 3.72l76.58 3.83v.08l47.75 2.47c8.5.44 10.3 3 10.94 5.49.89 3.44-1.06 7.35-5.81 11.61l-17.83 16h4.82l15.17-13.63c5.71-5.12 8-10.09 6.77-14.77-1.3-5-5.58-7.45-13.88-7.88l-34.5-1.78v-.09zM1.4 415.09v-.15.15zm-.02-.42zm.06 1.09v.16c.01-.05 0-.11 0-.16zm-.01-.16v-.27z"/><path class="cls-31" d="M35 382.42l137.51 7.67s4.32.33 4.65-3.83c0 0-.18-1.17-6.17-4.83 0 0-23.83-17.17-45.49-22.5 0 0-33.5-5-82.33 0 0 0-4.5.33-9 11.67 0-.02-5.7 11.45.83 11.82z"/><path class="cls-25" d="M164.33 382.75c.36 4.89-2.5 4.67-2.5 4.67l-74.5-4.67c-4.67-.17-4.83-2.83-4.83-2.83l-2.83-20.17s-.67-1.67 2.42-1.67c0 0 28.39 1 40 2.17a42.35 42.35 0 0 1 13.21 3.67l20.67 10.5s8.03 3.83 8.36 8.33zm-92.2-20.12L73.88 377s1.75 4.63-3.87 5.13l-34.37-1.87s-3.25-.12-.62-6.37a49.85 49.85 0 0 1 5.75-10.62 10.33 10.33 0 0 1 6.75-2.87l19.75-1.75s4.33-.33 4.86 3.98z"/><path class="cls-5" d="M5.25 402.06a29 29 0 0 0 5.35-1.2s2-1.19.94 4.9A9.58 9.58 0 0 1 9.43 410s-1.25 2-8.16.93c0-.02-.39-5.68 3.98-8.87z"/><path class="cls-31" d="M54.29 431.82a23.89 23.89 0 1 0-47.77 0v1.36a2.77 2.77 0 0 0 2.48-.91l44.81 4.46a24 24 0 0 0 .48-4.91zm121.11-47.4s2.42 1.68 1.09 3.92"/><path class="cls-33" d="M72 380.13l-34.37-1.87s-3.25-.12-.62-6.37a52.05 52.05 0 0 1 5.09-9.72 7.73 7.73 0 0 0-1.34 1.09A49.85 49.85 0 0 0 35 373.88c-2.62 6.25.63 6.38.63 6.38L70 382.13c2.58-.23 3.6-1.32 4-2.44a6.82 6.82 0 0 1-2 .44z"/><ellipse class="cls-32" cx="118.67" cy="451.42" rx="115.33" ry="6.33"/><path class="cls-31" d="M94 390.53a1.5 1.5 0 0 1-1.58 1.47l-9-.43A1.5 1.5 0 0 1 82 390a1.5 1.5 0 0 1 1.57-1.43l9 .42a1.5 1.5 0 0 1 1.43 1.54z"/><g class="cls-38"><path class="cls-39" d="M149.36 370.48a1.07 1.07 0 0 1 1.51.12l2 2.15c.23-.33.77-.66.76-.87l-.25-3.92a1 1 0 1 1 2-.13l.25 3.85c0-.17.6-.39.94-.59a1 1 0 0 1 1.42.39 1.08 1.08 0 0 1-.42 1.47c-2.4 1.39-3.48 2-4 2.25a1 1 0 0 0-.15.7c.07.32.4 1 1.92 1.67.8.38 1.52.7 2.16 1a26.51 26.51 0 0 1 2.85 1.39 6.69 6.69 0 0 0-.34-4.7 1.07 1.07 0 0 1 1.9-1 8.56 8.56 0 0 1 .19 7.07 8.62 8.62 0 0 1 1.19 1.63 8 8 0 0 0 1.55 2.17 1.07 1.07 0 0 1-.24 2.09c-.6 0-1.5-.29-3.17-3.2a5.9 5.9 0 0 0-1.24-1.56 1 1 0 0 1-.45.15l-7.84.5a1 1 0 1 1-.13-2l5.12-.33c-.08 0-.16-.15-.25-.19-.66-.29-1.39-.66-2.21-1-1.82-.86-2.87-2-3.12-3.24a3 3 0 0 1 .17-1.71l-2.23-2.6a1.08 1.08 0 0 1 .11-1.56z"/><path class="cls-40" d="M149.36 370.48a1.07 1.07 0 0 1 1-.21 1.06 1.06 0 0 0-.4 1.68l2.23 2.59a3 3 0 0 0-.17 1.7c.25 1.28 1.29 2.36 3.12 3.22.82.39 1.56.8 2.22 1.08.09 0 .17.2.25.19h-.71c-.08 0-.16-.15-.25-.19-.66-.29-1.39-.66-2.21-1-1.82-.86-2.87-2-3.12-3.24a3 3 0 0 1 .17-1.71l-2.23-2.6a1.08 1.08 0 0 1 .1-1.51zm11.08 12.07a1.06 1.06 0 0 0 .45-.15 6 6 0 0 1 1.25 1.57c1.34 2.35 2.19 3 2.78 3.17a1.06 1.06 0 0 1-.33.08c-.6 0-1.5-.28-3.16-3.19-.35-.62-.75-1.49-1.14-1.46z"/><path class="cls-40" d="M160.39 381.82a9.48 9.48 0 0 1 1 1.14c.44.59-.61.17-.61.17l-.65-.68a1 1 0 0 1-.45.15l-7.84.5a1.08 1.08 0 0 1-.44-2.09v.18a1 1 0 0 0 1.13.87l7.84-.5c.16 0 0 .34.17.27"/></g><path class="cls-33" d="M163.83 385.42l-74.5-4.67c-4.67-.17-4.83-2.83-4.83-2.83l-2.79-19.82c-2.65.13-2 1.66-2 1.66l2.83 20.17s.17 2.67 4.83 2.83l74.5 4.67a2.38 2.38 0 0 0 2.3-2 1.74 1.74 0 0 1-.34-.01z"/><path class="cls-23" d="M150.13 357.85a1.72 1.72 0 0 1 2.38.49l2.44 3.8c.44-.47 1-.92 1-1.26l.39-6.29a1.72 1.72 0 0 1 3.43.21l-.38 6.16a5.1 5.1 0 0 0 1.84-.73 1.76 1.76 0 0 1 2.28.92 1.71 1.71 0 0 1-.9 2.25c-4.09 1.72-5.91 2.46-6.81 2.77a1.55 1.55 0 0 0-.37 1.09c0 .51.46 1.6 2.73 3 1.2.76 2.28 1.41 3.24 2a42.53 42.53 0 0 1 4.26 2.79 10.69 10.69 0 0 0 .4-7.54 1.72 1.72 0 0 1 3.23-1.18c.09.26 2.17 6.1-1.12 11.27a14 14 0 0 1 1.56 2.84 12.79 12.79 0 0 0 2 3.76 1.72 1.72 0 0 1-.81 3.28c-1-.06-2.34-.76-4.39-5.73a9.53 9.53 0 0 0-1.67-2.75 1.69 1.69 0 0 1-.74.12l-12.57-.78a1.72 1.72 0 0 1 .21-3.43l8.21.51-.37-.22c-1-.59-2.08-1.25-3.31-2-2.73-1.74-4.18-3.67-4.31-5.75a4.79 4.79 0 0 1 .62-2.66l-3-4.57a1.72 1.72 0 0 1 .53-2.37z"/><path class="cls-30" d="M150.13 357.85a1.72 1.72 0 0 1 1.63-.14 1.64 1.64 0 0 0-.48.21 1.72 1.72 0 0 0-.49 2.38l3 4.57a4.77 4.77 0 0 0-.62 2.66c.13 2.08 1.58 4 4.31 5.74 1.23.78 2.33 1.44 3.31 2l.36.22-1.14-.07-.37-.22c-1-.59-2.08-1.25-3.31-2-2.73-1.74-4.18-3.67-4.31-5.75a4.79 4.79 0 0 1 .62-2.66l-3-4.57a1.72 1.72 0 0 1 .49-2.37zm15.18 21.39a1.7 1.7 0 0 0 .74-.12 9.55 9.55 0 0 1 1.66 2.75c1.66 4 2.88 5.24 3.79 5.6a1.7 1.7 0 0 1-.54.06c-1-.06-2.34-.76-4.39-5.73a9.66 9.66 0 0 0-1.52-2.57z"/><path class="cls-30" d="M165.38 378.09a15.07 15.07 0 0 1 1.42 2c.59 1-1 .15-1 .15l-.9-1.23a1.69 1.69 0 0 1-.74.12l-12.57-.78a1.71 1.71 0 0 1-.28-3.38 1.77 1.77 0 0 0-.11.49 1.72 1.72 0 0 0 1.61 1.82l12.57.78c.26 0 0 .34.22.25"/><path class="cls-23" d="M223.42 397.74a5.59 5.59 0 1 0-5.75-5.59 5.65 5.65 0 0 0 .11 1.11 24.39 24.39 0 0 1 5.64 4.48z"/><g id="wheel-22"><circle cx="30.5" cy="432.17" r="20"/><circle class="cls-37" cx="30.5" cy="432.17" r="12.31"/><circle class="cls-36" cx="30.5" cy="432.17" r="9.85"/><path d="M29.85 434.62a.45.45 0 0 1-.34-.53.45.45 0 0 1 .53-.34.45.45 0 0 1 .34.53.44.44 0 0 1-.44.35h-.1zm1.49-.56a.44.44 0 0 1 .07-.62.44.44 0 0 1 .62.07.44.44 0 0 1-.06.62.5.5 0 0 1-.28.1.44.44 0 0 1-.35-.17zm-3.2-.79a.44.44 0 0 1 .2-.6.44.44 0 0 1 .59.2.44.44 0 0 1-.2.6.43.43 0 0 1-.2 0 .42.42 0 0 1-.39-.2zm3.88-1.1a.44.44 0 0 1 .44-.45.45.45 0 0 1 .45.44.45.45 0 0 1-.45.44.44.44 0 0 1-.46-.43zm-3.69-.48a.45.45 0 0 1-.21-.6.45.45 0 0 1 .6-.21.45.45 0 0 1 .2.6.43.43 0 0 1-.4.25.47.47 0 0 1-.18-.04zm3.06-.8a.44.44 0 0 1-.07-.62.44.44 0 0 1 .62-.08.45.45 0 0 1 .07.63.43.43 0 0 1-.35.17.47.47 0 0 1-.26-.1zm-1.91-.63a.45.45 0 0 1 .34-.53.44.44 0 0 1 .53.33.45.45 0 0 1-.33.53h-.11a.45.45 0 0 1-.43-.33z"/><path class="cls-35" d="M27.17 439.45a1.33 1.33 0 0 1-.66-.18 8 8 0 0 1-4-6.92 1.33 1.33 0 0 1 1.3-1.35 1.33 1.33 0 0 1 1.33 1.33 5.37 5.37 0 0 0 2.7 4.67 1.33 1.33 0 0 1-.66 2.49zm6.68 0a1.33 1.33 0 0 1-.67-2.49 5.37 5.37 0 0 0 2.67-4.63 1.36 1.36 0 0 1 1.33-1.37 1.31 1.31 0 0 1 1.33 1.3v.06a8 8 0 0 1-4 6.94 1.33 1.33 0 0 1-.66.17zm-6.73-11.56a1.33 1.33 0 0 1-.68-2.48 8 8 0 0 1 4.05-1.1 8 8 0 0 1 4 1 1.33 1.33 0 1 1-1.32 2.32 5.37 5.37 0 0 0-2.67-.63 5.34 5.34 0 0 0-2.7.73 1.32 1.32 0 0 1-.68.14z"/></g><g id="wheel-21"><circle cx="196.4" cy="432.17" r="20"/><circle class="cls-37" cx="196.4" cy="432.17" r="12.31"/><circle class="cls-36" cx="196.4" cy="432.17" r="9.85"/><path d="M195.75 434.62a.45.45 0 0 1-.34-.53.45.45 0 0 1 .53-.34.45.45 0 0 1 .34.53.44.44 0 0 1-.44.35h-.1zm1.49-.56a.44.44 0 0 1 .07-.62.44.44 0 0 1 .62.07.44.44 0 0 1-.06.62.5.5 0 0 1-.28.1.44.44 0 0 1-.35-.17zm-3.2-.79a.44.44 0 0 1 .2-.6.44.44 0 0 1 .59.2.44.44 0 0 1-.2.6.43.43 0 0 1-.2 0 .42.42 0 0 1-.43-.2zm3.88-1.1a.44.44 0 0 1 .44-.45.45.45 0 0 1 .45.44.45.45 0 0 1-.45.44.44.44 0 0 1-.43-.43zm-3.69-.48a.45.45 0 0 1-.21-.6.45.45 0 0 1 .6-.21.45.45 0 0 1 .2.6.43.43 0 0 1-.4.25.47.47 0 0 1-.18-.04zm3.06-.8a.44.44 0 0 1-.07-.62.44.44 0 0 1 .62-.08.45.45 0 0 1 .07.63.43.43 0 0 1-.35.17.47.47 0 0 1-.26-.1zm-1.91-.63a.45.45 0 0 1 .34-.53.44.44 0 0 1 .53.33.45.45 0 0 1-.33.53h-.11a.45.45 0 0 1-.42-.33z"/><path class="cls-35" d="M193.07 439.45a1.33 1.33 0 0 1-.66-.18 8 8 0 0 1-4-6.92 1.33 1.33 0 0 1 1.33-1.34 1.33 1.33 0 0 1 1.33 1.33 5.37 5.37 0 0 0 2.69 4.62 1.33 1.33 0 0 1-.67 2.49zm6.68 0a1.33 1.33 0 0 1-.67-2.49 5.37 5.37 0 0 0 2.67-4.63 1.36 1.36 0 0 1 1.33-1.37 1.31 1.31 0 0 1 1.33 1.3v.06a8 8 0 0 1-4 6.94 1.33 1.33 0 0 1-.66.17zM193 427.87a1.33 1.33 0 0 1-.68-2.48 8 8 0 0 1 4.05-1.1 8 8 0 0 1 4 1 1.33 1.33 0 1 1-1.32 2.32 5.37 5.37 0 0 0-2.64-.69 5.34 5.34 0 0 0-2.7.73 1.32 1.32 0 0 1-.71.22z"/></g></g><g id="bigcar-1"><path class="cls-23" d="M10.13 359.85a1.72 1.72 0 0 1 2.38.49l2.44 3.8c.44-.47 1-.92 1-1.26l.39-6.29a1.72 1.72 0 0 1 3.43.21l-.35 6.2a5.1 5.1 0 0 0 1.84-.73 1.76 1.76 0 0 1 2.28.92 1.71 1.71 0 0 1-.9 2.25c-4.09 1.72-5.91 2.46-6.81 2.77a1.55 1.55 0 0 0-.37 1.09c0 .51.46 1.6 2.73 3 1.2.76 2.28 1.41 3.24 2a42.53 42.53 0 0 1 4.26 2.79 10.69 10.69 0 0 0 .4-7.54 1.72 1.72 0 0 1 3.23-1.18c.09.26 2.17 6.1-1.12 11.27a14 14 0 0 1 1.56 2.84 12.79 12.79 0 0 0 2 3.76 1.72 1.72 0 0 1-.81 3.28c-1-.06-2.33-.76-4.39-5.73a9.53 9.53 0 0 0-1.65-2.79 1.69 1.69 0 0 1-.74.12l-12.57-.78a1.72 1.72 0 0 1 .21-3.43l8.21.51-.37-.22c-1-.59-2.08-1.25-3.31-2-2.73-1.74-4.18-3.67-4.31-5.75a4.79 4.79 0 0 1 .62-2.66l-3-4.57a1.72 1.72 0 0 1 .48-2.37z"/><path class="cls-30" d="M10.13 359.85a1.72 1.72 0 0 1 1.63-.14 1.64 1.64 0 0 0-.48.21 1.72 1.72 0 0 0-.49 2.38l3 4.57a4.77 4.77 0 0 0-.62 2.66c.13 2.08 1.58 4 4.31 5.74 1.23.78 2.33 1.44 3.31 2l.36.22-1.15-.02-.37-.22c-1-.59-2.08-1.25-3.31-2-2.73-1.74-4.18-3.67-4.31-5.75a4.79 4.79 0 0 1 .62-2.66l-3-4.57a1.72 1.72 0 0 1 .5-2.42zm15.18 21.39a1.7 1.7 0 0 0 .74-.12 9.55 9.55 0 0 1 1.66 2.75c1.66 4 2.88 5.24 3.79 5.6a1.7 1.7 0 0 1-.54.06c-1-.06-2.33-.76-4.39-5.73a9.66 9.66 0 0 0-1.57-2.58z"/><path class="cls-30" d="M25.38 380.09a15.07 15.07 0 0 1 1.42 2c.59 1-1 .15-1 .15l-.9-1.23a1.69 1.69 0 0 1-.74.12l-12.57-.78a1.71 1.71 0 0 1-.28-3.38 1.77 1.77 0 0 0-.11.49 1.72 1.72 0 0 0 1.61 1.82l12.57.78c.26 0 0 .34.22.25"/><circle class="cls-23" cx="239.69" cy="396.81" r="5.75"/><path class="cls-7" d="M68.69 433.27l125.53 1.5 45.54-.81s6.51-.48 7.84-3.75c0 0 1.4-1 1.4-4.7v-9s-.63-12.45-16.86-17.78a319.78 319.78 0 0 0-41.33-8s-7.77-2-10.88-4.45l-30.22-14.52s-8.44-6.22-32.45-5.74c0 0-29.69-.5-45.74 3.44L34.8 382.7s-9.56 2.89-13.78 2.67c0 0-10.67-.67-14.22 6.67l-5.34 14.22a22.68 22.68 0 0 0 1.33 12.42L5 425.51s1.11 2.86 8 3l23.32 3.18z"/><path class="cls-11" d="M239.53 402.17s-9.36-1.7-11.91-1.36c0 0-2.78 1.11.56 3.45l4.22 3.56a10 10 0 0 0 6.67 1.11s7-.34 7.35.19c-.01-.01-1.31-3.12-6.89-6.95z"/><path class="cls-31" d="M179.3 391.92c0-.73-1.07-2.35-6.81-5.78l-14.61-7.66c-13.21-6.53-21.93-8.31-25.53-8.8a157.49 157.49 0 0 0-17.21-.76 200.5 200.5 0 0 0-22.33.5h-.86l-.34.05h-.18l-.44.07h-.2l-.54.1h-.18l-.67.13h-.13l-.82.17h-.05l-1 .21c-2.15.47-4.8 1.12-7.7 2h-.06c-.46.14-.93.34-1.41.5v.06c-7.95 3-17.38 7-23.54 14-.27 0-.47.6-.45.84-.12.45.06.81.76 1.06l123 5s2.07.15 1.3-1.69z"/><path class="cls-5" d="M6.35 393h14.22s3-.26-2.56 5.63a5.9 5.9 0 0 1-4.89 1.2l-9.25.3z"/><path class="cls-25" d="M173.63 389l-17.12-9.13A82.59 82.59 0 0 0 126.6 371l-5.9-.43s-2.33-.5-1.89 2l2.45 13.78a4.3 4.3 0 0 0 4.56 3.37l47.86 1.72c2.15-.76-.05-2.44-.05-2.44z"/><path class="cls-7" d="M178.27 385.46a79 79 0 0 0 8.35 3.6 53.77 53.77 0 0 0 7.79 2.13l-5.16 1.32-6.12-1.76"/><path class="cls-31" d="M229.71 434.14a22 22 0 1 0-42.87.54l7.38.09z"/><path class="cls-6" d="M167.34 419.6a5.27 5.27 0 0 0-3.74-1.6 5.13 5.13 0 0 0-2.62.76 15.24 15.24 0 0 0-3.86 3.86v1.61A25.51 25.51 0 0 1 161 420a4.19 4.19 0 0 1 6.79 3.33v1a4.24 4.24 0 0 1-4.23 4.23 4.14 4.14 0 0 1-4-3.06l-.75.92a4.91 4.91 0 0 0 4.75 3.21 5.35 5.35 0 0 0 5.3-5.3v-1a5.26 5.26 0 0 0-1.57-3.74m-23-.49a3.82 3.82 0 0 1 1.93.48 9.05 9.05 0 0 1 .74-.81 4.61 4.61 0 0 0-2.67-.75 5.14 5.14 0 0 0-5.3 5.3v6.27h1.07v-6.27a4 4 0 0 1 4.23-4.23m10.21 10.5v-6.27a3.44 3.44 0 0 0-6.88 0v1a3.48 3.48 0 0 0 3.44 3.44 2.74 2.74 0 0 0 1.63-.47v-1.13a2.67 2.67 0 0 1-1.63.53 2.34 2.34 0 0 1-2.37-2.36v-1a2.37 2.37 0 0 1 4.73 0v6.27zm-28.77-6.89v.34a6.89 6.89 0 0 0 2 4.89 6.76 6.76 0 0 0 4.83 2 7.48 7.48 0 0 0 3.89-1 4.66 4.66 0 0 0 1.35-1.14V422h-5.5v1.07h4.42v4.37a6.31 6.31 0 0 1-8.25-.3 5.84 5.84 0 0 1-1.65-4.13v-.34a5.66 5.66 0 0 1 1.84-4.08 7.06 7.06 0 0 1 7.83-1v-1.21a8.58 8.58 0 0 0-3.43-.55 7.17 7.17 0 0 0-7.31 6.83m18.58-1.66a2.38 2.38 0 0 1 1 .2 6.53 6.53 0 0 1 .47-.94 3.12 3.12 0 0 0-1.5-.34 3.36 3.36 0 0 0-3.44 3.44v6.27H142v-6.27a2.26 2.26 0 0 1 2.36-2.36m-7.82-1.27v-1.27a7 7 0 0 0-3.43-.75 5.66 5.66 0 0 0-3.83 1.48 4.82 4.82 0 0 0-1.61 3.55v.34a5 5 0 0 0 5 5c2.22 0 3.14-.73 3.37-1v-3.18h-3.63v1.1H135v1.62a5.85 5.85 0 0 1-2.36.41 3.83 3.83 0 0 1-2.74-1.14 4 4 0 0 1-1.14-2.81v-.34a4.23 4.23 0 0 1 4.37-4 5 5 0 0 1 3.43.95m25.35 2a2.5 2.5 0 0 1 1.74-.76 2.34 2.34 0 0 1 2.37 2.36v1a2.34 2.34 0 0 1-2.37 2.36 2.24 2.24 0 0 1-1.75-1 3.9 3.9 0 0 1-.75-2l-.87 1.06a4.05 4.05 0 0 0 1.19 2.14 3.23 3.23 0 0 0 2.17.88 3.44 3.44 0 0 0 3.36-3.43v-1a3.5 3.5 0 0 0-3.44-3.44 3.86 3.86 0 0 0-2.55 1.17c-.29.29-1 1-1.37 1.44-.69.75-1.7 1.89-2.55 3v1.68c1-1.22 1.5-1.91 2.39-2.94a32.43 32.43 0 0 1 2.35-2.56m-16.03 2.65a5.35 5.35 0 0 0 5.3 5.3 3.9 3.9 0 0 0 1.63-.34v-1.07a4.42 4.42 0 0 1-1.63.34 4.29 4.29 0 0 1-4.23-4.23v-1a4.29 4.29 0 0 1 4.23-4.23 4.2 4.2 0 0 1 4.23 4.23v6.27h1.07v-6.48a5.35 5.35 0 0 0-1.65-3.61 5.3 5.3 0 0 0-9 3.81zm12.43-4.16a8.5 8.5 0 0 1 1.07-1.14v-5.68h-1.07zm1.87-1.57v-5.23h1.07v4.5a6.68 6.68 0 0 0-1.07.74m42.9-26.07l-13.84 13.33a8.5 8.5 0 0 1-5.36 2h-.56l-149.77-3.7 3.44.09a6 6 0 0 0-4 1.53l-2 1.91 152.24 3.77a12.21 12.21 0 0 0 8.47-3l.42-.4 15.34-14.78z"/><path class="cls-6" d="M31.15 403.89a8.68 8.68 0 0 1 6.29-2.25l146.37 3.62a6 6 0 0 0 3.61-1.29l2.23-2.15-152.12-3.76a12.22 12.22 0 0 0-8.85 3.24C28 402 23 406.87 17.63 412c-1.93 1.85-9.31 9-13 12.47l.37 1.04a4 4 0 0 0 1.91 1.74c2.86-2.76 8.21-7.94 10.77-10.39 5.32-5.11 12.76-12.29 13.47-12.97zm183.71-9.2q-2-.41-4.28-.84l-6.39 6.15c-.19.18-4.35 4.1-5.9 5.59a12.18 12.18 0 0 0 8.35-3zm-192.55 9.18a12.17 12.17 0 0 0-8.62 3.24c-.57.54-7.44 7.26-11.15 10.87.08.23.16.46.25.69l1 3.08c3.14-3.05 11.73-11.45 12.35-12 .27-.29 4.61-4.37 6.17-5.88z"/><path class="cls-31" d="M52.16 406.2a22 22 0 0 0-22 22 22.42 22.42 0 0 0 .17 2.68l6 .82 32.36 1.55 4.88.06a22 22 0 0 0-21.41-27.11z"/><path class="cls-25" d="M110.82 389.7a7.1 7.1 0 0 0 .71-.07c.82-.26 2-1.31 1.62-5.26l-.67-11.11c-.14-2.33-.27-3-.86-3.23a27.43 27.43 0 0 0-4 0h-.19l-9.28.53a82.73 82.73 0 0 0-30.28 9.31l-6 3.75a62.3 62.3 0 0 0-3.12 2.36c-.73.79-1.2 1.67.18 1.72l51.79 2z"/><path class="cls-31" d="M135 396.53a1.5 1.5 0 0 1-1.57 1.43l-9-.43A1.5 1.5 0 0 1 123 396a1.5 1.5 0 0 1 1.57-1.43l9 .42a1.5 1.5 0 0 1 1.43 1.57zm-65-2a1.5 1.5 0 0 1-1.58 1.47l-9-.43A1.5 1.5 0 0 1 58 394a1.5 1.5 0 0 1 1.57-1.43l9 .42a1.5 1.5 0 0 1 1.43 1.54z"/><path class="cls-33" d="M127.82 388.73a4.3 4.3 0 0 1-4.56-3.37l-2.45-13.78a2.66 2.66 0 0 1 0-1h-.1s-2.33-.5-1.89 2l2.45 13.78a4.3 4.3 0 0 0 4.56 3.37l47.86 1.72c.75-.27 1-.66.93-1zM62 386.7c-1.39-.05-.91-.93-.18-1.72 1-.83 2.07-1.61 3.12-2.36l6-3.75a72.27 72.27 0 0 1 11-4.91 73.93 73.93 0 0 0-14 5.91l-6 3.75a62.3 62.3 0 0 0-3.12 2.36c-.73.79-1.2 1.67.18 1.72l51.79 2a7.1 7.1 0 0 0 .71-.07 2 2 0 0 0 1.12-1z"/><ellipse class="cls-32" cx="128.07" cy="447.09" rx="118.73" ry="5.99"/><g id="wheel-12"><circle cx="208.9" cy="429.17" r="17.5"/><circle class="cls-35" cx="208.9" cy="429.17" r="12.35"/><circle class="cls-41" cx="208.75" cy="428.87" r="9.25"/><path class="cls-37" d="M218.62 426.51c0-.11-.05-.23-.09-.34a9.85 9.85 0 0 0-.56-1.38c-.07-.14-.13-.29-.21-.43s-.13-.2-.19-.31-.2-.35-.32-.52-.28-.38-.43-.57l-.15-.21c-.12-.15-.26-.28-.38-.42s-.17-.2-.27-.29l-.3-.27c-.14-.13-.27-.26-.41-.38a10 10 0 0 0-5.32-2.24h-1.09a10 10 0 0 0-7.13 3l-.12.14c-.18.19-.36.38-.53.58s-.23.3-.34.46-.16.21-.24.32a10.46 10.46 0 0 0-1.67 4.61v1.03a10.08 10.08 0 0 0 10.08 10.08 10.07 10.07 0 0 0 8.82-5.2v-.07c0-.09.09-.18.13-.27a10 10 0 0 0 1.09-4.53 10 10 0 0 0-.37-2.79zm-1.91 4.63a8.1 8.1 0 0 1-5.76 5.82.91.91 0 0 1-1-.37 1.87 1.87 0 0 1-.24-1v-2.33a.78.78 0 1 0-1.56 0v2.33a2.11 2.11 0 0 1-.46 1.13.93.93 0 0 1-.79.23h-.19l-.42-.13-.21-.08a8.08 8.08 0 0 1-2.14-1.18c-.16-.12-.31-.25-.45-.38l-.07-.06-.41-.41-.06-.06a8.2 8.2 0 0 1-1-1.32 8 8 0 0 1-.67-1.41c-.07-.2-.13-.41-.19-.62a1.07 1.07 0 0 1 .37-1.07 2 2 0 0 1 1-.34h2.33a.78.78 0 0 0 0-1.55h-2.33a2 2 0 0 1-1.13-.36.82.82 0 0 1-.23-.7c0-.12.05-.23.09-.34v-.16c.06-.19.13-.39.21-.57l.06-.14q.14-.33.31-.64c.12-.21.24-.42.38-.62l.16-.23.25-.33.24-.29.21-.23.31-.31.16-.15.38-.33h.05a8 8 0 0 1 2.88-1.43 1 1 0 0 1 1 .37 2 2 0 0 1 .31 1v2.33a.78.78 0 1 0 1.56 0v-2.33a2 2 0 0 1 .39-1.13.85.85 0 0 1 .75-.23h.19l.36.11.39.14.3.12.38.18.53.29.3.19.36.26.21.15.35.3.16.15.35.35.11.12a8.06 8.06 0 0 1 1.82 3.35.88.88 0 0 1-.37.94 1.84 1.84 0 0 1-1 .21H213a.78.78 0 1 0 0 1.55h2.33a2.16 2.16 0 0 1 1.13.49 1 1 0 0 1 .25.72z"/><circle class="cls-36" cx="208.9" cy="429.17" r="4.94"/><circle class="cls-41" cx="208.9" cy="426.84" r="1"/><circle class="cls-41" cx="208.9" cy="431.5" r="1"/><circle class="cls-41" cx="211.24" cy="429.17" r="1"/><circle class="cls-41" cx="206.57" cy="429.17" r="1"/></g><g id="wheel-11"><circle cx="51.9" cy="429.17" r="17.5"/><circle class="cls-35" cx="51.9" cy="429.17" r="12.35"/><circle class="cls-41" cx="51.75" cy="428.87" r="9.25"/><path class="cls-37" d="M61.62 426.51c0-.11-.05-.23-.09-.34a9.85 9.85 0 0 0-.56-1.38c-.07-.14-.13-.29-.21-.43s-.13-.2-.19-.31-.2-.35-.32-.52-.28-.38-.43-.57l-.15-.21c-.12-.15-.26-.28-.38-.42s-.17-.2-.27-.29l-.3-.27c-.14-.13-.27-.26-.41-.38a10 10 0 0 0-5.31-2.24h-1.09a10 10 0 0 0-7.13 3l-.12.14c-.18.19-.36.38-.53.58s-.23.3-.34.46-.16.21-.24.32a10.46 10.46 0 0 0-1.67 4.61v1.03a10.08 10.08 0 0 0 10.02 9.96 10.07 10.07 0 0 0 8.82-5.2v-.07c0-.09.09-.18.13-.27a10 10 0 0 0 1.15-4.54 10 10 0 0 0-.38-2.66zm-1.91 4.63a8.1 8.1 0 0 1-5.76 5.86.91.91 0 0 1-1-.37 1.87 1.87 0 0 1-.24-1v-2.33a.78.78 0 1 0-1.56 0v2.33a2.11 2.11 0 0 1-.46 1.13.93.93 0 0 1-.69.24h-.19l-.42-.13-.21-.08a8.08 8.08 0 0 1-2.18-1.24c-.16-.12-.31-.25-.45-.38l-.07-.06-.41-.41-.06-.06a8.2 8.2 0 0 1-1-1.32 8 8 0 0 1-.67-1.41c-.07-.2-.13-.41-.19-.62a1.07 1.07 0 0 1 .37-1.07 2 2 0 0 1 1-.34h2.33a.78.78 0 0 0 0-1.55h-2.39a2 2 0 0 1-1.13-.36.82.82 0 0 1-.23-.7c0-.12.05-.23.09-.34v-.16c.06-.19.13-.39.21-.57l.06-.14q.14-.33.31-.64c.12-.21.24-.42.38-.62l.16-.23.25-.33.24-.29.21-.23.31-.31.16-.15.38-.33h.05a8 8 0 0 1 2.88-1.43 1 1 0 0 1 1 .37 2 2 0 0 1 .31 1v2.33a.78.78 0 1 0 1.56 0v-2.33a2 2 0 0 1 .39-1.13.85.85 0 0 1 .75-.23h.19l.36.11.39.14.3.12.38.18.53.29.3.19.36.26.21.15.35.3.16.15.35.35.11.12a8.06 8.06 0 0 1 1.82 3.35.88.88 0 0 1-.37.94 1.84 1.84 0 0 1-1 .21H56a.78.78 0 1 0 0 1.55h2.33a2.16 2.16 0 0 1 1.13.49 1 1 0 0 1 .25.73z"/><circle class="cls-36" cx="51.9" cy="429.17" r="4.94"/><circle class="cls-41" cx="51.9" cy="426.84" r="1"/><circle class="cls-41" cx="51.9" cy="431.5" r="1"/><circle class="cls-41" cx="54.24" cy="429.17" r="1"/><circle class="cls-41" cx="49.57" cy="429.17" r="1"/></g></g></g></g></svg>