<svg xmlns="http://www.w3.org/2000/svg" viewBox="0 0 365.83 121.55"><defs><style>.cls-1{fill:#51bc7c}.cls-2{fill:#00953a}.cls-3{fill:#076d2b}.cls-4,.cls-5{fill:none;stroke:#3e3935;stroke-miterlimit:10}.cls-5{fill:#ccf3f8}.cls-6{fill:#fff}</style></defs><title>signboard</title><g id="Layer_2" data-name="Layer 2"><g id="grab-berbagi"><g id="signboard"><path class="cls-1" d="M65.77 32.94L24.93 18.75l6.88 27.51L0 60.02l36.37 13.97 12.59-25.85 10.32 1.2 6.49-16.4z"/><path class="cls-2" d="M47.16 47.55L27.51 95.7s159.91 62.76 283.72-7.31l-15.9-45.57s-90.96 56.75-248.17 4.73z"/><path class="cls-3" d="M311.23 88.39l-6.45 28.8-8.05-21.26 14.5-7.54z"/><path class="cls-1" d="M299.85 55.79l37.17-25-6.44 39.12 35.25 12.28-61.05 35 6.45-28.8-11.38-32.6z"/><path class="cls-3" d="M58.71 51.19l7.23-18.25-18.87 14.6 11.64 3.65z"/><path class="cls-4" d="M118.5 0v71m103-71v71"/><circle class="cls-5" cx="221.5" cy="70.88" r="2"/><circle class="cls-5" cx="118.5" cy="68.88" r="2"/><path class="cls-6" d="M73.52 92.89a12.34 12.34 0 0 1-2 .25 14.41 14.41 0 0 1-2.39-.09 17.63 17.63 0 0 1-2.86-.6 15.73 15.73 0 0 1-4.84-2.26 10.87 10.87 0 0 1-3.09-3.29 9.22 9.22 0 0 1-1.25-4 11.83 11.83 0 0 1 .61-4.57 11 11 0 0 1 2.23-4 10 10 0 0 1 3.42-2.5 11.74 11.74 0 0 1 4.29-1 15.16 15.16 0 0 1 4.88.63A19.09 19.09 0 0 1 76.44 73a11.62 11.62 0 0 1 2.36 1.65l-1.18 4.41-.24.06a15.4 15.4 0 0 0-2.25-1.82A11.21 11.21 0 0 0 72 75.91a7 7 0 0 0-5.24.25 6.53 6.53 0 0 0-3.13 4.15 6.78 6.78 0 0 0 .07 5.06 6 6 0 0 0 4 2.91 8.76 8.76 0 0 0 2.42.38l1-3.59L67.38 84l1.11-3.78c3.69 1.08 5.53 1.59 9.24 2.57l-2.55 9.64a15.51 15.51 0 0 1-1.66.46zm15.22-2.69l-2.44-.56-1.69 7.18c-2.4-.56-3.6-.86-6-1.46l5.16-20.41c3.29.83 4.94 1.23 8.24 2 2.75.63 4.7 1.63 5.85 3.06A6 6 0 0 1 99 85.22a6.21 6.21 0 0 1-1.61 3.24 5.65 5.65 0 0 1-3 1.57c1.22 3.72 1.85 5.57 3.16 9.28l-.06.29c-2.5-.5-3.75-.76-6.25-1.3-1.07-3.24-1.56-4.86-2.5-8.1zm-.23-9.93L87.2 85.8l2.13.5a3.89 3.89 0 0 0 2.8-.13 2.82 2.82 0 0 0 1.24-1.95A2.52 2.52 0 0 0 93 82a4.48 4.48 0 0 0-2.5-1.23zm25.57 18.23c-3-.47-4.57-.72-7.6-1.25-.83 1.47-1.24 2.2-2.08 3.67-2.15-.39-3.23-.59-5.38-1v-.23c4.79-7.55 7.09-11.37 11.54-19 2.31.4 3.47.59 5.79.95 1.76 8.7 2.73 13 4.86 21.73v.24c-2.55-.34-3.82-.52-6.37-.9-.31-1.71-.46-2.56-.76-4.21zm-2-11.51c-1.43 2.67-2.15 4-3.62 6.66 2 .33 2.93.5 4.88.8-.53-2.98-.78-4.45-1.27-7.45zM126.69 83c3.47.43 5.2.63 8.68 1a10.29 10.29 0 0 1 5.47 1.82 4.62 4.62 0 0 1 1.62 4.24 4.5 4.5 0 0 1-1 2.64 4.58 4.58 0 0 1-2.91 1.37 6.43 6.43 0 0 1 3.38 2.25 5.16 5.16 0 0 1 .84 3.41 5.24 5.24 0 0 1-2.41 4.26c-1.47.95-3.68 1.3-6.62 1-3.86-.38-5.79-.6-9.64-1.08zm5.31 4.72l-.46 4.28 2.47.26a3.11 3.11 0 0 0 2.06-.32 2 2 0 0 0 .77-1.58 1.85 1.85 0 0 0-.54-1.67 3.48 3.48 0 0 0-1.95-.68zm-.87 8l-.53 4.9 2.56.27a4.74 4.74 0 0 0 2.63-.28 2.12 2.12 0 0 0 1-1.83 2.16 2.16 0 0 0-.63-2 4.66 4.66 0 0 0-2.47-.8zm22.24-10.39c3.48.17 5.23.24 8.71.32a10.27 10.27 0 0 1 5.59 1.41 4.62 4.62 0 0 1 1.93 4.1 4.5 4.5 0 0 1-.83 2.71 4.57 4.57 0 0 1-2.77 1.6 6.42 6.42 0 0 1 3.54 2 5.16 5.16 0 0 1 1.09 3.33 5.25 5.25 0 0 1-2.08 4.43c-1.39 1.06-3.57 1.57-6.52 1.5-3.87-.09-5.81-.16-9.68-.35zm5.64 4.3l-.14 4.27 2.48.07a3.1 3.1 0 0 0 2-.47 2 2 0 0 0 .65-1.63 1.85 1.85 0 0 0-.66-1.63 3.48 3.48 0 0 0-2-.54zm-.26 8l-.16 4.92 2.57.08a4.73 4.73 0 0 0 2.59-.48 2.12 2.12 0 0 0 .84-1.9 2.16 2.16 0 0 0-.78-1.94 4.65 4.65 0 0 0-2.52-.61zm15.07-11.88c5.57 0 8.35-.12 13.92-.39l.2 4.15c-3.29.16-4.94.22-8.23.3l.1 4.06c2.85-.07 4.27-.12 7.12-.25l.18 4.06c-2.88.13-4.32.18-7.2.25l.11 4.63c3.47-.09 5.21-.15 8.68-.32l.2 4.15c-6 .29-8.94.37-14.9.42-.07-8.43-.11-12.64-.18-21.06zm27.12 12.46l-2.48.19.55 7.36c-2.44.18-3.67.27-6.11.41-.49-8.41-.74-12.61-1.23-21 3.36-.2 5-.32 8.4-.59 2.8-.23 4.95.15 6.47 1.16a6.06 6.06 0 0 1 2.63 4.67 6.23 6.23 0 0 1-.57 3.59 5.63 5.63 0 0 1-2.4 2.4c2.27 3.18 3.43 4.76 5.79 7.9v.3c-2.53.28-3.79.41-6.32.64-1.9-2.82-2.85-4.24-4.73-7.03zm-3.2-9.4l.43 5.66 2.17-.17a3.86 3.86 0 0 0 2.62-1 2.83 2.83 0 0 0 .59-2.23 2.53 2.53 0 0 0-1-2 4.44 4.44 0 0 0-2.74-.42zm14.63-5.48c3.47-.41 5.2-.63 8.66-1.13a10.33 10.33 0 0 1 5.76.46 4.61 4.61 0 0 1 2.59 3.73 4.49 4.49 0 0 1-.38 2.81 4.59 4.59 0 0 1-2.5 2 6.45 6.45 0 0 1 3.83 1.37A5.15 5.15 0 0 1 232 95.7a5.24 5.24 0 0 1-1.32 4.71c-1.2 1.27-3.27 2.14-6.2 2.56-3.84.55-5.77.8-9.62 1.26-1.01-8.35-1.5-12.54-2.49-20.9zm6.29 3.3l.57 4.23 2.46-.34a3.12 3.12 0 0 0 1.92-.8A2 2 0 0 0 224 88a1.85 1.85 0 0 0-.92-1.5 3.49 3.49 0 0 0-2.06-.2zm1.07 7.93l.66 4.88 2.55-.35a4.75 4.75 0 0 0 2.49-.9 2.12 2.12 0 0 0 .52-2 2.16 2.16 0 0 0-1.1-1.78 4.67 4.67 0 0 0-2.6-.18zm28.21.22c-3 .64-4.53.94-7.57 1.52-.25 1.67-.38 2.5-.65 4.16-2.15.4-3.23.59-5.39 1v-.24c1.81-8.75 2.62-13.14 4.06-21.9 2.3-.45 3.46-.68 5.76-1.16 4.73 7.51 7.18 11.24 12.25 18.6l.05.23c-2.51.59-3.77.87-6.3 1.41-.91-1.46-1.35-2.18-2.21-3.62zm-6-10.06c-.39 3-.6 4.51-1 7.51 1.94-.38 2.92-.57 4.86-1-1.54-2.58-2.3-3.89-3.8-6.51zm33.58 6.1a12.38 12.38 0 0 1-1.52 1.24 14.44 14.44 0 0 1-2.09 1.16 17.62 17.62 0 0 1-2.76 1 15.65 15.65 0 0 1-5.3.57 10.8 10.8 0 0 1-4.33-1.21 9.21 9.21 0 0 1-3.15-2.81 11.89 11.89 0 0 1-1.84-4.23 11 11 0 0 1-.16-4.56 10 10 0 0 1 1.61-3.91 11.66 11.66 0 0 1 3.11-3.07 15.08 15.08 0 0 1 4.49-2 19.08 19.08 0 0 1 4.12-.72 11.65 11.65 0 0 1 2.87.18l1.28 4.39-.18.18a15.45 15.45 0 0 0-2.87-.39 11.21 11.21 0 0 0-3.42.45 6.92 6.92 0 0 0-4.33 2.91 6.54 6.54 0 0 0-.52 5.17 6.79 6.79 0 0 0 2.68 4.3 6 6 0 0 0 4.91.42 8.76 8.76 0 0 0 2.27-.93l-1-3.6-3.73 1-1-3.81c3.7-1 5.55-1.5 9.23-2.59l2.82 9.57a15.58 15.58 0 0 1-1.19 1.29zm-.46-20.68c2.26-.69 3.39-1 5.64-1.78l6.51 20c-2.38.77-3.58 1.15-6 1.89z"/></g></g></g></svg>